<?xml version="1.0" encoding="utf-8" standalone="no"?>
<!DOCTYPE svg PUBLIC "-//W3C//DTD SVG 1.1//EN"
  "http://www.w3.org/Graphics/SVG/1.1/DTD/svg11.dtd">
<svg xmlns:xlink="http://www.w3.org/1999/xlink" width="364.773064pt" height="224.679304pt" viewBox="0 0 364.773064 224.679304" xmlns="http://www.w3.org/2000/svg" version="1.1">
 <metadata>
  <rdf:RDF xmlns:dc="http://purl.org/dc/elements/1.1/" xmlns:cc="http://creativecommons.org/ns#" xmlns:rdf="http://www.w3.org/1999/02/22-rdf-syntax-ns#">
   <cc:Work>
    <dc:type rdf:resource="http://purl.org/dc/dcmitype/StillImage"/>
    <dc:date>2024-02-27T15:03:50.153486</dc:date>
    <dc:format>image/svg+xml</dc:format>
    <dc:creator>
     <cc:Agent>
      <dc:title>Matplotlib v3.8.0, https://matplotlib.org/</dc:title>
     </cc:Agent>
    </dc:creator>
   </cc:Work>
  </rdf:RDF>
 </metadata>
 <defs>
  <style type="text/css">*{stroke-linejoin: round; stroke-linecap: butt}</style>
 </defs>
 <g id="figure_1">
  <g id="patch_1">
   <path d="M 0 224.679304 
L 364.773064 224.679304 
L 364.773064 -0 
L 0 -0 
z
" style="fill: #ffffff"/>
  </g>
  <g id="axes_1">
   <g id="patch_2">
    <path d="M 65.292187 176.776179 
L 338.712187 176.776179 
L 338.712187 38.176179 
L 65.292187 38.176179 
z
" style="fill: #ffffff"/>
   </g>
   <g id="matplotlib.axis_1">
    <g id="xtick_1">
     <g id="line2d_1">
      <defs>
       <path id="m53f2d6a538" d="M 0 0 
L 0 5 
" style="stroke: #000000"/>
      </defs>
      <g>
       <use xlink:href="#m53f2d6a538" x="79.575322" y="176.776179" style="stroke: #000000"/>
      </g>
     </g>
     <g id="text_1">
      <text style="font: 12px 'DejaVu Sans', 'Bitstream Vera Sans', 'Computer Modern Sans Serif', 'Lucida Grande', 'Verdana', 'Geneva', 'Lucid', 'Arial', 'Helvetica', 'Avant Garde', sans-serif" transform="translate(82.886572 215.763679) rotate(-90)">E132</text>
     </g>
    </g>
    <g id="xtick_2">
     <g id="line2d_2">
      <g>
       <use xlink:href="#m53f2d6a538" x="120.384277" y="176.776179" style="stroke: #000000"/>
      </g>
     </g>
     <g id="text_2">
      <text style="font: 12px 'DejaVu Sans', 'Bitstream Vera Sans', 'Computer Modern Sans Serif', 'Lucida Grande', 'Verdana', 'Geneva', 'Lucid', 'Arial', 'Helvetica', 'Avant Garde', sans-serif" transform="translate(123.695527 215.510554) rotate(-90)">Y200</text>
     </g>
    </g>
    <g id="xtick_3">
     <g id="line2d_3">
      <g>
       <use xlink:href="#m53f2d6a538" x="161.193232" y="176.776179" style="stroke: #000000"/>
      </g>
     </g>
     <g id="text_3">
      <text style="font: 12px 'DejaVu Sans', 'Bitstream Vera Sans', 'Computer Modern Sans Serif', 'Lucida Grande', 'Verdana', 'Geneva', 'Lucid', 'Arial', 'Helvetica', 'Avant Garde', sans-serif" transform="translate(164.504482 216.389929) rotate(-90)">A222</text>
     </g>
    </g>
    <g id="xtick_4">
     <g id="line2d_4">
      <g>
       <use xlink:href="#m53f2d6a538" x="202.002187" y="176.776179" style="stroke: #000000"/>
      </g>
     </g>
     <g id="text_4">
      <text style="font: 12px 'DejaVu Sans', 'Bitstream Vera Sans', 'Computer Modern Sans Serif', 'Lucida Grande', 'Verdana', 'Geneva', 'Lucid', 'Arial', 'Helvetica', 'Avant Garde', sans-serif" transform="translate(205.313437 215.416804) rotate(-90)">P230</text>
     </g>
    </g>
    <g id="xtick_5">
     <g id="line2d_5">
      <g>
       <use xlink:href="#m53f2d6a538" x="242.811143" y="176.776179" style="stroke: #000000"/>
      </g>
     </g>
     <g id="text_5">
      <text style="font: 12px 'DejaVu Sans', 'Bitstream Vera Sans', 'Computer Modern Sans Serif', 'Lucida Grande', 'Verdana', 'Geneva', 'Lucid', 'Arial', 'Helvetica', 'Avant Garde', sans-serif" transform="translate(246.122393 217.479304) rotate(-90)">G232</text>
     </g>
    </g>
    <g id="xtick_6">
     <g id="line2d_6">
      <g>
       <use xlink:href="#m53f2d6a538" x="283.620098" y="176.776179" style="stroke: #000000"/>
      </g>
     </g>
     <g id="text_6">
      <text style="font: 12px 'DejaVu Sans', 'Bitstream Vera Sans', 'Computer Modern Sans Serif', 'Lucida Grande', 'Verdana', 'Geneva', 'Lucid', 'Arial', 'Helvetica', 'Avant Garde', sans-serif" transform="translate(286.931348 216.389929) rotate(-90)">A570</text>
     </g>
    </g>
    <g id="xtick_7">
     <g id="line2d_7">
      <g>
       <use xlink:href="#m53f2d6a538" x="324.429053" y="176.776179" style="stroke: #000000"/>
      </g>
     </g>
     <g id="text_7">
      <text style="font: 12px 'DejaVu Sans', 'Bitstream Vera Sans', 'Computer Modern Sans Serif', 'Lucida Grande', 'Verdana', 'Geneva', 'Lucid', 'Arial', 'Helvetica', 'Avant Garde', sans-serif" transform="translate(327.740303 215.510554) rotate(-90)">T572</text>
     </g>
    </g>
   </g>
   <g id="matplotlib.axis_2">
    <g id="ytick_1">
     <g id="line2d_8">
      <defs>
       <path id="mdb7323303a" d="M 0 0 
L -5 0 
" style="stroke: #000000"/>
      </defs>
      <g>
       <use xlink:href="#mdb7323303a" x="65.292187" y="173.384197" style="stroke: #000000"/>
      </g>
     </g>
     <g id="text_8">
      <text style="font: 12px 'DejaVu Sans', 'Bitstream Vera Sans', 'Computer Modern Sans Serif', 'Lucida Grande', 'Verdana', 'Geneva', 'Lucid', 'Arial', 'Helvetica', 'Avant Garde', sans-serif; text-anchor: end" x="56.792187" y="177.943259" transform="rotate(-0 56.792187 177.943259)">−1.5</text>
     </g>
    </g>
    <g id="ytick_2">
     <g id="line2d_9">
      <g>
       <use xlink:href="#mdb7323303a" x="65.292187" y="124.138673" style="stroke: #000000"/>
      </g>
     </g>
     <g id="text_9">
      <text style="font: 12px 'DejaVu Sans', 'Bitstream Vera Sans', 'Computer Modern Sans Serif', 'Lucida Grande', 'Verdana', 'Geneva', 'Lucid', 'Arial', 'Helvetica', 'Avant Garde', sans-serif; text-anchor: end" x="56.792187" y="128.697736" transform="rotate(-0 56.792187 128.697736)">0.0</text>
     </g>
    </g>
    <g id="ytick_3">
     <g id="line2d_10">
      <g>
       <use xlink:href="#mdb7323303a" x="65.292187" y="74.893149" style="stroke: #000000"/>
      </g>
     </g>
     <g id="text_10">
      <text style="font: 12px 'DejaVu Sans', 'Bitstream Vera Sans', 'Computer Modern Sans Serif', 'Lucida Grande', 'Verdana', 'Geneva', 'Lucid', 'Arial', 'Helvetica', 'Avant Garde', sans-serif; text-anchor: end" x="56.792187" y="79.452212" transform="rotate(-0 56.792187 79.452212)">1.5</text>
     </g>
    </g>
    <g id="text_11">
     <text style="font: 17px 'DejaVu Sans', 'Bitstream Vera Sans', 'Computer Modern Sans Serif', 'Lucida Grande', 'Verdana', 'Geneva', 'Lucid', 'Arial', 'Helvetica', 'Avant Garde', sans-serif; text-anchor: middle" x="20.117344" y="107.476179" transform="rotate(-90 20.117344 107.476179)">escape</text>
    </g>
   </g>
   <g id="line2d_11">
    <path d="M 99.979799 176.776179 
L 99.979799 38.176179 
" clip-path="url(#p0499ef6ff2)" style="fill: none; stroke-dasharray: 2,5; stroke-dashoffset: 0; stroke: #000000"/>
   </g>
   <g id="line2d_12">
    <path d="M 140.788755 176.776179 
L 140.788755 38.176179 
" clip-path="url(#p0499ef6ff2)" style="fill: none; stroke-dasharray: 2,5; stroke-dashoffset: 0; stroke: #000000"/>
   </g>
   <g id="line2d_13">
    <path d="M 181.59771 176.776179 
L 181.59771 38.176179 
" clip-path="url(#p0499ef6ff2)" style="fill: none; stroke-dasharray: 2,5; stroke-dashoffset: 0; stroke: #000000"/>
   </g>
   <g id="line2d_14">
    <path d="M 222.406665 176.776179 
L 222.406665 38.176179 
" clip-path="url(#p0499ef6ff2)" style="fill: none; stroke-dasharray: 2,5; stroke-dashoffset: 0; stroke: #000000"/>
   </g>
   <g id="line2d_15">
    <path d="M 263.21562 176.776179 
L 263.21562 38.176179 
" clip-path="url(#p0499ef6ff2)" style="fill: none; stroke-dasharray: 2,5; stroke-dashoffset: 0; stroke: #000000"/>
   </g>
   <g id="line2d_16">
    <path d="M 304.024576 176.776179 
L 304.024576 38.176179 
" clip-path="url(#p0499ef6ff2)" style="fill: none; stroke-dasharray: 2,5; stroke-dashoffset: 0; stroke: #000000"/>
   </g>
   <g id="patch_3">
    <path d="M 65.292187 176.776179 
L 65.292187 38.176179 
" style="fill: none; stroke: #000000; stroke-width: 0.8; stroke-linejoin: miter; stroke-linecap: square"/>
   </g>
   <g id="patch_4">
    <path d="M 65.292187 176.776179 
L 338.712187 176.776179 
" style="fill: none; stroke: #000000; stroke-width: 0.8; stroke-linejoin: miter; stroke-linecap: square"/>
   </g>
   <g id="text_12">
    <g id="patch_5">
     <path d="M 69.373083 146.767804 
L 112.719333 146.767804 
L 112.719333 77.085304 
L 69.373083 77.085304 
L 69.373083 146.767804 
z
" style="fill: none"/>
    </g>
    <path d="M 77.22265 128.701099 
L 77.22265 129.787751 
L 79.300477 129.787751 
Q 81.790571 129.787751 82.796503 129.666504 
Q 83.802435 129.544494 83.802435 129.244044 
Q 83.802435 128.943594 82.796503 128.822347 
Q 81.790571 128.701099 79.300477 128.701099 
L 77.22265 128.701099 
z
M 72.154512 128.085711 
L 79.113583 128.085711 
Q 84.423584 128.085711 86.748771 128.358708 
Q 89.073958 128.631706 89.073958 129.244044 
Q 89.073958 129.856382 86.748771 130.129379 
Q 84.423584 130.402377 79.113583 130.402377 
L 77.22265 130.402377 
L 77.22265 131.787191 
L 72.154512 131.787191 
L 72.154512 128.085711 
z
" style="fill: #b2c2b5"/>
   </g>
   <g id="text_13">
    <g id="patch_6">
     <path d="M 69.373083 141.26872 
L 112.719333 141.26872 
L 112.719333 71.58622 
L 69.373083 71.58622 
L 69.373083 141.26872 
z
" style="fill: none"/>
    </g>
    <path d="M 76.793892 125.50433 
L 76.793892 126.121888 
L 78.168116 126.121888 
Q 81.158428 126.121888 82.428211 126.051468 
Q 83.697994 125.980851 83.697994 125.81212 
Q 83.697994 125.644577 82.428211 125.574552 
Q 81.158428 125.50433 78.168116 125.50433 
L 76.793892 125.50433 
z
M 71.725754 125.333028 
L 77.156688 125.333028 
Q 83.43964 125.333028 86.204578 125.445384 
Q 88.975014 125.557541 88.975014 125.81212 
Q 88.975014 126.067491 86.204578 126.180439 
Q 83.43964 126.29319 77.156688 126.29319 
L 71.725754 126.29319 
L 71.725754 125.333028 
z
" style="fill: #b3c0b6"/>
   </g>
   <g id="text_14">
    <g id="patch_7">
     <path d="M 69.373083 139.112423 
L 112.719333 139.112423 
L 112.719333 69.429923 
L 69.373083 69.429923 
L 69.373083 139.112423 
z
" style="fill: none"/>
    </g>
    <path d="M 88.232933 124.138673 
L 72.258953 124.138673 
L 72.258953 124.138673 
L 88.232933 124.138673 
L 88.232933 124.138673 
L 77.327091 124.138673 
L 77.327091 124.138673 
L 87.205013 124.138673 
L 87.205013 124.138673 
L 77.327091 124.138673 
L 77.327091 124.138673 
L 88.232933 124.138673 
L 88.232933 124.138673 
z
" style="fill: #b3c0b7"/>
   </g>
   <g id="text_15">
    <g id="patch_8">
     <path d="M 69.373083 138.867771 
L 112.719333 138.867771 
L 112.719333 69.185271 
L 69.373083 69.185271 
L 69.373083 138.867771 
z
" style="fill: none"/>
    </g>
    <path d="M 79.954608 123.72815 
L 77.568955 123.811023 
L 82.362248 123.811023 
L 79.954608 123.72815 
z
M 76.865352 123.691534 
L 83.065851 123.691534 
L 89.986443 123.894021 
L 84.918305 123.894021 
L 83.340696 123.843898 
L 76.552029 123.843898 
L 75.007401 123.894021 
L 69.939263 123.894021 
L 76.865352 123.691534 
z
" style="fill: #bbb2c3"/>
   </g>
   <g id="text_16">
    <g id="patch_9">
     <path d="M 69.373083 136.998678 
L 112.719333 136.998678 
L 112.719333 67.316178 
L 69.373083 67.316178 
L 69.373083 136.998678 
z
" style="fill: none"/>
    </g>
    <path d="M 84.352124 121.375085 
L 84.352124 120.758496 
L 80.883583 120.758496 
L 80.883583 120.221579 
L 88.782622 120.221579 
L 88.782622 121.702085 
Q 87.325945 121.860042 85.561441 121.941792 
Q 83.802435 122.022849 81.790571 122.022849 
Q 76.810383 122.022849 74.094917 121.586388 
Q 71.384947 121.149926 71.384947 120.346975 
Q 71.384947 119.530861 74.122401 119.099942 
Q 76.865352 118.669023 82.032434 118.669023 
Q 83.577062 118.669023 85.072218 118.724447 
Q 86.567373 118.77987 87.875635 118.88379 
L 87.875635 119.591135 
Q 86.809237 119.417936 85.424019 119.330643 
Q 84.044298 119.242658 82.395229 119.242658 
Q 79.509359 119.242658 78.080166 119.517006 
Q 76.65647 119.79066 76.65647 120.346975 
Q 76.65647 120.885971 78.030694 121.167939 
Q 79.404918 121.449214 82.032434 121.449214 
Q 82.823987 121.449214 83.406658 121.431201 
Q 83.989329 121.412496 84.352124 121.375085 
z
" style="fill: #b7b9bc"/>
   </g>
   <g id="text_17">
    <g id="patch_10">
     <path d="M 69.373083 131.820806 
L 112.719333 131.820806 
L 112.719333 62.138306 
L 69.373083 62.138306 
L 69.373083 131.820806 
z
" style="fill: none"/>
    </g>
    <path d="M 71.417928 112.472389 
L 76.865352 112.472389 
L 84.011317 115.647014 
L 84.011317 112.472389 
L 88.474796 112.472389 
L 88.474796 116.83896 
L 83.065851 116.83896 
L 75.881408 113.664335 
L 75.881408 116.83896 
L 71.417928 116.83896 
L 71.417928 112.472389 
z
" style="fill: #bab2c2"/>
   </g>
   <g id="text_18">
    <g id="patch_11">
     <path d="M 69.373083 125.47969 
L 112.719333 125.47969 
L 112.719333 55.79719 
L 69.373083 55.79719 
L 69.373083 125.47969 
z
" style="fill: none"/>
    </g>
    <path d="M 80.64172 109.486075 
Q 80.399856 109.499613 80.234949 109.504125 
Q 80.075539 109.508638 79.921626 109.508638 
Q 75.507619 109.508638 73.231904 108.712902 
Q 70.956189 107.915662 70.956189 106.360292 
Q 70.956189 104.798905 73.231904 104.000161 
Q 75.507619 103.201417 79.954608 103.201417 
Q 84.423584 103.201417 86.699299 104.000161 
Q 88.975014 104.798905 88.975014 106.360292 
Q 88.975014 107.431301 87.892125 108.15333 
Q 86.809237 108.875359 84.747901 109.185229 
L 87.941597 109.928317 
L 84.473056 110.539033 
L 80.64172 109.486075 
z
M 79.954608 104.281451 
Q 78.014203 104.281451 77.118209 104.773334 
Q 76.227712 105.265216 76.227712 106.360292 
Q 76.227712 107.450856 77.118209 107.942738 
Q 78.014203 108.433116 79.954608 108.433116 
Q 81.911503 108.433116 82.802 107.942738 
Q 83.697994 107.450856 83.697994 106.360292 
Q 83.697994 105.265216 82.802 104.773334 
Q 81.911503 104.281451 79.954608 104.281451 
z
" style="fill: #bfaaca"/>
   </g>
   <g id="text_19">
    <g id="patch_12">
     <path d="M 69.373083 115.830982 
L 112.719333 115.830982 
L 112.719333 46.148482 
L 69.373083 46.148482 
L 69.373083 115.830982 
z
" style="fill: none"/>
    </g>
    <path d="M 71.384947 87.126515 
L 76.453085 87.126515 
L 76.453085 92.544826 
L 84.385106 87.126515 
L 90.123865 87.126515 
L 82.032434 92.527885 
L 90.415201 100.83182 
L 84.780882 100.83182 
L 78.701315 94.662456 
L 76.453085 96.189974 
L 76.453085 100.83182 
L 71.384947 100.83182 
L 71.384947 87.126515 
z
" style="fill: #a87cba"/>
   </g>
   <g id="text_20">
    <g id="patch_13">
     <path d="M 69.373083 99.339509 
L 112.719333 99.339509 
L 112.719333 29.657009 
L 69.373083 29.657009 
L 69.373083 99.339509 
z
" style="fill: none"/>
    </g>
    <path d="M 79.954608 81.201364 
L 84.473056 65.344183 
L 89.574175 65.344183 
L 83.478118 84.330556 
L 76.453085 84.330556 
L 70.35153 65.344183 
L 75.45265 65.344183 
L 79.954608 81.201364 
z
" style="fill: #bb9ac9"/>
   </g>
   <g id="text_21">
    <g id="patch_14">
     <path d="M 110.182038 139.112423 
L 153.528288 139.112423 
L 153.528288 69.429923 
L 110.182038 69.429923 
L 110.182038 139.112423 
z
" style="fill: none"/>
    </g>
    <path d="M 110.319461 124.138673 
L 115.783375 124.138673 
L 120.763563 124.138673 
L 125.760241 124.138673 
L 131.224156 124.138673 
L 123.308626 124.138673 
L 123.308626 124.138673 
L 118.240488 124.138673 
L 118.240488 124.138673 
L 110.319461 124.138673 
z
" style="fill: #b3c0b7"/>
   </g>
   <g id="text_22">
    <g id="patch_15">
     <path d="M 110.182038 137.443069 
L 153.528288 137.443069 
L 153.528288 67.760569 
L 110.182038 67.760569 
L 110.182038 137.443069 
z
" style="fill: none"/>
    </g>
    <path d="M 112.53471 118.89852 
L 117.602848 118.89852 
L 117.602848 120.256937 
L 123.940769 120.256937 
L 123.940769 118.89852 
L 129.008907 118.89852 
L 129.008907 122.462711 
L 123.940769 122.462711 
L 123.940769 120.876668 
L 117.602848 120.876668 
L 117.602848 122.462711 
L 112.53471 122.462711 
L 112.53471 118.89852 
z
" style="fill: #c2a5cf"/>
   </g>
   <g id="text_23">
    <g id="patch_16">
     <path d="M 110.182038 131.958825 
L 153.528288 131.958825 
L 153.528288 62.276325 
L 110.182038 62.276325 
L 110.182038 131.958825 
z
" style="fill: none"/>
    </g>
    <path d="M 120.763563 111.516009 
L 118.37791 114.248487 
L 123.171203 114.248487 
L 120.763563 111.516009 
z
M 117.674307 110.308731 
L 123.874806 110.308731 
L 130.795398 116.985075 
L 125.72726 116.985075 
L 124.149651 115.332433 
L 117.360984 115.332433 
L 115.816357 116.985075 
L 110.748219 116.985075 
L 117.674307 110.308731 
z
" style="fill: #c0a2cd"/>
   </g>
   <g id="text_24">
    <g id="patch_17">
     <path d="M 110.182038 123.142563 
L 153.528288 123.142563 
L 153.528288 53.460063 
L 110.182038 53.460063 
L 110.182038 123.142563 
z
" style="fill: none"/>
    </g>
    <path d="M 128.750553 107.680365 
Q 127.546732 107.912275 126.221981 108.027204 
Q 124.902725 108.142133 123.446048 108.142133 
Q 118.256978 108.142133 115.525021 106.867653 
Q 112.793064 105.59112 112.793064 103.179664 
Q 112.793064 100.762051 115.525021 99.485519 
Q 118.256978 98.208986 123.446048 98.208986 
Q 124.902725 98.208986 126.243968 98.323915 
Q 127.585211 98.438844 128.750553 98.670754 
L 128.750553 100.774365 
Q 127.447788 100.324911 126.216484 100.117628 
Q 124.990676 99.908293 123.682415 99.908293 
Q 120.900985 99.908293 119.482786 100.733319 
Q 118.064587 101.556293 118.064587 103.179664 
Q 118.064587 104.794827 119.482786 105.619853 
Q 120.900985 106.442826 123.682415 106.442826 
Q 124.990676 106.442826 126.216484 106.235544 
Q 127.447788 106.026209 128.750553 105.576754 
L 128.750553 107.680365 
z
" style="fill: #b590c4"/>
   </g>
   <g id="text_25">
    <g id="patch_18">
     <path d="M 110.182038 110.740308 
L 153.528288 110.740308 
L 153.528288 41.057808 
L 110.182038 41.057808 
L 110.182038 110.740308 
z
" style="fill: none"/>
    </g>
    <path d="M 114.046356 95.74092 
L 114.046356 81.91358 
L 119.114494 81.91358 
L 119.114494 93.328115 
L 129.954373 93.328115 
L 129.954373 95.74092 
L 114.046356 95.74092 
z
" style="fill: #a372b5"/>
   </g>
   <g id="text_26">
    <g id="patch_19">
     <path d="M 110.182038 94.311082 
L 153.528288 94.311082 
L 153.528288 24.628582 
L 110.182038 24.628582 
L 110.182038 94.311082 
z
" style="fill: none"/>
    </g>
    <path d="M 129.283752 67.248447 
L 118.37791 67.248447 
L 118.37791 70.391076 
L 128.305304 70.391076 
L 128.305304 72.940699 
L 118.37791 72.940699 
L 118.37791 79.31024 
L 113.309772 79.31024 
L 113.309772 64.698825 
L 129.283752 64.698825 
L 129.283752 67.248447 
z
" style="fill: #a97dba"/>
   </g>
   <g id="text_27">
    <g id="patch_20">
     <path d="M 110.182038 76.8825 
L 153.528288 76.8825 
L 153.528288 7.2 
L 110.182038 7.2 
L 110.182038 76.8825 
z
" style="fill: none"/>
    </g>
    <path d="M 113.139368 46.180012 
L 113.139368 42.862721 
L 128.409745 42.862721 
L 128.409745 46.180012 
L 123.308626 46.180012 
L 123.308626 58.55621 
L 128.409745 58.55621 
L 128.409745 61.873501 
L 113.139368 61.873501 
L 113.139368 58.55621 
L 118.240488 58.55621 
L 118.240488 46.180012 
L 113.139368 46.180012 
z
" style="fill: #b896c7"/>
   </g>
   <g id="text_28">
    <g id="patch_21">
     <path d="M 150.990993 186.381888 
L 194.337243 186.381888 
L 194.337243 116.699388 
L 150.990993 116.699388 
L 150.990993 186.381888 
z
" style="fill: none"/>
    </g>
    <path d="M 151.590155 157.206715 
L 155.767796 157.206715 
L 157.499318 167.611747 
L 159.599132 160.886294 
L 163.567891 160.886294 
L 165.986526 167.611747 
L 167.360749 157.206715 
L 171.571372 157.206715 
L 168.789942 171.381855 
L 164.320966 171.381855 
L 161.572518 163.943849 
L 158.994474 171.381855 
L 154.580466 171.381855 
L 151.590155 157.206715 
z
" style="fill: #179345"/>
   </g>
   <g id="text_29">
    <g id="patch_22">
     <path d="M 150.990993 169.612146 
L 194.337243 169.612146 
L 194.337243 99.929646 
L 150.990993 99.929646 
L 150.990993 169.612146 
z
" style="fill: none"/>
    </g>
    <path d="M 161.572518 153.809447 
L 166.090967 149.655478 
L 171.192086 149.655478 
L 165.096028 154.629174 
L 158.070995 154.629174 
L 151.969441 149.655478 
L 157.07056 149.655478 
L 161.572518 153.809447 
z
" style="fill: #b0c7b1"/>
   </g>
   <g id="text_30">
    <g id="patch_23">
     <path d="M 150.990993 162.744037 
L 194.337243 162.744037 
L 194.337243 93.061537 
L 150.990993 93.061537 
L 150.990993 162.744037 
z
" style="fill: none"/>
    </g>
    <path d="M 153.002857 143.820478 
L 158.070995 143.820478 
L 158.070995 145.379121 
L 166.003016 143.820478 
L 171.741776 143.820478 
L 163.650345 145.374248 
L 172.033111 147.762977 
L 166.398793 147.762977 
L 160.319226 145.988284 
L 158.070995 146.427693 
L 158.070995 147.762977 
L 153.002857 147.762977 
L 153.002857 143.820478 
z
" style="fill: #b8b7be"/>
   </g>
   <g id="text_31">
    <g id="patch_24">
     <path d="M 150.990993 156.985594 
L 194.337243 156.985594 
L 194.337243 87.303094 
L 150.990993 87.303094 
L 150.990993 156.985594 
z
" style="fill: none"/>
    </g>
    <path d="M 152.469658 138.331009 
L 158.516244 138.331009 
L 161.572518 139.942462 
L 164.612302 138.331009 
L 170.691868 138.331009 
L 170.691868 142.005031 
L 166.33283 142.005031 
L 166.33283 139.062181 
L 163.617363 140.668335 
L 159.582642 140.668335 
L 156.834194 139.062181 
L 156.834194 142.005031 
L 152.469658 142.005031 
L 152.469658 138.331009 
z
" style="fill: #a6daa0"/>
   </g>
   <g id="text_32">
    <g id="patch_25">
     <path d="M 150.990993 151.516057 
L 194.337243 151.516057 
L 194.337243 81.833557 
L 150.990993 81.833557 
L 150.990993 151.516057 
z
" style="fill: none"/>
    </g>
    <path d="M 158.411803 134.416331 
L 158.411803 136.076901 
L 159.786027 136.076901 
Q 162.776338 136.076901 164.046121 135.887547 
Q 165.315904 135.697661 165.315904 135.243957 
Q 165.315904 134.793444 164.046121 134.605153 
Q 162.776338 134.416331 159.786027 134.416331 
L 158.411803 134.416331 
z
M 153.343665 133.955712 
L 158.774598 133.955712 
Q 165.05755 133.955712 167.822489 134.257827 
Q 170.592924 134.559411 170.592924 135.243957 
Q 170.592924 135.930631 167.822489 136.234341 
Q 165.05755 136.53752 158.774598 136.53752 
L 153.343665 136.53752 
L 153.343665 133.955712 
z
" style="fill: #b1c4b3"/>
   </g>
   <g id="text_33">
    <g id="patch_26">
     <path d="M 150.990993 147.221848 
L 194.337243 147.221848 
L 194.337243 77.539348 
L 150.990993 77.539348 
L 150.990993 147.221848 
z
" style="fill: none"/>
    </g>
    <path d="M 154.855311 132.246115 
L 154.855311 131.176897 
L 159.923449 131.176897 
L 159.923449 132.059542 
L 170.763328 132.059542 
L 170.763328 132.246115 
L 154.855311 132.246115 
z
" style="fill: #afc7b0"/>
   </g>
   <g id="text_34">
    <g id="patch_27">
     <path d="M 150.990993 144.820636 
L 194.337243 144.820636 
L 194.337243 75.138136 
L 150.990993 75.138136 
L 150.990993 144.820636 
z
" style="fill: none"/>
    </g>
    <path d="M 169.559508 129.7975 
Q 168.355688 129.820948 167.030936 129.832568 
Q 165.711681 129.844188 164.255003 129.844188 
Q 159.065934 129.844188 156.333976 129.715327 
Q 153.602019 129.586258 153.602019 129.342439 
Q 153.602019 129.097997 156.333976 128.968928 
Q 159.065934 128.839859 164.255003 128.839859 
Q 165.711681 128.839859 167.052923 128.85148 
Q 168.394166 128.8631 169.559508 128.886548 
L 169.559508 129.099242 
Q 168.256744 129.053798 167.025439 129.03284 
Q 165.799631 129.011674 164.49137 129.011674 
Q 161.70994 129.011674 160.291741 129.095092 
Q 158.873542 129.178302 158.873542 129.342439 
Q 158.873542 129.505746 160.291741 129.589163 
Q 161.70994 129.672373 164.49137 129.672373 
Q 165.799631 129.672373 167.025439 129.651415 
Q 168.256744 129.63025 169.559508 129.584806 
L 169.559508 129.7975 
z
" style="fill: #b3c0b6"/>
   </g>
   <g id="text_35">
    <g id="patch_28">
     <path d="M 150.990993 142.558625 
L 194.337243 142.558625 
L 194.337243 72.876125 
L 150.990993 72.876125 
L 150.990993 142.558625 
z
" style="fill: none"/>
    </g>
    <path d="M 159.753046 127.187365 
Q 155.921709 127.138185 154.563976 127.084198 
Q 153.206243 127.03021 153.206243 126.938876 
Q 153.206243 126.821657 155.437982 126.754727 
Q 157.675219 126.687613 161.572518 126.687613 
Q 163.342519 126.687613 165.112519 126.701294 
Q 166.88252 126.714791 168.614042 126.74123 
L 168.614042 126.90763 
Q 166.981464 126.868988 165.299414 126.848835 
Q 163.617363 126.828497 161.968295 126.828497 
Q 160.132331 126.828497 159.148387 126.853457 
Q 158.16994 126.878232 158.16994 126.924454 
Q 158.16994 126.960323 158.884536 126.983803 
Q 159.599132 127.007099 161.863854 127.035387 
L 164.046121 127.06312 
Q 167.140874 127.101207 168.597551 127.164254 
Q 170.059725 127.227301 170.059725 127.323073 
Q 170.059725 127.453789 167.762023 127.51813 
Q 165.469817 127.582471 160.835934 127.582471 
Q 158.928511 127.582471 157.010094 127.567311 
Q 155.097175 127.551965 153.310684 127.521828 
L 153.310684 127.34563 
Q 155.339038 127.394255 157.235467 127.417921 
Q 159.131896 127.441587 160.989847 127.441587 
Q 162.858792 127.441587 163.886711 127.413114 
Q 164.920128 127.384456 164.920128 127.332872 
Q 164.920128 127.294231 164.233016 127.265018 
Q 163.545904 127.235806 162.243139 127.219166 
L 159.753046 127.187365 
z
" style="fill: #b4beb8"/>
   </g>
   <g id="text_36">
    <g id="patch_29">
     <path d="M 150.990993 140.54317 
L 194.337243 140.54317 
L 194.337243 70.86067 
L 150.990993 70.86067 
L 150.990993 140.54317 
z
" style="fill: none"/>
    </g>
    <path d="M 158.840561 125.03707 
L 158.840561 125.224101 
L 160.918387 125.224101 
Q 163.408481 125.224101 164.414413 125.203233 
Q 165.420345 125.182233 165.420345 125.13052 
Q 165.420345 125.078808 164.414413 125.057939 
Q 163.408481 125.03707 160.918387 125.03707 
L 158.840561 125.03707 
z
M 153.772423 124.931152 
L 160.731493 124.931152 
Q 166.041494 124.931152 168.366681 124.978139 
Q 170.691868 125.025127 170.691868 125.13052 
Q 170.691868 125.235914 168.366681 125.282901 
Q 166.041494 125.329889 160.731493 125.329889 
L 158.840561 125.329889 
L 158.840561 125.568239 
L 153.772423 125.568239 
L 153.772423 124.931152 
z
" style="fill: #accdab"/>
   </g>
   <g id="text_37">
    <g id="patch_30">
     <path d="M 150.990993 139.112423 
L 194.337243 139.112423 
L 194.337243 69.429923 
L 150.990993 69.429923 
L 150.990993 139.112423 
z
" style="fill: none"/>
    </g>
    <path d="M 161.572518 124.138673 
L 159.186865 124.138673 
L 163.980159 124.138673 
L 161.572518 124.138673 
z
M 158.483263 124.138673 
L 164.683761 124.138673 
L 171.604353 124.138673 
L 166.536215 124.138673 
L 164.958606 124.138673 
L 158.16994 124.138673 
L 156.625312 124.138673 
L 151.557174 124.138673 
L 158.483263 124.138673 
z
" style="fill: #b3c0b7"/>
   </g>
   <g id="text_38">
    <g id="patch_31">
     <path d="M 150.990993 138.0918 
L 194.337243 138.0918 
L 194.337243 68.4093 
L 150.990993 68.4093 
L 150.990993 138.0918 
z
" style="fill: none"/>
    </g>
    <path d="M 153.948323 122.421742 
L 153.948323 122.274886 
L 169.2187 122.274886 
L 169.2187 122.421742 
L 164.117581 122.421742 
L 164.117581 122.969634 
L 169.2187 122.969634 
L 169.2187 123.116489 
L 153.948323 123.116489 
L 153.948323 122.969634 
L 159.049443 122.969634 
L 159.049443 122.421742 
L 153.948323 122.421742 
z
" style="fill: #b3c0b7"/>
   </g>
   <g id="text_39">
    <g id="patch_32">
     <path d="M 150.990993 135.647092 
L 194.337243 135.647092 
L 194.337243 65.964592 
L 150.990993 65.964592 
L 150.990993 135.647092 
z
" style="fill: none"/>
    </g>
    <path d="M 162.25963 120.480746 
Q 162.017767 120.483303 161.85286 120.484155 
Q 161.69345 120.485007 161.539537 120.485007 
Q 157.125529 120.485007 154.849814 120.334737 
Q 152.574099 120.184183 152.574099 119.890461 
Q 152.574099 119.595602 154.849814 119.444764 
Q 157.125529 119.293926 161.572518 119.293926 
Q 166.041494 119.293926 168.317209 119.444764 
Q 170.592924 119.595602 170.592924 119.890461 
Q 170.592924 120.092714 169.510036 120.229065 
Q 168.427147 120.365416 166.365811 120.423933 
L 169.559508 120.564261 
L 166.090967 120.679591 
L 162.25963 120.480746 
z
M 161.572518 119.497884 
Q 159.632114 119.497884 158.73612 119.590773 
Q 157.845623 119.683662 157.845623 119.890461 
Q 157.845623 120.096407 158.73612 120.189296 
Q 159.632114 120.281901 161.572518 120.281901 
Q 163.529413 120.281901 164.41991 120.189296 
Q 165.315904 120.096407 165.315904 119.890461 
Q 165.315904 119.683662 164.41991 119.590773 
Q 163.529413 119.497884 161.572518 119.497884 
z
" style="fill: #c0a7cc"/>
   </g>
   <g id="text_40">
    <g id="patch_33">
     <path d="M 150.990993 132.570651 
L 194.337243 132.570651 
L 194.337243 62.888151 
L 150.990993 62.888151 
L 150.990993 132.570651 
z
" style="fill: none"/>
    </g>
    <path d="M 164.117581 117.59104 
L 159.049443 117.59104 
L 159.049443 114.975365 
L 152.535621 114.975365 
L 152.535621 114.429565 
L 170.625906 114.429565 
L 170.625906 114.975365 
L 164.117581 114.975365 
L 164.117581 117.59104 
z
" style="fill: #b6babc"/>
   </g>
   <g id="text_41">
    <g id="patch_34">
     <path d="M 150.990993 127.623774 
L 194.337243 127.623774 
L 194.337243 57.941274 
L 150.990993 57.941274 
L 150.990993 127.623774 
z
" style="fill: none"/>
    </g>
    <path d="M 165.970035 111.909389 
L 165.970035 111.206655 
L 162.501494 111.206655 
L 162.501494 110.594723 
L 170.400533 110.594723 
L 170.400533 112.282076 
Q 168.943856 112.462102 167.179352 112.555274 
Q 165.420345 112.647656 163.408481 112.647656 
Q 158.428294 112.647656 155.712827 112.150214 
Q 153.002857 111.652773 153.002857 110.737639 
Q 153.002857 109.807502 155.740312 109.316377 
Q 158.483263 108.825253 163.650345 108.825253 
Q 165.194972 108.825253 166.690128 108.88842 
Q 168.185284 108.951587 169.493545 109.070025 
L 169.493545 109.876196 
Q 168.427147 109.678799 167.04193 109.579311 
Q 165.662209 109.479033 164.01314 109.479033 
Q 161.12727 109.479033 159.698077 109.79171 
Q 158.274381 110.103598 158.274381 110.737639 
Q 158.274381 111.351939 159.648605 111.673302 
Q 161.022829 111.993876 163.650345 111.993876 
Q 164.441898 111.993876 165.024569 111.973346 
Q 165.60724 111.952027 165.970035 111.909389 
z
" style="fill: #c1a5ce"/>
   </g>
   <g id="text_42">
    <g id="patch_35">
     <path d="M 150.990993 121.511289 
L 194.337243 121.511289 
L 194.337243 51.828789 
L 150.990993 51.828789 
L 150.990993 121.511289 
z
" style="fill: none"/>
    </g>
    <path d="M 153.035839 91.70647 
L 158.483263 91.70647 
L 165.629227 102.469135 
L 165.629227 91.70647 
L 170.092707 91.70647 
L 170.092707 106.510091 
L 164.683761 106.510091 
L 157.499318 95.747425 
L 157.499318 106.510091 
L 153.035839 106.510091 
L 153.035839 91.70647 
z
" style="fill: #b794c6"/>
   </g>
   <g id="text_43">
    <g id="patch_36">
     <path d="M 191.799949 162.733859 
L 235.146199 162.733859 
L 235.146199 93.051359 
L 191.799949 93.051359 
L 191.799949 162.733859 
z
" style="fill: none"/>
    </g>
    <path d="M 203.068585 146.326886 
Q 202.826722 146.345911 202.661815 146.352253 
Q 202.502405 146.358594 202.348492 146.358594 
Q 197.934485 146.358594 195.65877 145.240342 
Q 193.383055 144.119976 193.383055 141.934204 
Q 193.383055 139.739977 195.65877 138.617497 
Q 197.934485 137.495016 202.381473 137.495016 
Q 206.85045 137.495016 209.126165 138.617497 
Q 211.40188 139.739977 211.40188 141.934204 
Q 211.40188 143.4393 210.318991 144.453972 
Q 209.236103 145.468643 207.174767 145.904106 
L 210.368463 146.948372 
L 206.899922 147.806615 
L 203.068585 146.326886 
z
M 202.381473 139.012796 
Q 200.441069 139.012796 199.545075 139.704041 
Q 198.654578 140.395286 198.654578 141.934204 
Q 198.654578 143.466781 199.545075 144.158026 
Q 200.441069 144.847157 202.381473 144.847157 
Q 204.338368 144.847157 205.228865 144.158026 
Q 206.124859 143.466781 206.124859 141.934204 
Q 206.124859 140.395286 205.228865 139.704041 
Q 204.338368 139.012796 202.381473 139.012796 
z
" style="fill: #a0d89c"/>
   </g>
   <g id="text_44">
    <g id="patch_37">
     <path d="M 191.799949 150.176251 
L 235.146199 150.176251 
L 235.146199 80.493751 
L 191.799949 80.493751 
L 191.799949 150.176251 
z
" style="fill: none"/>
    </g>
    <path d="M 195.664267 135.18605 
L 195.664267 126.313333 
L 200.732405 126.313333 
L 200.732405 133.637803 
L 211.572283 133.637803 
L 211.572283 135.18605 
L 195.664267 135.18605 
z
" style="fill: #a6dba0"/>
   </g>
   <g id="text_45">
    <g id="patch_38">
     <path d="M 191.799949 139.112423 
L 235.146199 139.112423 
L 235.146199 69.429923 
L 191.799949 69.429923 
L 191.799949 139.112423 
z
" style="fill: none"/>
    </g>
    <path d="M 199.649516 124.138673 
L 199.649516 124.138673 
L 201.727343 124.138673 
Q 204.217437 124.138673 205.223369 124.138673 
Q 206.2293 124.138673 206.2293 124.138673 
Q 206.2293 124.138673 205.223369 124.138673 
Q 204.217437 124.138673 201.727343 124.138673 
L 199.649516 124.138673 
z
M 194.581378 124.138673 
L 201.540448 124.138673 
Q 206.85045 124.138673 209.175637 124.138673 
Q 211.500824 124.138673 211.500824 124.138673 
Q 211.500824 124.138673 209.175637 124.138673 
Q 206.85045 124.138673 201.540448 124.138673 
L 199.649516 124.138673 
L 199.649516 124.138673 
L 194.581378 124.138673 
L 194.581378 124.138673 
z
" style="fill: #b3c0b7"/>
   </g>
   <g id="text_46">
    <g id="patch_39">
     <path d="M 191.799949 137.39842 
L 235.146199 137.39842 
L 235.146199 67.71592 
L 191.799949 67.71592 
L 191.799949 137.39842 
z
" style="fill: none"/>
    </g>
    <path d="M 193.844794 117.81465 
L 199.292218 117.81465 
L 206.438182 121.160066 
L 206.438182 117.81465 
L 210.901662 117.81465 
L 210.901662 122.416138 
L 205.492716 122.416138 
L 198.308273 119.070721 
L 198.308273 122.416138 
L 193.844794 122.416138 
L 193.844794 117.81465 
z
" style="fill: #b9b4c1"/>
   </g>
   <g id="text_47">
    <g id="patch_40">
     <path d="M 191.799949 130.880151 
L 235.146199 130.880151 
L 235.146199 61.197651 
L 191.799949 61.197651 
L 191.799949 130.880151 
z
" style="fill: none"/>
    </g>
    <path d="M 204.926536 115.895686 
L 199.858398 115.895686 
L 199.858398 111.114274 
L 193.344576 111.114274 
L 193.344576 110.116559 
L 211.434861 110.116559 
L 211.434861 111.114274 
L 204.926536 111.114274 
L 204.926536 115.895686 
z
" style="fill: #bcafc6"/>
   </g>
   <g id="text_48">
    <g id="patch_41">
     <path d="M 191.799949 122.942692 
L 235.146199 122.942692 
L 235.146199 53.260192 
L 191.799949 53.260192 
L 191.799949 122.942692 
z
" style="fill: none"/>
    </g>
    <path d="M 200.562001 103.324061 
Q 196.730664 102.749391 195.372931 102.118552 
Q 194.015198 101.487712 194.015198 100.42047 
Q 194.015198 99.05077 196.246937 98.268701 
Q 198.484174 97.484472 202.381473 97.484472 
Q 204.151474 97.484472 205.921474 97.644343 
Q 207.691475 97.802053 209.422997 98.110991 
L 209.422997 100.05536 
Q 207.790419 99.603835 206.108369 99.36835 
Q 204.426319 99.130705 202.77725 99.130705 
Q 200.941287 99.130705 199.957342 99.42236 
Q 198.978895 99.711855 198.978895 100.251958 
Q 198.978895 100.671077 199.693491 100.945449 
Q 200.408088 101.217661 202.672809 101.548204 
L 204.855076 101.872265 
Q 207.949829 102.317309 209.406506 103.054009 
Q 210.868681 103.790709 210.868681 104.909801 
Q 210.868681 106.437211 208.570978 107.189034 
Q 206.278773 107.940857 201.644889 107.940857 
Q 199.737466 107.940857 197.81905 107.763703 
Q 195.90613 107.584389 194.119639 107.232242 
L 194.119639 105.173371 
Q 196.147993 105.741559 198.044422 106.018092 
Q 199.940852 106.294624 201.798802 106.294624 
Q 203.667747 106.294624 204.695666 105.961921 
Q 205.729083 105.627058 205.729083 105.024303 
Q 205.729083 104.572777 205.041971 104.231433 
Q 204.354859 103.890088 203.052095 103.695651 
L 200.562001 103.324061 
z
" style="fill: #b896c7"/>
   </g>
   <g id="text_49">
    <g id="patch_42">
     <path d="M 191.799949 110.019879 
L 235.146199 110.019879 
L 235.146199 40.337379 
L 191.799949 40.337379 
L 191.799949 110.019879 
z
" style="fill: none"/>
    </g>
    <path d="M 202.381473 84.088559 
L 199.99582 89.563225 
L 204.789114 89.563225 
L 202.381473 84.088559 
z
M 199.292218 81.669712 
L 205.492716 81.669712 
L 212.413308 95.046129 
L 207.34517 95.046129 
L 205.767561 91.734971 
L 198.978895 91.734971 
L 197.434267 95.046129 
L 192.366129 95.046129 
L 199.292218 81.669712 
z
" style="fill: #b189c1"/>
   </g>
   <g id="text_50">
    <g id="patch_43">
     <path d="M 232.608904 185.667171 
L 275.955154 185.667171 
L 275.955154 115.984671 
L 232.608904 115.984671 
L 232.608904 185.667171 
z
" style="fill: none"/>
    </g>
    <path d="M 234.620768 152.24953 
L 239.688906 152.24953 
L 239.688906 159.527718 
L 247.620927 152.24953 
L 253.359686 152.24953 
L 245.268255 159.504962 
L 253.651021 170.659287 
L 248.016703 170.659287 
L 241.937136 162.372242 
L 239.688906 164.424091 
L 239.688906 170.659287 
L 234.620768 170.659287 
L 234.620768 152.24953 
z
" style="fill: #44aa62"/>
   </g>
   <g id="text_51">
    <g id="patch_44">
     <path d="M 232.608904 164.340577 
L 275.955154 164.340577 
L 275.955154 94.658077 
L 232.608904 94.658077 
L 232.608904 164.340577 
z
" style="fill: none"/>
    </g>
    <path d="M 246.472075 146.557633 
Q 247.22515 146.591832 247.785834 146.72252 
Q 248.346517 146.851988 249.149064 147.222068 
L 253.788444 149.355834 
L 248.225585 149.355834 
L 245.130833 147.859633 
Q 244.99341 147.793678 244.773535 147.683753 
Q 243.415801 147.01199 241.574341 147.01199 
L 239.963751 147.01199 
L 239.963751 149.355834 
L 234.895613 149.355834 
L 234.895613 143.427214 
L 242.211981 143.427214 
Q 247.159187 143.427214 249.313971 143.832715 
Q 251.468754 144.236995 251.468754 145.153036 
Q 251.468754 145.76373 250.18248 146.125261 
Q 248.896206 146.485571 246.472075 146.557633 
z
M 239.963751 144.412875 
L 239.963751 146.02755 
L 242.349403 146.02755 
Q 244.42723 146.02755 245.328721 145.840678 
Q 246.230212 145.652584 246.230212 145.21777 
Q 246.230212 144.78662 245.334218 144.599747 
Q 244.443721 144.412875 242.349403 144.412875 
L 239.963751 144.412875 
z
" style="fill: #b0c6b1"/>
   </g>
   <g id="text_52">
    <g id="patch_45">
     <path d="M 232.608904 156.444878 
L 275.955154 156.444878 
L 275.955154 86.762378 
L 232.608904 86.762378 
L 232.608904 156.444878 
z
" style="fill: none"/>
    </g>
    <path d="M 251.177418 141.282158 
Q 249.973598 141.371879 248.648846 141.416342 
Q 247.329591 141.460806 245.872914 141.460806 
Q 240.683844 141.460806 237.951887 140.967738 
Q 235.219929 140.473877 235.219929 139.54094 
Q 235.219929 138.605621 237.951887 138.111759 
Q 240.683844 137.617898 245.872914 137.617898 
Q 247.329591 137.617898 248.670834 137.662361 
Q 250.012076 137.706825 251.177418 137.796545 
L 251.177418 138.610384 
Q 249.874654 138.436501 248.643349 138.356308 
Q 247.417541 138.275321 246.10928 138.275321 
Q 243.327851 138.275321 241.909652 138.594505 
Q 240.491453 138.912894 240.491453 139.54094 
Q 240.491453 140.165809 241.909652 140.484993 
Q 243.327851 140.803383 246.10928 140.803383 
Q 247.417541 140.803383 248.643349 140.72319 
Q 249.874654 140.642203 251.177418 140.468319 
L 251.177418 141.282158 
z
" style="fill: #b2c3b4"/>
   </g>
   <g id="text_53">
    <g id="patch_46">
     <path d="M 232.608904 150.781642 
L 275.955154 150.781642 
L 275.955154 81.099142 
L 232.608904 81.099142 
L 232.608904 150.781642 
z
" style="fill: none"/>
    </g>
    <path d="M 240.029713 133.086519 
L 240.029713 135.212145 
L 241.403937 135.212145 
Q 244.394249 135.212145 245.664032 134.969761 
Q 246.933815 134.726696 246.933815 134.145928 
Q 246.933815 133.569244 245.664032 133.328222 
Q 244.394249 133.086519 241.403937 133.086519 
L 240.029713 133.086519 
z
M 234.961575 132.496899 
L 240.392509 132.496899 
Q 246.675461 132.496899 249.440399 132.883624 
Q 252.210835 133.269668 252.210835 134.145928 
Q 252.210835 135.02491 249.440399 135.413678 
Q 246.675461 135.801765 240.392509 135.801765 
L 234.961575 135.801765 
L 234.961575 132.496899 
z
" style="fill: #bdadc7"/>
   </g>
   <g id="text_54">
    <g id="patch_47">
     <path d="M 232.608904 145.709353 
L 275.955154 145.709353 
L 275.955154 76.026853 
L 232.608904 76.026853 
L 232.608904 145.709353 
z
" style="fill: none"/>
    </g>
    <path d="M 232.746326 127.546871 
L 238.210241 127.546871 
L 243.190429 128.825512 
L 248.187107 127.546871 
L 253.651021 127.546871 
L 245.735491 129.475323 
L 245.735491 130.729702 
L 240.667353 130.729702 
L 240.667353 129.475323 
L 232.746326 127.546871 
z
" style="fill: #b9b6c0"/>
   </g>
   <g id="text_55">
    <g id="patch_48">
     <path d="M 232.608904 140.768386 
L 275.955154 140.768386 
L 275.955154 71.085886 
L 232.608904 71.085886 
L 232.608904 140.768386 
z
" style="fill: none"/>
    </g>
    <path d="M 243.190429 125.188363 
L 240.804776 125.491272 
L 245.598069 125.491272 
L 243.190429 125.188363 
z
M 240.101173 125.05453 
L 246.301672 125.05453 
L 253.222264 125.794636 
L 248.154126 125.794636 
L 246.576516 125.611432 
L 239.78785 125.611432 
L 238.243222 125.794636 
L 233.175084 125.794636 
L 240.101173 125.05453 
z
" style="fill: #b6babc"/>
   </g>
   <g id="text_56">
    <g id="patch_49">
     <path d="M 232.608904 139.112423 
L 275.955154 139.112423 
L 275.955154 69.429923 
L 232.608904 69.429923 
L 232.608904 139.112423 
z
" style="fill: none"/>
    </g>
    <path d="M 247.587945 124.138673 
L 247.587945 124.138673 
L 244.119404 124.138673 
L 244.119404 124.138673 
L 252.018443 124.138673 
L 252.018443 124.138673 
Q 250.561766 124.138673 248.797262 124.138673 
Q 247.038256 124.138673 245.026392 124.138673 
Q 240.046204 124.138673 237.330738 124.138673 
Q 234.620768 124.138673 234.620768 124.138673 
Q 234.620768 124.138673 237.358222 124.138673 
Q 240.101173 124.138673 245.268255 124.138673 
Q 246.812883 124.138673 248.308039 124.138673 
Q 249.803194 124.138673 251.111456 124.138673 
L 251.111456 124.138673 
Q 250.045058 124.138673 248.65984 124.138673 
Q 247.280119 124.138673 245.63105 124.138673 
Q 242.74518 124.138673 241.315987 124.138673 
Q 239.892291 124.138673 239.892291 124.138673 
Q 239.892291 124.138673 241.266515 124.138673 
Q 242.640739 124.138673 245.268255 124.138673 
Q 246.059808 124.138673 246.642479 124.138673 
Q 247.22515 124.138673 247.587945 124.138673 
z
" style="fill: #b3c0b7"/>
   </g>
   <g id="text_57">
    <g id="patch_50">
     <path d="M 232.608904 137.30098 
L 275.955154 137.30098 
L 275.955154 67.61848 
L 232.608904 67.61848 
L 232.608904 137.30098 
z
" style="fill: none"/>
    </g>
    <path d="M 241.370956 119.286384 
Q 237.53962 118.910168 236.181886 118.497178 
Q 234.824153 118.084189 234.824153 117.385502 
Q 234.824153 116.488806 237.055893 115.976813 
Q 239.293129 115.463405 243.190429 115.463405 
Q 244.960429 115.463405 246.73043 115.568066 
Q 248.50043 115.671314 250.231952 115.873565 
L 250.231952 117.146477 
Q 248.599374 116.850879 246.917324 116.696715 
Q 245.235274 116.541137 243.586205 116.541137 
Q 241.750242 116.541137 240.766297 116.732074 
Q 239.78785 116.921596 239.78785 117.275183 
Q 239.78785 117.549566 240.502446 117.729188 
Q 241.217043 117.907396 243.481764 118.123791 
L 245.664032 118.335943 
Q 248.758784 118.627298 250.215462 119.109591 
Q 251.677636 119.591883 251.677636 120.324514 
Q 251.677636 121.324458 249.379933 121.81665 
Q 247.087728 122.308843 242.453844 122.308843 
Q 240.546422 122.308843 238.628005 122.192867 
Q 236.715085 122.075476 234.928594 121.844937 
L 234.928594 120.497065 
Q 236.956949 120.869038 238.853378 121.050074 
Q 240.749807 121.231111 242.607758 121.231111 
Q 244.476702 121.231111 245.504622 121.013301 
Q 246.538038 120.794078 246.538038 120.399475 
Q 246.538038 120.103876 245.850926 119.88041 
Q 245.163814 119.656943 243.86105 119.529652 
L 241.370956 119.286384 
z
" style="fill: #c1a6cd"/>
   </g>
   <g id="text_58">
    <g id="patch_51">
     <path d="M 232.608904 127.932642 
L 275.955154 127.932642 
L 275.955154 58.250142 
L 232.608904 58.250142 
L 232.608904 127.932642 
z
" style="fill: none"/>
    </g>
    <path d="M 243.190429 110.015177 
L 247.708877 95.263852 
L 252.809996 95.263852 
L 246.713939 112.926144 
L 239.688906 112.926144 
L 233.587351 95.263852 
L 238.688471 95.263852 
L 243.190429 110.015177 
z
" style="fill: #b692c5"/>
   </g>
   <g id="text_59">
    <g id="patch_52">
     <path d="M 273.417859 189.243381 
L 316.764109 189.243381 
L 316.764109 119.560881 
L 273.417859 119.560881 
L 273.417859 189.243381 
z
" style="fill: none"/>
    </g>
    <path d="M 280.838669 160.986851 
L 280.838669 171.361842 
L 282.212893 171.361842 
Q 285.203204 171.361842 286.472987 170.178788 
Q 287.74277 168.99241 287.74277 166.157731 
Q 287.74277 163.342991 286.472987 162.166583 
Q 285.203204 160.986851 282.212893 160.986851 
L 280.838669 160.986851 
z
M 275.770531 158.108971 
L 281.201464 158.108971 
Q 287.484416 158.108971 290.249354 159.996541 
Q 293.01979 161.880788 293.01979 166.157731 
Q 293.01979 170.447966 290.249354 172.345506 
Q 287.484416 174.239723 281.201464 174.239723 
L 275.770531 174.239723 
L 275.770531 158.108971 
z
" style="fill: #2a9d52"/>
   </g>
   <g id="text_60">
    <g id="patch_53">
     <path d="M 273.417859 170.369214 
L 316.764109 170.369214 
L 316.764109 100.686714 
L 273.417859 100.686714 
L 273.417859 170.369214 
z
" style="fill: none"/>
    </g>
    <path d="M 273.555282 140.481869 
L 279.019196 140.481869 
L 283.999384 146.462027 
L 288.996062 140.481869 
L 294.459977 140.481869 
L 286.544447 149.501174 
L 286.544447 155.367863 
L 281.476309 155.367863 
L 281.476309 149.501174 
L 273.555282 140.481869 
z
" style="fill: #259a4e"/>
   </g>
   <g id="text_61">
    <g id="patch_54">
     <path d="M 273.417859 152.834524 
L 316.764109 152.834524 
L 316.764109 83.152024 
L 273.417859 83.152024 
L 273.417859 152.834524 
z
" style="fill: none"/>
    </g>
    <path d="M 288.3969 136.244643 
L 288.3969 134.711214 
L 284.928359 134.711214 
L 284.928359 133.375924 
L 292.827399 133.375924 
L 292.827399 137.057878 
Q 291.370721 137.450711 289.606218 137.65402 
Q 287.847211 137.855605 285.835347 137.855605 
Q 280.855159 137.855605 278.139693 136.770144 
Q 275.429723 135.684683 275.429723 133.687779 
Q 275.429723 131.658139 278.167177 130.586462 
Q 280.910128 129.514784 286.07721 129.514784 
Q 287.621838 129.514784 289.116994 129.65262 
Q 290.61215 129.790457 291.920411 130.0489 
L 291.920411 131.808036 
Q 290.854013 131.377298 289.468795 131.160205 
Q 288.089074 130.94139 286.440006 130.94139 
Q 283.554135 130.94139 282.124942 131.62368 
Q 280.701246 132.304247 280.701246 133.687779 
Q 280.701246 135.028237 282.07547 135.72948 
Q 283.449694 136.428999 286.07721 136.428999 
Q 286.868763 136.428999 287.451434 136.384202 
Q 288.034105 136.337683 288.3969 136.244643 
z
" style="fill: #98d497"/>
   </g>
   <g id="text_62">
    <g id="patch_55">
     <path d="M 273.417859 142.318963 
L 316.764109 142.318963 
L 316.764109 72.636463 
L 273.417859 72.636463 
L 273.417859 142.318963 
z
" style="fill: none"/>
    </g>
    <path d="M 283.999384 127.187647 
L 288.517832 126.398064 
L 293.618952 126.398064 
L 287.522894 127.34346 
L 280.497861 127.34346 
L 274.396307 126.398064 
L 279.497426 126.398064 
L 283.999384 127.187647 
z
" style="fill: #b2c2b5"/>
   </g>
   <g id="text_63">
    <g id="patch_56">
     <path d="M 273.417859 140.195825 
L 316.764109 140.195825 
L 316.764109 70.513325 
L 273.417859 70.513325 
L 273.417859 140.195825 
z
" style="fill: none"/>
    </g>
    <path d="M 282.179911 125.008395 
Q 278.348575 124.981958 276.990841 124.952937 
Q 275.633108 124.923917 275.633108 124.87482 
Q 275.633108 124.811809 277.864848 124.775831 
Q 280.102085 124.739754 283.999384 124.739754 
Q 285.769384 124.739754 287.539385 124.747109 
Q 289.309385 124.754364 291.040907 124.768576 
L 291.040907 124.858024 
Q 289.408329 124.837252 287.726279 124.826419 
Q 286.044229 124.815486 284.39516 124.815486 
Q 282.559197 124.815486 281.575253 124.828903 
Q 280.596805 124.842221 280.596805 124.867068 
Q 280.596805 124.886349 281.311402 124.898971 
Q 282.025998 124.911493 284.290719 124.926699 
L 286.472987 124.941607 
Q 289.567739 124.962081 291.024417 124.995971 
Q 292.486591 125.029862 292.486591 125.081344 
Q 292.486591 125.15161 290.188889 125.186196 
Q 287.896683 125.220783 283.2628 125.220783 
Q 281.355377 125.220783 279.43696 125.212633 
Q 277.52404 125.204384 275.737549 125.188184 
L 275.737549 125.093469 
Q 277.765904 125.119608 279.662333 125.132329 
Q 281.558762 125.14505 283.416713 125.14505 
Q 285.285657 125.14505 286.313577 125.129745 
Q 287.346993 125.11434 287.346993 125.086611 
Q 287.346993 125.06584 286.659881 125.050137 
Q 285.972769 125.034434 284.670005 125.025489 
L 282.179911 125.008395 
z
" style="fill: #b3c0b7"/>
   </g>
   <g id="text_64">
    <g id="patch_57">
     <path d="M 273.417859 139.112423 
L 316.764109 139.112423 
L 316.764109 69.429923 
L 273.417859 69.429923 
L 273.417859 139.112423 
z
" style="fill: none"/>
    </g>
    <path d="M 283.999384 124.138673 
L 281.613731 124.138673 
L 286.407024 124.138673 
L 283.999384 124.138673 
z
M 280.910128 124.138673 
L 287.110627 124.138673 
L 294.031219 124.138673 
L 288.963081 124.138673 
L 287.385472 124.138673 
L 280.596805 124.138673 
L 279.052177 124.138673 
L 273.984039 124.138673 
L 280.910128 124.138673 
z
" style="fill: #b3c0b7"/>
   </g>
   <g id="text_65">
    <g id="patch_58">
     <path d="M 273.417859 137.058166 
L 316.764109 137.058166 
L 316.764109 67.375666 
L 273.417859 67.375666 
L 273.417859 137.058166 
z
" style="fill: none"/>
    </g>
    <path d="M 286.544447 122.061228 
L 281.476309 122.061228 
L 281.476309 111.714021 
L 274.962487 111.714021 
L 274.962487 109.554917 
L 293.052771 109.554917 
L 293.052771 111.714021 
L 286.544447 111.714021 
L 286.544447 122.061228 
z
" style="fill: #be9fcc"/>
   </g>
   <g id="text_66">
    <g id="patch_59">
     <path d="M 314.226814 175.091137 
L 357.573064 175.091137 
L 357.573064 105.408637 
L 314.226814 105.408637 
L 314.226814 175.091137 
z
" style="fill: none"/>
    </g>
    <path d="M 317.184144 153.203051 
L 317.184144 151.744774 
L 332.454521 151.744774 
L 332.454521 153.203051 
L 327.353402 153.203051 
L 327.353402 158.643614 
L 332.454521 158.643614 
L 332.454521 160.101892 
L 317.184144 160.101892 
L 317.184144 158.643614 
L 322.285264 158.643614 
L 322.285264 153.203051 
L 317.184144 153.203051 
z
" style="fill: #a7d7a3"/>
   </g>
   <g id="text_67">
    <g id="patch_60">
     <path d="M 314.226814 164.582142 
L 357.573064 164.582142 
L 357.573064 94.899642 
L 314.226814 94.899642 
L 314.226814 164.582142 
z
" style="fill: none"/>
    </g>
    <path d="M 324.808339 148.670628 
L 329.326787 143.971377 
L 334.427907 143.971377 
L 328.331849 149.59796 
L 321.306816 149.59796 
L 315.205262 143.971377 
L 320.306381 143.971377 
L 324.808339 148.670628 
z
" style="fill: #88cc8d"/>
   </g>
   <g id="text_68">
    <g id="patch_61">
     <path d="M 314.226814 157.011464 
L 357.573064 157.011464 
L 357.573064 87.328964 
L 314.226814 87.328964 
L 314.226814 157.011464 
z
" style="fill: none"/>
    </g>
    <path d="M 314.825976 136.553525 
L 319.003617 136.553525 
L 320.735139 140.571655 
L 322.834953 137.974474 
L 326.803712 137.974474 
L 329.222346 140.571655 
L 330.59657 136.553525 
L 334.807193 136.553525 
L 332.025763 142.027564 
L 327.556787 142.027564 
L 324.808339 139.155216 
L 322.230295 142.027564 
L 317.816287 142.027564 
L 314.825976 136.553525 
z
" style="fill: #a9d4a6"/>
   </g>
   <g id="text_69">
    <g id="patch_62">
     <path d="M 314.226814 149.604937 
L 357.573064 149.604937 
L 357.573064 79.922437 
L 314.226814 79.922437 
L 314.226814 149.604937 
z
" style="fill: none"/>
    </g>
    <path d="M 318.091132 134.626977 
L 318.091132 132.356358 
L 323.15927 132.356358 
L 323.15927 134.230765 
L 333.999149 134.230765 
L 333.999149 134.626977 
L 318.091132 134.626977 
z
" style="fill: #aad1a8"/>
   </g>
   <g id="text_70">
    <g id="patch_63">
     <path d="M 314.226814 145.645597 
L 357.573064 145.645597 
L 357.573064 75.963097 
L 314.226814 75.963097 
L 314.226814 145.645597 
z
" style="fill: none"/>
    </g>
    <path d="M 314.364237 129.372358 
L 319.828151 129.372358 
L 324.808339 129.893436 
L 329.805017 129.372358 
L 335.268932 129.372358 
L 327.353402 130.158251 
L 327.353402 130.669442 
L 322.285264 130.669442 
L 322.285264 130.158251 
L 314.364237 129.372358 
z
" style="fill: #a7d7a3"/>
   </g>
   <g id="text_71">
    <g id="patch_64">
     <path d="M 314.226814 142.733873 
L 357.573064 142.733873 
L 357.573064 73.051373 
L 314.226814 73.051373 
L 314.226814 142.733873 
z
" style="fill: none"/>
    </g>
    <path d="M 316.27166 126.474214 
L 321.719083 126.474214 
L 328.865048 127.407377 
L 328.865048 126.474214 
L 333.328528 126.474214 
L 333.328528 127.757743 
L 327.919582 127.757743 
L 320.735139 126.82458 
L 320.735139 127.757743 
L 316.27166 127.757743 
L 316.27166 126.474214 
z
" style="fill: #a9d4a5"/>
   </g>
   <g id="text_72">
    <g id="patch_65">
     <path d="M 314.226814 139.851369 
L 357.573064 139.851369 
L 357.573064 70.168869 
L 314.226814 70.168869 
L 314.226814 139.851369 
z
" style="fill: none"/>
    </g>
    <path d="M 321.647624 124.696811 
L 321.647624 124.838037 
L 323.021848 124.838037 
Q 326.012159 124.838037 327.281942 124.821933 
Q 328.551725 124.805784 328.551725 124.767198 
Q 328.551725 124.728884 327.281942 124.71287 
Q 326.012159 124.696811 323.021848 124.696811 
L 321.647624 124.696811 
z
M 316.579486 124.657637 
L 322.010419 124.657637 
Q 328.293371 124.657637 331.05831 124.683331 
Q 333.828745 124.70898 333.828745 124.767198 
Q 333.828745 124.825598 331.05831 124.851427 
Q 328.293371 124.877212 322.010419 124.877212 
L 316.579486 124.877212 
L 316.579486 124.657637 
z
" style="fill: #b793c5"/>
   </g>
   <g id="text_73">
    <g id="patch_66">
     <path d="M 314.226814 139.358257 
L 357.573064 139.358257 
L 357.573064 69.675757 
L 314.226814 69.675757 
L 314.226814 139.358257 
z
" style="fill: none"/>
    </g>
    <path d="M 315.705479 124.274838 
L 321.752065 124.274838 
L 324.808339 124.322851 
L 327.848122 124.274838 
L 333.927689 124.274838 
L 333.927689 124.384304 
L 329.568651 124.384304 
L 329.568651 124.296623 
L 326.853184 124.344478 
L 322.818463 124.344478 
L 320.070015 124.296623 
L 320.070015 124.384304 
L 315.705479 124.384304 
L 315.705479 124.274838 
z
" style="fill: #b8b6bf"/>
   </g>
   <g id="text_74">
    <g id="patch_67">
     <path d="M 314.226814 139.112423 
L 357.573064 139.112423 
L 357.573064 69.429923 
L 314.226814 69.429923 
L 314.226814 139.112423 
z
" style="fill: none"/>
    </g>
    <path d="M 327.353402 124.138673 
L 322.285264 124.138673 
L 322.285264 124.138673 
L 315.771442 124.138673 
L 315.771442 124.138673 
L 333.861727 124.138673 
L 333.861727 124.138673 
L 327.353402 124.138673 
L 327.353402 124.138673 
z
" style="fill: #b3c0b7"/>
   </g>
   <g id="text_75">
    <g id="patch_68">
     <path d="M 314.226814 139.064911 
L 357.573064 139.064911 
L 357.573064 69.382411 
L 314.226814 69.382411 
L 314.226814 139.064911 
z
" style="fill: none"/>
    </g>
    <path d="M 329.205856 124.08359 
L 329.205856 124.076407 
L 325.737314 124.076407 
L 325.737314 124.070151 
L 333.636354 124.070151 
L 333.636354 124.0874 
Q 332.179676 124.08924 330.415173 124.090192 
Q 328.656166 124.091137 326.644302 124.091137 
Q 321.664115 124.091137 318.948648 124.086052 
Q 316.238678 124.080967 316.238678 124.071612 
Q 316.238678 124.062104 318.976132 124.057084 
Q 321.719083 124.052063 326.886166 124.052063 
Q 328.430793 124.052063 329.925949 124.052709 
Q 331.421105 124.053355 332.729366 124.054566 
L 332.729366 124.062806 
Q 331.662968 124.060789 330.27775 124.059772 
Q 328.89803 124.058747 327.248961 124.058747 
Q 324.36309 124.058747 322.933897 124.061943 
Q 321.510201 124.065131 321.510201 124.071612 
Q 321.510201 124.077892 322.884425 124.081177 
Q 324.258649 124.084454 326.886166 124.084454 
Q 327.677719 124.084454 328.26039 124.084244 
Q 328.843061 124.084026 329.205856 124.08359 
z
" style="fill: #adcdac"/>
   </g>
   <g id="text_76">
    <g id="patch_69">
     <path d="M 314.226814 138.018529 
L 357.573064 138.018529 
L 357.573064 68.336029 
L 314.226814 68.336029 
L 314.226814 138.018529 
z
" style="fill: none"/>
    </g>
    <path d="M 325.495451 122.92892 
Q 325.253588 122.930458 325.088681 122.93097 
Q 324.929271 122.931483 324.775358 122.931483 
Q 320.36135 122.931483 318.085635 122.841086 
Q 315.80992 122.750517 315.80992 122.573823 
Q 315.80992 122.396446 318.085635 122.305707 
Q 320.36135 122.214967 324.808339 122.214967 
Q 329.277315 122.214967 331.55303 122.305707 
Q 333.828745 122.396446 333.828745 122.573823 
Q 333.828745 122.695493 332.745857 122.777517 
Q 331.662968 122.859541 329.601632 122.894743 
L 332.795329 122.97916 
L 329.326787 123.048538 
L 325.495451 122.92892 
z
M 324.808339 122.337662 
Q 322.867935 122.337662 321.971941 122.393541 
Q 321.081444 122.44942 321.081444 122.573823 
Q 321.081444 122.697714 321.971941 122.753593 
Q 322.867935 122.809301 324.808339 122.809301 
Q 326.765234 122.809301 327.655731 122.753593 
Q 328.551725 122.697714 328.551725 122.573823 
Q 328.551725 122.44942 327.655731 122.393541 
Q 326.765234 122.337662 324.808339 122.337662 
z
" style="fill: #c1a6cd"/>
   </g>
   <g id="text_77">
    <g id="patch_70">
     <path d="M 314.226814 135.925089 
L 357.573064 135.925089 
L 357.573064 66.242589 
L 314.226814 66.242589 
L 314.226814 135.925089 
z
" style="fill: none"/>
    </g>
    <path d="M 333.086664 120.949448 
L 317.112685 120.949448 
L 317.112685 119.929788 
L 333.086664 119.929788 
L 333.086664 120.107714 
L 322.180823 120.107714 
L 322.180823 120.327023 
L 332.058745 120.327023 
L 332.058745 120.504948 
L 322.180823 120.504948 
L 322.180823 120.771522 
L 333.086664 120.771522 
L 333.086664 120.949448 
z
" style="fill: #bcb0c5"/>
   </g>
   <g id="text_78">
    <g id="patch_71">
     <path d="M 314.226814 133.214061 
L 357.573064 133.214061 
L 357.573064 63.531561 
L 314.226814 63.531561 
L 314.226814 133.214061 
z
" style="fill: none"/>
    </g>
    <path d="M 324.808339 115.533056 
L 322.422686 116.885666 
L 327.215979 116.885666 
L 324.808339 115.533056 
z
M 321.719083 114.935438 
L 327.919582 114.935438 
L 334.840174 118.240311 
L 329.772036 118.240311 
L 328.194427 117.422233 
L 321.40576 117.422233 
L 319.861133 118.240311 
L 314.792995 118.240311 
L 321.719083 114.935438 
z
" style="fill: #b5bdb9"/>
   </g>
   <g id="text_79">
    <g id="patch_72">
     <path d="M 314.226814 128.107366 
L 357.573064 128.107366 
L 357.573064 58.424866 
L 314.226814 58.424866 
L 314.226814 128.107366 
z
" style="fill: none"/>
    </g>
    <path d="M 328.089986 111.050121 
Q 328.843061 111.075485 329.403744 111.172413 
Q 329.964427 111.268435 330.766974 111.542913 
L 335.406354 113.125463 
L 329.843496 113.125463 
L 326.748743 112.015775 
Q 326.611321 111.966858 326.391445 111.88533 
Q 325.033712 111.387103 323.192252 111.387103 
L 321.581661 111.387103 
L 321.581661 113.125463 
L 316.513523 113.125463 
L 316.513523 108.728383 
L 323.829892 108.728383 
Q 328.777098 108.728383 330.931881 109.029131 
Q 333.086664 109.328973 333.086664 110.008373 
Q 333.086664 110.461307 331.800391 110.729444 
Q 330.514117 110.996675 328.089986 111.050121 
z
M 321.581661 109.459418 
L 321.581661 110.656974 
L 323.967314 110.656974 
Q 326.045141 110.656974 326.946631 110.518377 
Q 327.848122 110.378873 327.848122 110.056384 
Q 327.848122 109.736613 326.952128 109.598015 
Q 326.061631 109.459418 323.967314 109.459418 
L 321.581661 109.459418 
z
" style="fill: #b590c4"/>
   </g>
   <g id="text_80">
    <g id="patch_73">
     <path d="M 314.226814 121.804858 
L 357.573064 121.804858 
L 357.573064 52.122358 
L 314.226814 52.122358 
L 314.226814 121.804858 
z
" style="fill: none"/>
    </g>
    <path d="M 322.988866 104.318635 
Q 319.15753 104.007789 317.799797 103.66656 
Q 316.442063 103.325331 316.442063 102.748047 
Q 316.442063 102.007159 318.673803 101.584129 
Q 320.91104 101.15993 324.808339 101.15993 
Q 326.578339 101.15993 328.34834 101.246406 
Q 330.11834 101.331713 331.849863 101.498822 
L 331.849863 102.550555 
Q 330.217285 102.306319 328.535234 102.178942 
Q 326.853184 102.050397 325.204115 102.050397 
Q 323.368152 102.050397 322.384208 102.208157 
Q 321.40576 102.364748 321.40576 102.656897 
Q 321.40576 102.883603 322.120357 103.032015 
Q 322.834953 103.179257 325.099674 103.358052 
L 327.281942 103.533341 
Q 330.376695 103.774071 331.833372 104.172561 
Q 333.295546 104.57105 333.295546 105.176381 
Q 333.295546 106.002576 330.997844 106.409246 
Q 328.705638 106.815916 324.071755 106.815916 
Q 322.164332 106.815916 320.245915 106.720091 
Q 318.332996 106.623098 316.546504 106.432618 
L 316.546504 105.318949 
Q 318.574859 105.626289 320.471288 105.775869 
Q 322.367717 105.925449 324.225668 105.925449 
Q 326.094613 105.925449 327.122532 105.745486 
Q 328.155949 105.564354 328.155949 105.238317 
Q 328.155949 104.994081 327.468837 104.809443 
Q 326.781725 104.624806 325.47896 104.519632 
L 322.988866 104.318635 
z
" style="fill: #bfaaca"/>
   </g>
   <g id="text_81">
    <g id="patch_74">
     <path d="M 314.226814 114.071341 
L 357.573064 114.071341 
L 357.573064 44.388841 
L 314.226814 44.388841 
L 314.226814 114.071341 
z
" style="fill: none"/>
    </g>
    <path d="M 316.579486 90.770825 
L 321.647624 90.770825 
L 321.647624 93.938523 
L 327.985545 93.938523 
L 327.985545 90.770825 
L 333.053683 90.770825 
L 333.053683 99.08218 
L 327.985545 99.08218 
L 327.985545 95.383679 
L 321.647624 95.383679 
L 321.647624 99.08218 
L 316.579486 99.08218 
L 316.579486 90.770825 
z
" style="fill: #b9b4c1"/>
   </g>
   <g id="text_82">
    <g id="patch_75">
     <path d="M 314.226814 103.169301 
L 357.573064 103.169301 
L 357.573064 33.486801 
L 314.226814 33.486801 
L 314.226814 103.169301 
z
" style="fill: none"/>
    </g>
    <path d="M 316.238678 69.574381 
L 321.306816 69.574381 
L 321.306816 76.922525 
L 329.238837 69.574381 
L 334.977596 69.574381 
L 326.886166 76.89955 
L 335.268932 88.161089 
L 329.634614 88.161089 
L 323.555047 79.79439 
L 321.306816 81.865961 
L 321.306816 88.161089 
L 316.238678 88.161089 
L 316.238678 69.574381 
z
" style="fill: #9962ac"/>
   </g>
   <g id="line2d_17">
    <path d="M 65.292187 124.138673 
L 338.712187 124.138673 
" clip-path="url(#p0499ef6ff2)" style="fill: none; stroke: #000000; stroke-linecap: square"/>
   </g>
  </g>
 </g>
 <defs>
  <clipPath id="p0499ef6ff2">
   <rect x="65.292187" y="38.176179" width="273.42" height="138.6"/>
  </clipPath>
 </defs>
</svg>
