<?xml version="1.0" encoding="utf-8" standalone="no"?>
<!DOCTYPE svg PUBLIC "-//W3C//DTD SVG 1.1//EN"
  "http://www.w3.org/Graphics/SVG/1.1/DTD/svg11.dtd">
<svg xmlns:xlink="http://www.w3.org/1999/xlink" width="314.080214pt" height="236.995625pt" viewBox="0 0 314.080214 236.995625" xmlns="http://www.w3.org/2000/svg" version="1.1">
 <metadata>
  <rdf:RDF xmlns:dc="http://purl.org/dc/elements/1.1/" xmlns:cc="http://creativecommons.org/ns#" xmlns:rdf="http://www.w3.org/1999/02/22-rdf-syntax-ns#">
   <cc:Work>
    <dc:type rdf:resource="http://purl.org/dc/dcmitype/StillImage"/>
    <dc:date>2023-10-21T21:34:11.328289</dc:date>
    <dc:format>image/svg+xml</dc:format>
    <dc:creator>
     <cc:Agent>
      <dc:title>Matplotlib v3.8.0, https://matplotlib.org/</dc:title>
     </cc:Agent>
    </dc:creator>
   </cc:Work>
  </rdf:RDF>
 </metadata>
 <defs>
  <style type="text/css">*{stroke-linejoin: round; stroke-linecap: butt}</style>
 </defs>
 <g id="figure_1">
  <g id="patch_1">
   <path d="M 0 236.995625 
L 314.080214 236.995625 
L 314.080214 0 
L 0 0 
z
" style="fill: #ffffff"/>
  </g>
  <g id="axes_1">
   <g id="patch_2">
    <path d="M 53.843438 189.36625 
L 288.203437 189.36625 
L 288.203437 50.76625 
L 53.843438 50.76625 
z
" style="fill: #ffffff"/>
   </g>
   <g id="matplotlib.axis_1">
    <g id="xtick_1">
     <g id="line2d_1">
      <defs>
       <path id="m19f8389113" d="M 0 0 
L 0 5 
" style="stroke: #000000"/>
      </defs>
      <g>
       <use xlink:href="#m19f8389113" x="68.233964" y="189.36625" style="stroke: #000000"/>
      </g>
     </g>
     <g id="text_1">
      <text style="font: 12px 'DejaVu Sans', 'Bitstream Vera Sans', 'Computer Modern Sans Serif', 'Lucida Grande', 'Verdana', 'Geneva', 'Lucid', 'Arial', 'Helvetica', 'Avant Garde', sans-serif" transform="translate(71.545214 229.109375) rotate(-90)">R357</text>
     </g>
    </g>
    <g id="xtick_2">
     <g id="line2d_2">
      <g>
       <use xlink:href="#m19f8389113" x="109.349753" y="189.36625" style="stroke: #000000"/>
      </g>
     </g>
     <g id="text_2">
      <text style="font: 12px 'DejaVu Sans', 'Bitstream Vera Sans', 'Computer Modern Sans Serif', 'Lucida Grande', 'Verdana', 'Geneva', 'Lucid', 'Arial', 'Helvetica', 'Avant Garde', sans-serif" transform="translate(112.661003 227.673125) rotate(-90)">F371</text>
     </g>
    </g>
    <g id="xtick_3">
     <g id="line2d_3">
      <g>
       <use xlink:href="#m19f8389113" x="150.465543" y="189.36625" style="stroke: #000000"/>
      </g>
     </g>
     <g id="text_3">
      <text style="font: 12px 'DejaVu Sans', 'Bitstream Vera Sans', 'Computer Modern Sans Serif', 'Lucida Grande', 'Verdana', 'Geneva', 'Lucid', 'Arial', 'Helvetica', 'Avant Garde', sans-serif" transform="translate(153.776793 227.673125) rotate(-90)">F375</text>
     </g>
    </g>
    <g id="xtick_4">
     <g id="line2d_4">
      <g>
       <use xlink:href="#m19f8389113" x="171.023438" y="189.36625" style="stroke: #000000"/>
      </g>
     </g>
     <g id="text_4">
      <text style="font: 12px 'DejaVu Sans', 'Bitstream Vera Sans', 'Computer Modern Sans Serif', 'Lucida Grande', 'Verdana', 'Geneva', 'Lucid', 'Arial', 'Helvetica', 'Avant Garde', sans-serif" transform="translate(174.334688 228.98) rotate(-90)">A376</text>
     </g>
    </g>
    <g id="xtick_5">
     <g id="line2d_5">
      <g>
       <use xlink:href="#m19f8389113" x="212.139227" y="189.36625" style="stroke: #000000"/>
      </g>
     </g>
     <g id="text_5">
      <text style="font: 12px 'DejaVu Sans', 'Bitstream Vera Sans', 'Computer Modern Sans Serif', 'Lucida Grande', 'Verdana', 'Geneva', 'Lucid', 'Arial', 'Helvetica', 'Avant Garde', sans-serif" transform="translate(215.450477 228.389375) rotate(-90)">S408</text>
     </g>
    </g>
    <g id="xtick_6">
     <g id="line2d_6">
      <g>
       <use xlink:href="#m19f8389113" x="253.255016" y="189.36625" style="stroke: #000000"/>
      </g>
     </g>
     <g id="text_6">
      <text style="font: 12px 'DejaVu Sans', 'Bitstream Vera Sans', 'Computer Modern Sans Serif', 'Lucida Grande', 'Verdana', 'Geneva', 'Lucid', 'Arial', 'Helvetica', 'Avant Garde', sans-serif" transform="translate(256.566266 229.795625) rotate(-90)">H519</text>
     </g>
    </g>
    <g id="xtick_7">
     <g id="line2d_7">
      <g>
       <use xlink:href="#m19f8389113" x="273.812911" y="189.36625" style="stroke: #000000"/>
      </g>
     </g>
     <g id="text_7">
      <text style="font: 12px 'DejaVu Sans', 'Bitstream Vera Sans', 'Computer Modern Sans Serif', 'Lucida Grande', 'Verdana', 'Geneva', 'Lucid', 'Arial', 'Helvetica', 'Avant Garde', sans-serif" transform="translate(277.124161 228.98) rotate(-90)">A520</text>
     </g>
    </g>
   </g>
   <g id="matplotlib.axis_2">
    <g id="ytick_1">
     <g id="line2d_8">
      <defs>
       <path id="mb77d2294d5" d="M 0 0 
L -5 0 
" style="stroke: #000000"/>
      </defs>
      <g>
       <use xlink:href="#mb77d2294d5" x="53.843438" y="172.797257" style="stroke: #000000"/>
      </g>
     </g>
     <g id="text_8">
      <text style="font: 12px 'DejaVu Sans', 'Bitstream Vera Sans', 'Computer Modern Sans Serif', 'Lucida Grande', 'Verdana', 'Geneva', 'Lucid', 'Arial', 'Helvetica', 'Avant Garde', sans-serif; text-anchor: end" x="45.343438" y="177.356319" transform="rotate(-0 45.343438 177.356319)">−4</text>
     </g>
    </g>
    <g id="ytick_2">
     <g id="line2d_9">
      <g>
       <use xlink:href="#mb77d2294d5" x="53.843438" y="127.514782" style="stroke: #000000"/>
      </g>
     </g>
     <g id="text_9">
      <text style="font: 12px 'DejaVu Sans', 'Bitstream Vera Sans', 'Computer Modern Sans Serif', 'Lucida Grande', 'Verdana', 'Geneva', 'Lucid', 'Arial', 'Helvetica', 'Avant Garde', sans-serif; text-anchor: end" x="45.343438" y="132.073844" transform="rotate(-0 45.343438 132.073844)">0</text>
     </g>
    </g>
    <g id="ytick_3">
     <g id="line2d_10">
      <g>
       <use xlink:href="#mb77d2294d5" x="53.843438" y="82.232306" style="stroke: #000000"/>
      </g>
     </g>
     <g id="text_10">
      <text style="font: 12px 'DejaVu Sans', 'Bitstream Vera Sans', 'Computer Modern Sans Serif', 'Lucida Grande', 'Verdana', 'Geneva', 'Lucid', 'Arial', 'Helvetica', 'Avant Garde', sans-serif; text-anchor: end" x="45.343438" y="86.791369" transform="rotate(-0 45.343438 86.791369)">4</text>
     </g>
    </g>
    <g id="text_11">
     <text style="font: 17px 'DejaVu Sans', 'Bitstream Vera Sans', 'Computer Modern Sans Serif', 'Lucida Grande', 'Verdana', 'Geneva', 'Lucid', 'Arial', 'Helvetica', 'Avant Garde', sans-serif; text-anchor: middle" x="20.117344" y="120.06625" transform="rotate(-90 20.117344 120.06625)">escape</text>
    </g>
   </g>
   <g id="line2d_11">
    <path d="M 88.791859 189.36625 
L 88.791859 50.76625 
" clip-path="url(#p25c204d92e)" style="fill: none; stroke-dasharray: 2,5; stroke-dashoffset: 0; stroke: #000000"/>
   </g>
   <g id="line2d_12">
    <path d="M 129.907648 189.36625 
L 129.907648 50.76625 
" clip-path="url(#p25c204d92e)" style="fill: none; stroke-dasharray: 2,5; stroke-dashoffset: 0; stroke: #000000"/>
   </g>
   <g id="line2d_13">
    <path d="M 191.581332 189.36625 
L 191.581332 50.76625 
" clip-path="url(#p25c204d92e)" style="fill: none; stroke-dasharray: 2,5; stroke-dashoffset: 0; stroke: #000000"/>
   </g>
   <g id="line2d_14">
    <path d="M 232.697122 189.36625 
L 232.697122 50.76625 
" clip-path="url(#p25c204d92e)" style="fill: none; stroke-dasharray: 2,5; stroke-dashoffset: 0; stroke: #000000"/>
   </g>
   <g id="patch_3">
    <path d="M 53.843438 189.36625 
L 53.843438 50.76625 
" style="fill: none; stroke: #000000; stroke-width: 0.8; stroke-linejoin: miter; stroke-linecap: square"/>
   </g>
   <g id="patch_4">
    <path d="M 53.843438 189.36625 
L 288.203438 189.36625 
" style="fill: none; stroke: #000000; stroke-width: 0.8; stroke-linejoin: miter; stroke-linecap: square"/>
   </g>
   <g id="text_12">
    <g id="patch_5">
     <path d="M 57.955016 144.28851 
L 101.301266 144.28851 
L 101.301266 74.60601 
L 57.955016 74.60601 
L 57.955016 144.28851 
z
" style="fill: none"/>
    </g>
    <path d="M 59.982007 128.511775 
L 65.088251 128.511775 
L 65.088251 128.828643 
L 73.079912 128.511775 
L 78.861819 128.511775 
L 70.709551 128.827652 
L 79.155345 129.313274 
L 73.478664 129.313274 
L 67.353386 128.952484 
L 65.088251 129.041814 
L 65.088251 129.313274 
L 59.982007 129.313274 
L 59.982007 128.511775 
z
" style="fill: #b0c6b1"/>
   </g>
   <g id="text_13">
    <g id="patch_6">
     <path d="M 57.955016 142.488532 
L 101.301266 142.488532 
L 101.301266 72.806032 
L 57.955016 72.806032 
L 57.955016 142.488532 
z
" style="fill: none"/>
    </g>
    <path d="M 71.922422 127.514782 
Q 72.681159 127.514782 73.246058 127.514782 
Q 73.810957 127.514782 74.619538 127.514782 
L 79.293801 127.514782 
L 73.689116 127.514782 
L 70.571095 127.514782 
Q 70.43264 127.514782 70.21111 127.514782 
Q 68.843169 127.514782 66.987863 127.514782 
L 65.365163 127.514782 
L 65.365163 127.514782 
L 60.258918 127.514782 
L 60.258918 127.514782 
L 67.630297 127.514782 
Q 72.614701 127.514782 74.785685 127.514782 
Q 76.95667 127.514782 76.95667 127.514782 
Q 76.95667 127.514782 75.660725 127.514782 
Q 74.36478 127.514782 71.922422 127.514782 
z
M 65.365163 127.514782 
L 65.365163 127.514782 
L 67.768753 127.514782 
Q 69.862202 127.514782 70.770471 127.514782 
Q 71.67874 127.514782 71.67874 127.514782 
Q 71.67874 127.514782 70.77601 127.514782 
Q 69.878817 127.514782 67.768753 127.514782 
L 65.365163 127.514782 
z
" style="fill: #b3c0b7"/>
   </g>
   <g id="text_14">
    <g id="patch_7">
     <path d="M 57.955016 141.521434 
L 101.301266 141.521434 
L 101.301266 71.838934 
L 57.955016 71.838934 
L 57.955016 141.521434 
z
" style="fill: none"/>
    </g>
    <path d="M 60.934582 125.887893 
L 60.934582 125.748739 
L 76.319774 125.748739 
L 76.319774 125.887893 
L 71.1803 125.887893 
L 71.1803 126.407051 
L 76.319774 126.407051 
L 76.319774 126.546205 
L 60.934582 126.546205 
L 60.934582 126.407051 
L 66.074056 126.407051 
L 66.074056 125.887893 
L 60.934582 125.887893 
z
" style="fill: #beabc9"/>
   </g>
   <g id="text_15">
    <g id="patch_8">
     <path d="M 57.955016 139.550786 
L 101.301266 139.550786 
L 101.301266 69.868286 
L 57.955016 69.868286 
L 57.955016 139.550786 
z
" style="fill: none"/>
    </g>
    <path d="M 65.431621 123.79833 
L 65.431621 124.406566 
L 66.816178 124.406566 
Q 69.828973 124.406566 71.108303 124.337209 
Q 72.387633 124.267658 72.387633 124.101474 
Q 72.387633 123.93646 71.108303 123.867492 
Q 69.828973 123.79833 66.816178 123.79833 
L 65.431621 123.79833 
z
M 60.325377 123.629614 
L 65.797144 123.629614 
Q 72.127337 123.629614 74.913064 123.740273 
Q 77.70433 123.850738 77.70433 124.101474 
Q 77.70433 124.35299 74.913064 124.464234 
Q 72.127337 124.575282 65.797144 124.575282 
L 60.325377 124.575282 
L 60.325377 123.629614 
z
" style="fill: #b48fc3"/>
   </g>
   <g id="text_16">
    <g id="patch_9">
     <path d="M 57.955016 137.151947 
L 101.301266 137.151947 
L 101.301266 67.469447 
L 57.955016 67.469447 
L 57.955016 137.151947 
z
" style="fill: none"/>
    </g>
    <path d="M 76.663144 122.120707 
Q 75.450272 122.148002 74.11556 122.161529 
Q 72.786386 122.175056 71.318756 122.175056 
Q 66.09067 122.175056 63.338172 122.025051 
Q 60.585674 121.874804 60.585674 121.590977 
Q 60.585674 121.306425 63.338172 121.156178 
Q 66.09067 121.005931 71.318756 121.005931 
Q 72.786386 121.005931 74.137713 121.019458 
Q 75.48904 121.032985 76.663144 121.060281 
L 76.663144 121.307874 
Q 75.350584 121.254974 74.110022 121.230577 
Q 72.874997 121.205938 71.556899 121.205938 
Q 68.754557 121.205938 67.325695 121.303043 
Q 65.896832 121.399907 65.896832 121.590977 
Q 65.896832 121.78108 67.325695 121.878185 
Q 68.754557 121.975049 71.556899 121.975049 
Q 72.874997 121.975049 74.110022 121.950652 
Q 75.350584 121.926013 76.663144 121.873113 
L 76.663144 122.120707 
z
" style="fill: #b9b5c0"/>
   </g>
   <g id="text_17">
    <g id="patch_10">
     <path d="M 57.955016 134.360633 
L 101.301266 134.360633 
L 101.301266 64.678133 
L 57.955016 64.678133 
L 57.955016 134.360633 
z
" style="fill: none"/>
    </g>
    <path d="M 73.046682 119.099039 
L 73.046682 118.825925 
L 69.552062 118.825925 
L 69.552062 118.588101 
L 77.510492 118.588101 
L 77.510492 119.243881 
Q 76.042862 119.313848 74.265092 119.350058 
Q 72.49286 119.385962 70.465869 119.385962 
Q 65.448236 119.385962 62.712353 119.192634 
Q 59.982007 118.999306 59.982007 118.643644 
Q 59.982007 118.282152 62.740044 118.091279 
Q 65.503618 117.900406 70.709551 117.900406 
Q 72.265792 117.900406 73.77219 117.924956 
Q 75.278587 117.949505 76.596685 117.995536 
L 76.596685 118.308849 
Q 75.522269 118.232132 74.126636 118.193466 
Q 72.736542 118.154494 71.075074 118.154494 
Q 68.167505 118.154494 66.727566 118.276014 
Q 65.293166 118.397228 65.293166 118.643644 
Q 65.293166 118.882389 66.677722 119.007285 
Q 68.062279 119.131874 70.709551 119.131874 
Q 71.507055 119.131874 72.094107 119.123895 
Q 72.681159 119.11561 73.046682 119.099039 
z
" style="fill: #b896c7"/>
   </g>
   <g id="text_18">
    <g id="patch_11">
     <path d="M 57.955016 131.236912 
L 101.301266 131.236912 
L 101.301266 61.554412 
L 57.955016 61.554412 
L 57.955016 131.236912 
z
" style="fill: none"/>
    </g>
    <path d="M 66.782949 115.553067 
Q 62.922805 115.465213 61.554863 115.368773 
Q 60.186922 115.272332 60.186922 115.109175 
Q 60.186922 114.89978 62.435441 114.78022 
Q 64.689499 114.66033 68.616101 114.66033 
Q 70.39941 114.66033 72.182719 114.68477 
Q 73.966028 114.70888 75.710569 114.75611 
L 75.710569 115.053359 
Q 74.065716 114.984331 72.371019 114.948331 
Q 70.676321 114.912 69.014854 114.912 
Q 67.165086 114.912 66.173744 114.956588 
Q 65.18794 115.000845 65.18794 115.083414 
Q 65.18794 115.147487 65.907909 115.189433 
Q 66.627878 115.231047 68.909627 115.28158 
L 71.108303 115.331121 
Q 74.226324 115.399158 75.693954 115.511782 
Q 77.167122 115.624407 77.167122 115.79549 
Q 77.167122 116.028995 74.852144 116.143932 
Q 72.542704 116.258868 67.873979 116.258868 
Q 65.952215 116.258868 64.019374 116.231785 
Q 62.092071 116.204372 60.292148 116.150537 
L 60.292148 115.835784 
Q 62.335753 115.922646 64.246441 115.964922 
Q 66.157129 116.007197 68.029049 116.007197 
Q 69.912046 116.007197 70.947695 115.956335 
Q 71.988881 115.905142 71.988881 115.812995 
Q 71.988881 115.743967 71.296603 115.691783 
Q 70.604325 115.639599 69.291765 115.609875 
L 66.782949 115.553067 
z
" style="fill: #a779b8"/>
   </g>
   <g id="text_19">
    <g id="patch_12">
     <path d="M 57.955016 127.995547 
L 101.301266 127.995547 
L 101.301266 58.313047 
L 57.955016 58.313047 
L 57.955016 127.995547 
z
" style="fill: none"/>
    </g>
    <path d="M 58.093472 111.409338 
L 63.598469 111.409338 
L 68.616101 112.055913 
L 73.650349 111.409338 
L 79.155345 111.409338 
L 71.1803 112.384506 
L 71.1803 113.018812 
L 66.074056 113.018812 
L 66.074056 112.384506 
L 58.093472 111.409338 
z
" style="fill: #b997c8"/>
   </g>
   <g id="text_20">
    <g id="patch_13">
     <path d="M 57.955016 124.729276 
L 101.301266 124.729276 
L 101.301266 55.046776 
L 57.955016 55.046776 
L 57.955016 124.729276 
z
" style="fill: none"/>
    </g>
    <path d="M 68.616101 109.416095 
L 73.168523 107.715161 
L 78.307997 107.715161 
L 72.166104 109.75175 
L 65.088251 109.75175 
L 58.940821 107.715161 
L 64.080294 107.715161 
L 68.616101 109.416095 
z
" style="fill: #a779b8"/>
   </g>
   <g id="text_21">
    <g id="patch_14">
     <path d="M 57.955016 121.002166 
L 101.301266 121.002166 
L 101.301266 51.319666 
L 57.955016 51.319666 
L 57.955016 121.002166 
z
" style="fill: none"/>
    </g>
    <path d="M 61.848389 106.023796 
L 61.848389 103.531686 
L 66.954634 103.531686 
L 66.954634 105.588934 
L 77.876015 105.588934 
L 77.876015 106.023796 
L 61.848389 106.023796 
z
" style="fill: #c0a8cc"/>
   </g>
   <g id="text_22">
    <g id="patch_15">
     <path d="M 57.955016 116.794609 
L 101.301266 116.794609 
L 101.301266 47.112109 
L 57.955016 47.112109 
L 57.955016 116.794609 
z
" style="fill: none"/>
    </g>
    <path d="M 69.30838 101.440731 
Q 69.064698 101.445777 68.898551 101.447459 
Q 68.737942 101.449141 68.582872 101.449141 
Q 64.135677 101.449141 61.842851 101.152552 
Q 59.550026 100.855402 59.550026 100.275678 
Q 59.550026 99.693712 61.842851 99.396002 
Q 64.135677 99.098291 68.616101 99.098291 
Q 73.118679 99.098291 75.411505 99.396002 
Q 77.70433 99.693712 77.70433 100.275678 
Q 77.70433 100.674869 76.6133 100.943986 
Q 75.522269 101.213103 73.445434 101.328599 
L 76.663144 101.605566 
L 73.168523 101.833194 
L 69.30838 101.440731 
z
M 68.616101 99.500845 
Q 66.661108 99.500845 65.758377 99.684181 
Q 64.861184 99.867517 64.861184 100.275678 
Q 64.861184 100.682157 65.758377 100.865493 
Q 66.661108 101.048269 68.616101 101.048269 
Q 70.58771 101.048269 71.484902 100.865493 
Q 72.387633 100.682157 72.387633 100.275678 
Q 72.387633 99.867517 71.484902 99.684181 
Q 70.58771 99.500845 68.616101 99.500845 
z
" style="fill: #ad83bd"/>
   </g>
   <g id="text_23">
    <g id="patch_16">
     <path d="M 57.955016 112.349138 
L 101.301266 112.349138 
L 101.301266 42.666638 
L 57.955016 42.666638 
L 57.955016 112.349138 
z
" style="fill: none"/>
    </g>
    <path d="M 71.1803 97.370299 
L 66.074056 97.370299 
L 66.074056 95.099537 
L 59.511258 95.099537 
L 59.511258 94.625708 
L 77.73756 94.625708 
L 77.73756 95.099537 
L 71.1803 95.099537 
L 71.1803 97.370299 
z
" style="fill: #c0a2cd"/>
   </g>
   <g id="text_24">
    <g id="patch_17">
     <path d="M 57.955016 107.855804 
L 101.301266 107.855804 
L 101.301266 38.173304 
L 57.955016 38.173304 
L 57.955016 107.855804 
z
" style="fill: none"/>
    </g>
    <path d="M 60.015237 89.574829 
L 65.503618 89.574829 
L 72.703312 91.974828 
L 72.703312 89.574829 
L 77.200352 89.574829 
L 77.200352 92.875933 
L 71.750737 92.875933 
L 64.512276 90.475933 
L 64.512276 92.875933 
L 60.015237 92.875933 
L 60.015237 89.574829 
z
" style="fill: #bab3c2"/>
   </g>
   <g id="text_25">
    <g id="patch_18">
     <path d="M 57.955016 102.771533 
L 101.301266 102.771533 
L 101.301266 33.089033 
L 57.955016 33.089033 
L 57.955016 102.771533 
z
" style="fill: none"/>
    </g>
    <path d="M 76.95667 87.790971 
L 60.862585 87.790971 
L 60.862585 84.117456 
L 76.95667 84.117456 
L 76.95667 84.758467 
L 65.968829 84.758467 
L 65.968829 85.548568 
L 75.921021 85.548568 
L 75.921021 86.189579 
L 65.968829 86.189579 
L 65.968829 87.14996 
L 76.95667 87.14996 
L 76.95667 87.790971 
z
" style="fill: #a779b8"/>
   </g>
   <g id="text_26">
    <g id="patch_19">
     <path d="M 57.955016 97.27501 
L 101.301266 97.27501 
L 101.301266 27.59251 
L 57.955016 27.59251 
L 57.955016 97.27501 
z
" style="fill: none"/>
    </g>
    <path d="M 58.558683 77.980126 
L 62.767735 77.980126 
L 64.512276 81.146114 
L 66.627878 79.099729 
L 70.626477 79.099729 
L 73.063297 81.146114 
L 74.447853 77.980126 
L 78.690134 77.980126 
L 75.887792 82.293263 
L 71.385214 82.293263 
L 68.616101 80.030066 
L 66.018673 82.293263 
L 61.571478 82.293263 
L 58.558683 77.980126 
z
" style="fill: #ba98c8"/>
   </g>
   <g id="text_27">
    <g id="patch_20">
     <path d="M 57.955016 91.107763 
L 101.301266 91.107763 
L 101.301266 21.425263 
L 57.955016 21.425263 
L 57.955016 91.107763 
z
" style="fill: none"/>
    </g>
    <path d="M 59.444799 71.581008 
L 65.536848 71.581008 
L 68.616101 73.574294 
L 71.67874 71.581008 
L 77.804018 71.581008 
L 77.804018 76.125587 
L 73.412205 76.125587 
L 73.412205 72.48543 
L 70.676321 74.472162 
L 66.611264 74.472162 
L 63.842151 72.48543 
L 63.842151 76.125587 
L 59.444799 76.125587 
L 59.444799 71.581008 
z
" style="fill: #a97dba"/>
   </g>
   <g id="text_28">
    <g id="patch_21">
     <path d="M 57.955016 84.649577 
L 101.301266 84.649577 
L 101.301266 14.967077 
L 57.955016 14.967077 
L 57.955016 84.649577 
z
" style="fill: none"/>
    </g>
    <path d="M 65.863603 64.871858 
L 65.863603 66.559643 
L 67.957053 66.559643 
Q 70.465869 66.559643 71.479364 66.371321 
Q 72.49286 66.181816 72.49286 65.715158 
Q 72.49286 65.2485 71.479364 65.060179 
Q 70.465869 64.871858 67.957053 64.871858 
L 65.863603 64.871858 
z
M 60.757359 63.916038 
L 67.768753 63.916038 
Q 73.118679 63.916038 75.461349 64.340057 
Q 77.804018 64.764076 77.804018 65.715158 
Q 77.804018 66.666239 75.461349 67.090258 
Q 73.118679 67.514277 67.768753 67.514277 
L 65.863603 67.514277 
L 65.863603 69.665167 
L 60.757359 69.665167 
L 60.757359 63.916038 
z
" style="fill: #ac81bc"/>
   </g>
   <g id="text_29">
    <g id="patch_22">
     <path d="M 57.955016 76.8825 
L 101.301266 76.8825 
L 101.301266 7.2 
L 57.955016 7.2 
L 57.955016 76.8825 
z
" style="fill: none"/>
    </g>
    <path d="M 60.325377 54.64707 
L 65.431621 54.64707 
L 65.431621 57.409584 
L 71.817196 57.409584 
L 71.817196 54.64707 
L 76.92344 54.64707 
L 76.92344 61.895311 
L 71.817196 61.895311 
L 71.817196 58.669888 
L 65.431621 58.669888 
L 65.431621 61.895311 
L 60.325377 61.895311 
L 60.325377 54.64707 
z
" style="fill: #ad84be"/>
   </g>
   <g id="text_30">
    <g id="patch_23">
     <path d="M 99.070806 193.609276 
L 142.417056 193.609276 
L 142.417056 123.926776 
L 99.070806 123.926776 
L 99.070806 193.609276 
z
" style="fill: none"/>
    </g>
    <path d="M 113.038212 174.939347 
Q 113.796949 174.984344 114.361848 175.156297 
Q 114.926747 175.326642 115.735328 175.813574 
L 120.409591 178.621063 
L 114.804906 178.621063 
L 111.686885 176.652446 
Q 111.548429 176.565666 111.3269 176.421033 
Q 109.958958 175.537164 108.103652 175.537164 
L 106.480952 175.537164 
L 106.480952 178.621063 
L 101.374708 178.621063 
L 101.374708 170.820517 
L 108.746087 170.820517 
Q 113.73049 170.820517 115.901475 171.354053 
Q 118.072459 171.885981 118.072459 173.091257 
Q 118.072459 173.894775 116.776514 174.370457 
Q 115.480569 174.844532 113.038212 174.939347 
z
M 106.480952 172.117394 
L 106.480952 174.241894 
L 108.884542 174.241894 
Q 110.977992 174.241894 111.886261 173.996018 
Q 112.79453 173.748534 112.79453 173.17643 
Q 112.79453 172.609147 111.891799 172.363271 
Q 110.994606 172.117394 108.884542 172.117394 
L 106.480952 172.117394 
z
" style="fill: #279b4f"/>
   </g>
   <g id="text_31">
    <g id="patch_24">
     <path d="M 99.070806 183.699207 
L 142.417056 183.699207 
L 142.417056 114.016707 
L 99.070806 114.016707 
L 99.070806 183.699207 
z
" style="fill: none"/>
    </g>
    <path d="M 114.162472 167.238184 
L 114.162472 165.82702 
L 110.667851 165.82702 
L 110.667851 164.598197 
L 118.626282 164.598197 
L 118.626282 167.986577 
Q 117.158652 168.348089 115.380881 168.535187 
Q 113.608649 168.7207 111.581658 168.7207 
Q 106.564026 168.7207 103.828142 167.721786 
Q 101.097797 166.722871 101.097797 164.885186 
Q 101.097797 163.017375 103.855833 162.031145 
Q 106.619408 161.044916 111.82534 161.044916 
Q 113.381582 161.044916 114.887979 161.171762 
Q 116.394377 161.298608 117.712474 161.536445 
L 117.712474 163.15532 
Q 116.638059 162.758926 115.242426 162.559143 
Q 113.852331 162.357775 112.190863 162.357775 
Q 109.283295 162.357775 107.843356 162.985663 
Q 106.408955 163.611967 106.408955 164.885186 
Q 106.408955 166.118766 107.793512 166.764096 
Q 109.178068 167.407841 111.82534 167.407841 
Q 112.622845 167.407841 113.209897 167.366616 
Q 113.796949 167.323805 114.162472 167.238184 
z
" style="fill: #199447"/>
   </g>
   <g id="text_32">
    <g id="patch_25">
     <path d="M 99.070806 173.901211 
L 142.417056 173.901211 
L 142.417056 104.218711 
L 99.070806 104.218711 
L 99.070806 173.901211 
z
" style="fill: none"/>
    </g>
    <path d="M 101.131026 151.601489 
L 106.619408 151.601489 
L 113.819102 156.917828 
L 113.819102 151.601489 
L 118.316141 151.601489 
L 118.316141 158.913903 
L 112.866527 158.913903 
L 105.628065 153.597564 
L 105.628065 158.913903 
L 101.131026 158.913903 
L 101.131026 151.601489 
z
" style="fill: #44aa62"/>
   </g>
   <g id="text_33">
    <g id="patch_26">
     <path d="M 99.070806 164.516418 
L 142.417056 164.516418 
L 142.417056 94.833918 
L 99.070806 94.833918 
L 99.070806 164.516418 
z
" style="fill: none"/>
    </g>
    <path d="M 101.097797 142.822723 
L 106.204041 142.822723 
L 106.204041 145.474496 
L 114.195701 142.822723 
L 119.977609 142.822723 
L 111.82534 145.466205 
L 120.271135 149.530231 
L 114.594453 149.530231 
L 108.469175 146.510885 
L 106.204041 147.258467 
L 106.204041 149.530231 
L 101.097797 149.530231 
L 101.097797 142.822723 
z
" style="fill: #1d9649"/>
   </g>
   <g id="text_34">
    <g id="patch_27">
     <path d="M 99.070806 155.782561 
L 142.417056 155.782561 
L 142.417056 86.100061 
L 99.070806 86.100061 
L 99.070806 155.782561 
z
" style="fill: none"/>
    </g>
    <path d="M 101.441167 135.694046 
L 106.547411 135.694046 
L 106.547411 137.639823 
L 112.932985 137.639823 
L 112.932985 135.694046 
L 118.03923 135.694046 
L 118.03923 140.799345 
L 112.932985 140.799345 
L 112.932985 138.527518 
L 106.547411 138.527518 
L 106.547411 140.799345 
L 101.441167 140.799345 
L 101.441167 135.694046 
z
" style="fill: #40a85f"/>
   </g>
   <g id="text_35">
    <g id="patch_28">
     <path d="M 99.070806 148.772834 
L 142.417056 148.772834 
L 142.417056 79.090334 
L 99.070806 79.090334 
L 99.070806 148.772834 
z
" style="fill: none"/>
    </g>
    <path d="M 106.547411 131.71665 
L 106.547411 133.343209 
L 107.931967 133.343209 
Q 110.944762 133.343209 112.224093 133.157734 
Q 113.503423 132.971737 113.503423 132.527325 
Q 113.503423 132.086038 112.224093 131.901605 
Q 110.944762 131.71665 107.931967 131.71665 
L 106.547411 131.71665 
z
M 101.441167 131.265465 
L 106.912934 131.265465 
Q 113.243126 131.265465 116.028854 131.561392 
Q 118.82012 131.856799 118.82012 132.527325 
Q 118.82012 133.199935 116.028854 133.497425 
Q 113.243126 133.794395 106.912934 133.794395 
L 101.441167 133.794395 
L 101.441167 131.265465 
z
" style="fill: #a8d6a3"/>
   </g>
   <g id="text_36">
    <g id="patch_29">
     <path d="M 99.070806 144.535526 
L 142.417056 144.535526 
L 142.417056 74.853026 
L 99.070806 74.853026 
L 99.070806 144.535526 
z
" style="fill: none"/>
    </g>
    <path d="M 99.674473 128.971405 
L 103.883524 128.971405 
L 105.628065 129.403955 
L 107.743668 129.12437 
L 111.742267 129.12437 
L 114.179086 129.403955 
L 115.563643 128.971405 
L 119.805924 128.971405 
L 117.003582 129.560683 
L 112.501004 129.560683 
L 109.731891 129.251476 
L 107.134463 129.560683 
L 102.687267 129.560683 
L 99.674473 128.971405 
z
" style="fill: #b3c1b6"/>
   </g>
   <g id="text_37">
    <g id="patch_30">
     <path d="M 99.070806 143.212146 
L 142.417056 143.212146 
L 142.417056 73.529646 
L 99.070806 73.529646 
L 99.070806 143.212146 
z
" style="fill: none"/>
    </g>
    <path d="M 102.964179 128.237798 
L 102.964179 127.915585 
L 108.070423 127.915585 
L 108.070423 128.181574 
L 118.991805 128.181574 
L 118.991805 128.237798 
L 102.964179 128.237798 
z
" style="fill: #7c3495"/>
   </g>
   <g id="text_38">
    <g id="patch_31">
     <path d="M 99.070806 142.488532 
L 142.417056 142.488532 
L 142.417056 72.806032 
L 99.070806 72.806032 
L 99.070806 142.488532 
z
" style="fill: none"/>
    </g>
    <path d="M 118.316141 127.514782 
L 107.328301 127.514782 
L 107.328301 127.514782 
L 117.330337 127.514782 
L 117.330337 127.514782 
L 107.328301 127.514782 
L 107.328301 127.514782 
L 102.222056 127.514782 
L 102.222056 127.514782 
L 118.316141 127.514782 
L 118.316141 127.514782 
z
" style="fill: #b3c0b7"/>
   </g>
   <g id="text_39">
    <g id="patch_32">
     <path d="M 99.070806 142.299208 
L 142.417056 142.299208 
L 142.417056 72.616708 
L 99.070806 72.616708 
L 99.070806 142.299208 
z
" style="fill: none"/>
    </g>
    <path d="M 109.731891 127.299439 
L 114.284313 127.169053 
L 119.423786 127.169053 
L 113.281894 127.325168 
L 106.204041 127.325168 
L 100.05661 127.169053 
L 105.196084 127.169053 
L 109.731891 127.299439 
z
" style="fill: #b5bdb9"/>
   </g>
   <g id="text_40">
    <g id="patch_33">
     <path d="M 99.070806 141.278425 
L 142.417056 141.278425 
L 142.417056 71.595925 
L 99.070806 71.595925 
L 99.070806 141.278425 
z
" style="fill: none"/>
    </g>
    <path d="M 110.424169 126.205679 
Q 110.180487 126.206993 110.01434 126.207431 
Q 109.853732 126.207869 109.698662 126.207869 
Q 105.251466 126.207869 102.958641 126.130628 
Q 100.665815 126.053241 100.665815 125.902264 
Q 100.665815 125.750702 102.958641 125.673169 
Q 105.251466 125.595636 109.731891 125.595636 
Q 114.234469 125.595636 116.527294 125.673169 
Q 118.82012 125.750702 118.82012 125.902264 
Q 118.82012 126.006225 117.729089 126.076311 
Q 116.638059 126.146397 114.561224 126.176476 
L 117.778933 126.248606 
L 114.284313 126.307888 
L 110.424169 126.205679 
z
M 109.731891 125.700474 
Q 107.776897 125.700474 106.874166 125.74822 
Q 105.976974 125.795966 105.976974 125.902264 
Q 105.976974 126.008123 106.874166 126.055869 
Q 107.776897 126.10347 109.731891 126.10347 
Q 111.703499 126.10347 112.600692 126.055869 
Q 113.503423 126.008123 113.503423 125.902264 
Q 113.503423 125.795966 112.600692 125.74822 
Q 111.703499 125.700474 109.731891 125.700474 
z
" style="fill: #b5bdb9"/>
   </g>
   <g id="text_41">
    <g id="patch_34">
     <path d="M 99.070806 139.519247 
L 142.417056 139.519247 
L 142.417056 69.836747 
L 99.070806 69.836747 
L 99.070806 139.519247 
z
" style="fill: none"/>
    </g>
    <path d="M 112.296089 124.543926 
L 107.189845 124.543926 
L 107.189845 123.843263 
L 100.627047 123.843263 
L 100.627047 123.697059 
L 118.853349 123.697059 
L 118.853349 123.843263 
L 112.296089 123.843263 
L 112.296089 124.543926 
z
" style="fill: #b8b6bf"/>
   </g>
   <g id="text_42">
    <g id="patch_35">
     <path d="M 99.070806 137.231032 
L 142.417056 137.231032 
L 142.417056 67.548532 
L 99.070806 67.548532 
L 99.070806 137.231032 
z
" style="fill: none"/>
    </g>
    <path d="M 107.898738 121.741065 
Q 104.038595 121.677198 102.670653 121.607089 
Q 101.302711 121.536979 101.302711 121.41837 
Q 101.302711 121.266146 103.551231 121.179229 
Q 105.805289 121.092072 109.731891 121.092072 
Q 111.5152 121.092072 113.298508 121.10984 
Q 115.081817 121.127367 116.826358 121.161702 
L 116.826358 121.377792 
Q 115.181505 121.327611 113.486808 121.30144 
Q 111.792111 121.275029 110.130643 121.275029 
Q 108.280876 121.275029 107.289533 121.307443 
Q 106.303729 121.339616 106.303729 121.399642 
Q 106.303729 121.446221 107.023698 121.476714 
Q 107.743668 121.506967 110.025417 121.543702 
L 112.224093 121.579717 
Q 115.342114 121.629178 116.809744 121.711053 
Q 118.282912 121.792927 118.282912 121.917299 
Q 118.282912 122.087051 115.967933 122.170606 
Q 113.658493 122.254161 108.989769 122.254161 
Q 107.068004 122.254161 105.135163 122.234473 
Q 103.207861 122.214545 101.407937 122.175408 
L 101.407937 121.946592 
Q 103.451543 122.009738 105.362231 122.040471 
Q 107.272919 122.071204 109.144839 122.071204 
Q 111.027836 122.071204 112.063484 122.034229 
Q 113.10467 121.997013 113.10467 121.930025 
Q 113.10467 121.879844 112.412392 121.841908 
Q 111.720114 121.803972 110.407554 121.782363 
L 107.898738 121.741065 
z
" style="fill: #b1c4b3"/>
   </g>
   <g id="text_43">
    <g id="patch_36">
     <path d="M 99.070806 134.44796 
L 142.417056 134.44796 
L 142.417056 64.76546 
L 99.070806 64.76546 
L 99.070806 134.44796 
z
" style="fill: none"/>
    </g>
    <path d="M 117.778933 119.402258 
Q 116.566062 119.43642 115.231349 119.45335 
Q 113.902175 119.47028 112.434545 119.47028 
Q 107.20646 119.47028 104.453962 119.28254 
Q 101.701463 119.094498 101.701463 118.739274 
Q 101.701463 118.383143 104.453962 118.195101 
Q 107.20646 118.007059 112.434545 118.007059 
Q 113.902175 118.007059 115.253502 118.023989 
Q 116.604829 118.040919 117.778933 118.075081 
L 117.778933 118.384957 
Q 116.466374 118.318749 115.225811 118.288215 
Q 113.990787 118.257379 112.672689 118.257379 
Q 109.870347 118.257379 108.441484 118.378911 
Q 107.012622 118.50014 107.012622 118.739274 
Q 107.012622 118.977198 108.441484 119.09873 
Q 109.870347 119.21996 112.672689 119.21996 
Q 113.990787 119.21996 115.225811 119.189426 
Q 116.466374 119.158589 117.778933 119.092382 
L 117.778933 119.402258 
z
" style="fill: #bab4c1"/>
   </g>
   <g id="text_44">
    <g id="patch_37">
     <path d="M 99.070806 131.343031 
L 142.417056 131.343031 
L 142.417056 61.660531 
L 99.070806 61.660531 
L 99.070806 131.343031 
z
" style="fill: none"/>
    </g>
    <path d="M 118.072459 116.366135 
L 101.978375 116.366135 
L 101.978375 114.669344 
L 118.072459 114.669344 
L 118.072459 114.965426 
L 107.084619 114.965426 
L 107.084619 115.330372 
L 117.036811 115.330372 
L 117.036811 115.626454 
L 107.084619 115.626454 
L 107.084619 116.070053 
L 118.072459 116.070053 
L 118.072459 116.366135 
z
" style="fill: #bbb1c3"/>
   </g>
   <g id="text_45">
    <g id="patch_38">
     <path d="M 99.070806 127.999101 
L 142.417056 127.999101 
L 142.417056 58.316601 
L 99.070806 58.316601 
L 99.070806 127.999101 
z
" style="fill: none"/>
    </g>
    <path d="M 100.560589 111.276932 
L 106.652637 111.276932 
L 109.731891 112.042382 
L 112.79453 111.276932 
L 118.919808 111.276932 
L 118.919808 113.022116 
L 114.527995 113.022116 
L 114.527995 111.624243 
L 111.792111 112.387177 
L 107.727053 112.387177 
L 104.95794 111.624243 
L 104.95794 113.022116 
L 100.560589 113.022116 
L 100.560589 111.276932 
z
" style="fill: #c0a7cc"/>
   </g>
   <g id="text_46">
    <g id="patch_39">
     <path d="M 99.070806 124.569135 
L 142.417056 124.569135 
L 142.417056 54.886635 
L 99.070806 54.886635 
L 99.070806 124.569135 
z
" style="fill: none"/>
    </g>
    <path d="M 99.209262 107.008014 
L 104.714258 107.008014 
L 109.731891 108.045516 
L 114.766138 107.008014 
L 120.271135 107.008014 
L 112.296089 108.57278 
L 112.296089 109.590597 
L 107.189845 109.590597 
L 107.189845 108.57278 
L 99.209262 107.008014 
z
" style="fill: #b6babc"/>
   </g>
   <g id="text_47">
    <g id="patch_40">
     <path d="M 99.070806 120.206304 
L 142.417056 120.206304 
L 142.417056 50.523804 
L 99.070806 50.523804 
L 99.070806 120.206304 
z
" style="fill: none"/>
    </g>
    <path d="M 102.050371 101.79286 
L 102.050371 101.067407 
L 117.435563 101.067407 
L 117.435563 101.79286 
L 112.296089 101.79286 
L 112.296089 104.499392 
L 117.435563 104.499392 
L 117.435563 105.224846 
L 102.050371 105.224846 
L 102.050371 104.499392 
L 107.189845 104.499392 
L 107.189845 101.79286 
L 102.050371 101.79286 
z
" style="fill: #c1a3ce"/>
   </g>
   <g id="text_48">
    <g id="patch_41">
     <path d="M 99.070806 114.179841 
L 142.417056 114.179841 
L 142.417056 44.497341 
L 99.070806 44.497341 
L 99.070806 114.179841 
z
" style="fill: none"/>
    </g>
    <path d="M 109.731891 95.086318 
L 107.328301 97.144656 
L 112.157634 97.144656 
L 109.731891 95.086318 
z
M 106.619408 94.176892 
L 112.866527 94.176892 
L 119.839153 99.206091 
L 114.732909 99.206091 
L 113.143438 97.961178 
L 106.303729 97.961178 
L 104.747488 99.206091 
L 99.641243 99.206091 
L 106.619408 94.176892 
z
" style="fill: #bdadc7"/>
   </g>
   <g id="text_49">
    <g id="patch_42">
     <path d="M 140.186595 195.912796 
L 183.532845 195.912796 
L 183.532845 126.230296 
L 140.186595 126.230296 
L 140.186595 195.912796 
z
" style="fill: none"/>
    </g>
    <path d="M 149.014528 178.357616 
Q 145.154384 178.038239 143.786442 177.687644 
Q 142.4185 177.33705 142.4185 176.743921 
Q 142.4185 175.9827 144.66702 175.548059 
Q 146.921078 175.112217 150.84768 175.112217 
Q 152.630989 175.112217 154.414298 175.201067 
Q 156.197607 175.288715 157.942148 175.46041 
L 157.942148 176.541009 
Q 156.297295 176.29007 154.602598 176.159197 
Q 152.9079 176.027124 151.246433 176.027124 
Q 149.396665 176.027124 148.405323 176.189214 
Q 147.419518 176.350103 147.419518 176.65027 
Q 147.419518 176.883199 148.139488 177.035683 
Q 148.859457 177.186967 151.141206 177.370669 
L 153.339882 177.550768 
Q 156.457903 177.798106 157.925533 178.207532 
Q 159.398701 178.616959 159.398701 179.238904 
Q 159.398701 180.087774 157.083723 180.505606 
Q 154.774283 180.923437 150.105558 180.923437 
Q 148.183794 180.923437 146.250953 180.824983 
Q 144.32365 180.725327 142.523727 180.529619 
L 142.523727 179.385385 
Q 144.567332 179.70116 146.47802 179.854845 
Q 148.388708 180.00853 150.260628 180.00853 
Q 152.143625 180.00853 153.179273 179.823628 
Q 154.22046 179.637525 154.22046 179.302539 
Q 154.22046 179.0516 153.528182 178.861895 
Q 152.835903 178.67219 151.523344 178.56413 
L 149.014528 178.357616 
z
" style="fill: #67bb78"/>
   </g>
   <g id="text_50">
    <g id="patch_43">
     <path d="M 140.186595 188.125342 
L 183.532845 188.125342 
L 183.532845 118.442842 
L 140.186595 118.442842 
L 140.186595 188.125342 
z
" style="fill: none"/>
    </g>
    <path d="M 155.278261 172.146937 
L 155.278261 171.193693 
L 151.783641 171.193693 
L 151.783641 170.363622 
L 159.742071 170.363622 
L 159.742071 172.652478 
Q 158.274441 172.89668 156.496671 173.023065 
Q 154.724439 173.148379 152.697448 173.148379 
Q 147.679815 173.148379 144.943931 172.473611 
Q 142.213586 171.798843 142.213586 170.557483 
Q 142.213586 169.295774 144.971623 168.629574 
Q 147.735197 167.963375 152.94113 167.963375 
Q 154.497371 167.963375 156.003769 168.04906 
Q 157.510166 168.134744 158.828264 168.295404 
L 158.828264 169.388956 
Q 157.753848 169.121191 156.358215 168.986238 
Q 154.96812 168.850213 153.306653 168.850213 
Q 150.399084 168.850213 148.959145 169.274353 
Q 147.524745 169.697422 147.524745 170.557483 
Q 147.524745 171.390769 148.909301 171.82669 
Q 150.293858 172.261541 152.94113 172.261541 
Q 153.738634 172.261541 154.325686 172.233693 
Q 154.912738 172.204775 155.278261 172.146937 
z
" style="fill: #5bb571"/>
   </g>
   <g id="text_51">
    <g id="patch_44">
     <path d="M 140.186595 181.014862 
L 183.532845 181.014862 
L 183.532845 111.332362 
L 140.186595 111.332362 
L 140.186595 181.014862 
z
" style="fill: none"/>
    </g>
    <path d="M 142.246815 161.387981 
L 147.735197 161.387981 
L 154.934891 164.764682 
L 154.934891 161.387981 
L 159.431931 161.387981 
L 159.431931 166.0325 
L 153.982316 166.0325 
L 146.743855 162.655798 
L 146.743855 166.0325 
L 142.246815 166.0325 
L 142.246815 161.387981 
z
" style="fill: #6bbd7a"/>
   </g>
   <g id="text_52">
    <g id="patch_45">
     <path d="M 140.186595 174.500977 
L 183.532845 174.500977 
L 183.532845 104.818477 
L 140.186595 104.818477 
L 140.186595 174.500977 
z
" style="fill: none"/>
    </g>
    <path d="M 150.84768 155.933357 
L 148.44409 157.728941 
L 153.273423 157.728941 
L 150.84768 155.933357 
z
M 147.735197 155.140021 
L 153.982316 155.140021 
L 160.954943 159.527227 
L 155.848698 159.527227 
L 154.259228 158.441232 
L 147.419518 158.441232 
L 145.863277 159.527227 
L 140.757033 159.527227 
L 147.735197 155.140021 
z
" style="fill: #8ecf91"/>
   </g>
   <g id="text_53">
    <g id="patch_46">
     <path d="M 140.186595 168.281429 
L 183.532845 168.281429 
L 183.532845 98.598929 
L 140.186595 98.598929 
L 140.186595 168.281429 
z
" style="fill: none"/>
    </g>
    <path d="M 159.188249 153.301871 
L 143.094164 153.301871 
L 143.094164 150.169088 
L 159.188249 150.169088 
L 159.188249 150.715744 
L 148.200408 150.715744 
L 148.200408 151.389544 
L 158.1526 151.389544 
L 158.1526 151.9362 
L 148.200408 151.9362 
L 148.200408 152.755215 
L 159.188249 152.755215 
L 159.188249 153.301871 
z
" style="fill: #a9d4a6"/>
   </g>
   <g id="text_54">
    <g id="patch_47">
     <path d="M 140.186595 163.394318 
L 183.532845 163.394318 
L 183.532845 93.711818 
L 140.186595 93.711818 
L 140.186595 163.394318 
z
" style="fill: none"/>
    </g>
    <path d="M 140.325051 145.366294 
L 145.830048 145.366294 
L 150.84768 146.591018 
L 155.881928 145.366294 
L 161.386924 145.366294 
L 153.411879 147.21343 
L 153.411879 148.414916 
L 148.305635 148.414916 
L 148.305635 147.21343 
L 140.325051 145.366294 
z
" style="fill: #92d193"/>
   </g>
   <g id="text_55">
    <g id="patch_48">
     <path d="M 140.186595 158.597772 
L 183.532845 158.597772 
L 183.532845 88.915272 
L 140.186595 88.915272 
L 140.186595 158.597772 
z
" style="fill: none"/>
    </g>
    <path d="M 142.556956 140.706762 
L 147.6632 140.706762 
L 147.6632 141.816557 
L 154.048775 141.816557 
L 154.048775 140.706762 
L 159.155019 140.706762 
L 159.155019 143.618623 
L 154.048775 143.618623 
L 154.048775 142.322863 
L 147.6632 142.322863 
L 147.6632 143.618623 
L 142.556956 143.618623 
L 142.556956 140.706762 
z
" style="fill: #90d092"/>
   </g>
   <g id="text_56">
    <g id="patch_49">
     <path d="M 140.186595 153.948394 
L 183.532845 153.948394 
L 183.532845 84.265894 
L 140.186595 84.265894 
L 140.186595 153.948394 
z
" style="fill: none"/>
    </g>
    <path d="M 153.411879 138.970382 
L 148.305635 138.970382 
L 148.305635 137.068665 
L 141.742837 137.068665 
L 141.742837 136.671842 
L 159.969138 136.671842 
L 159.969138 137.068665 
L 153.411879 137.068665 
L 153.411879 138.970382 
z
" style="fill: #a9d3a6"/>
   </g>
   <g id="text_57">
    <g id="patch_50">
     <path d="M 140.186595 149.959008 
L 183.532845 149.959008 
L 183.532845 80.276508 
L 140.186595 80.276508 
L 140.186595 149.959008 
z
" style="fill: none"/>
    </g>
    <path d="M 147.6632 133.762165 
L 147.6632 134.717506 
L 149.047757 134.717506 
Q 152.060552 134.717506 153.339882 134.608569 
Q 154.619212 134.499326 154.619212 134.238305 
Q 154.619212 133.979121 153.339882 133.870796 
Q 152.060552 133.762165 149.047757 133.762165 
L 147.6632 133.762165 
z
M 142.556956 133.497167 
L 148.028723 133.497167 
Q 154.358916 133.497167 157.144643 133.670976 
Q 159.935909 133.84448 159.935909 134.238305 
Q 159.935909 134.633355 157.144643 134.808082 
Q 154.358916 134.982504 148.028723 134.982504 
L 142.556956 134.982504 
L 142.556956 133.497167 
z
" style="fill: #b3c1b6"/>
   </g>
   <g id="text_58">
    <g id="patch_51">
     <path d="M 140.186595 146.844706 
L 183.532845 146.844706 
L 183.532845 77.162206 
L 140.186595 77.162206 
L 140.186595 146.844706 
z
" style="fill: none"/>
    </g>
    <path d="M 148.095182 131.014625 
L 148.095182 131.315481 
L 150.188631 131.315481 
Q 152.697448 131.315481 153.710943 131.281912 
Q 154.724439 131.248131 154.724439 131.164947 
Q 154.724439 131.081763 153.710943 131.048194 
Q 152.697448 131.014625 150.188631 131.014625 
L 148.095182 131.014625 
z
M 142.988938 130.844246 
L 150.000332 130.844246 
Q 155.350258 130.844246 157.692928 130.919829 
Q 160.035597 130.995413 160.035597 131.164947 
Q 160.035597 131.334482 157.692928 131.410066 
Q 155.350258 131.485649 150.000332 131.485649 
L 148.095182 131.485649 
L 148.095182 131.869056 
L 142.988938 131.869056 
L 142.988938 130.844246 
z
" style="fill: #acceaa"/>
   </g>
   <g id="text_59">
    <g id="patch_52">
     <path d="M 140.186595 144.543224 
L 183.532845 144.543224 
L 183.532845 74.860724 
L 140.186595 74.860724 
L 140.186595 144.543224 
z
" style="fill: none"/>
    </g>
    <path d="M 151.539959 129.441679 
Q 151.296277 129.443376 151.13013 129.443941 
Q 150.969521 129.444507 150.814451 129.444507 
Q 146.367256 129.444507 144.07443 129.344797 
Q 141.781604 129.244898 141.781604 129.050002 
Q 141.781604 128.854352 144.07443 128.754265 
Q 146.367256 128.654178 150.84768 128.654178 
Q 155.350258 128.654178 157.643084 128.754265 
Q 159.935909 128.854352 159.935909 129.050002 
Q 159.935909 129.184205 158.844879 129.274679 
Q 157.753848 129.365153 155.677013 129.403982 
L 158.894723 129.497095 
L 155.400102 129.573621 
L 151.539959 129.441679 
z
M 150.84768 128.789512 
Q 148.892687 128.789512 147.989956 128.851148 
Q 147.092763 128.912783 147.092763 129.050002 
Q 147.092763 129.186656 147.989956 129.248291 
Q 148.892687 129.309738 150.84768 129.309738 
Q 152.819289 129.309738 153.716481 129.248291 
Q 154.619212 129.186656 154.619212 129.050002 
Q 154.619212 128.912783 153.716481 128.851148 
Q 152.819289 128.789512 150.84768 128.789512 
z
" style="fill: #a8d5a4"/>
   </g>
   <g id="text_60">
    <g id="patch_53">
     <path d="M 140.186595 142.488532 
L 183.532845 142.488532 
L 183.532845 72.806032 
L 140.186595 72.806032 
L 140.186595 142.488532 
z
" style="fill: none"/>
    </g>
    <path d="M 159.431931 127.514782 
L 148.44409 127.514782 
L 148.44409 127.514782 
L 158.446126 127.514782 
L 158.446126 127.514782 
L 148.44409 127.514782 
L 148.44409 127.514782 
L 143.337846 127.514782 
L 143.337846 127.514782 
L 159.431931 127.514782 
L 159.431931 127.514782 
z
" style="fill: #b3c0b7"/>
   </g>
   <g id="text_61">
    <g id="patch_54">
     <path d="M 140.186595 141.661425 
L 183.532845 141.661425 
L 183.532845 71.978925 
L 140.186595 71.978925 
L 140.186595 141.661425 
z
" style="fill: none"/>
    </g>
    <path d="M 150.84768 126.574003 
L 155.400102 126.00438 
L 160.539576 126.00438 
L 154.397683 126.68641 
L 147.31983 126.68641 
L 141.1724 126.00438 
L 146.311873 126.00438 
L 150.84768 126.574003 
z
" style="fill: #b3c1b6"/>
   </g>
   <g id="text_62">
    <g id="patch_55">
     <path d="M 140.186595 139.357871 
L 183.532845 139.357871 
L 183.532845 69.675371 
L 140.186595 69.675371 
L 140.186595 139.357871 
z
" style="fill: none"/>
    </g>
    <path d="M 158.894723 124.289524 
Q 157.681851 124.334438 156.347139 124.356696 
Q 155.017964 124.378954 153.550335 124.378954 
Q 148.322249 124.378954 145.569751 124.132129 
Q 142.817253 123.884907 142.817253 123.417888 
Q 142.817253 122.949677 145.569751 122.702455 
Q 148.322249 122.455233 153.550335 122.455233 
Q 155.017964 122.455233 156.369292 122.477491 
Q 157.720619 122.499749 158.894723 122.544662 
L 158.894723 122.952062 
Q 157.582163 122.865017 156.3416 122.824874 
Q 155.106576 122.784332 153.788478 122.784332 
Q 150.986136 122.784332 149.557274 122.944113 
Q 148.128411 123.103495 148.128411 123.417888 
Q 148.128411 123.730692 149.557274 123.890472 
Q 150.986136 124.049854 153.788478 124.049854 
Q 155.106576 124.049854 156.3416 124.009711 
Q 157.582163 123.969169 158.894723 123.882125 
L 158.894723 124.289524 
z
" style="fill: #c2a5cf"/>
   </g>
   <g id="text_63">
    <g id="patch_56">
     <path d="M 140.186595 135.754155 
L 183.532845 135.754155 
L 183.532845 66.071655 
L 140.186595 66.071655 
L 140.186595 135.754155 
z
" style="fill: none"/>
    </g>
    <path d="M 141.676378 118.575622 
L 147.768427 118.575622 
L 150.84768 119.540866 
L 153.910319 118.575622 
L 160.035597 118.575622 
L 160.035597 120.776325 
L 155.643784 120.776325 
L 155.643784 119.013586 
L 152.9079 119.975657 
L 148.842843 119.975657 
L 146.07373 119.013586 
L 146.07373 120.776325 
L 141.676378 120.776325 
L 141.676378 118.575622 
z
" style="fill: #b793c5"/>
   </g>
   <g id="text_64">
    <g id="patch_57">
     <path d="M 140.186595 131.845553 
L 183.532845 131.845553 
L 183.532845 62.163053 
L 140.186595 62.163053 
L 140.186595 131.845553 
z
" style="fill: none"/>
    </g>
    <path d="M 140.790262 114.096828 
L 144.999314 114.096828 
L 146.743855 116.129984 
L 148.859457 114.815822 
L 152.858056 114.815822 
L 155.294876 116.129984 
L 156.679432 114.096828 
L 160.921713 114.096828 
L 158.119371 116.866668 
L 153.616793 116.866668 
L 150.84768 115.413272 
L 148.250252 116.866668 
L 143.803057 116.866668 
L 140.790262 114.096828 
z
" style="fill: #beabc9"/>
   </g>
   <g id="text_65">
    <g id="patch_58">
     <path d="M 140.186595 127.219269 
L 183.532845 127.219269 
L 183.532845 57.536769 
L 140.186595 57.536769 
L 140.186595 127.219269 
z
" style="fill: none"/>
    </g>
    <path d="M 143.166161 107.460204 
L 143.166161 106.45095 
L 158.551353 106.45095 
L 158.551353 107.460204 
L 153.411879 107.460204 
L 153.411879 111.225542 
L 158.551353 111.225542 
L 158.551353 112.234795 
L 143.166161 112.234795 
L 143.166161 111.225542 
L 148.305635 111.225542 
L 148.305635 107.460204 
L 143.166161 107.460204 
z
" style="fill: #be9fcc"/>
   </g>
   <g id="text_66">
    <g id="patch_59">
     <path d="M 140.186595 119.430366 
L 183.532845 119.430366 
L 183.532845 49.747866 
L 140.186595 49.747866 
L 140.186595 119.430366 
z
" style="fill: none"/>
    </g>
    <path d="M 144.079968 104.443782 
L 144.079968 97.521664 
L 149.186213 97.521664 
L 149.186213 103.235905 
L 160.107594 103.235905 
L 160.107594 104.443782 
L 144.079968 104.443782 
z
" style="fill: #ac81bc"/>
   </g>
   <g id="text_67">
    <g id="patch_60">
     <path d="M 160.74449 201.394692 
L 204.09074 201.394692 
L 204.09074 131.712192 
L 160.74449 131.712192 
L 160.74449 201.394692 
z
" style="fill: none"/>
    </g>
    <path d="M 168.653077 182.455595 
L 168.653077 183.848746 
L 170.746526 183.848746 
Q 173.255343 183.848746 174.268838 183.693299 
Q 175.282333 183.536875 175.282333 183.151681 
Q 175.282333 182.766487 174.268838 182.611041 
Q 173.255343 182.455595 170.746526 182.455595 
L 168.653077 182.455595 
z
M 163.546832 181.666631 
L 170.558227 181.666631 
Q 175.908153 181.666631 178.250822 182.01663 
Q 180.593492 182.366628 180.593492 183.151681 
Q 180.593492 183.936734 178.250822 184.286733 
Q 175.908153 184.636731 170.558227 184.636731 
L 168.653077 184.636731 
L 168.653077 186.412143 
L 163.546832 186.412143 
L 163.546832 181.666631 
z
" style="fill: #98d497"/>
   </g>
   <g id="text_68">
    <g id="patch_61">
     <path d="M 160.74449 194.77213 
L 204.09074 194.77213 
L 204.09074 125.08963 
L 160.74449 125.08963 
L 160.74449 194.77213 
z
" style="fill: none"/>
    </g>
    <path d="M 171.405575 179.085836 
L 175.957997 175.515189 
L 181.097471 175.515189 
L 174.955578 179.790453 
L 167.877725 179.790453 
L 161.730294 175.515189 
L 166.869768 175.515189 
L 171.405575 179.085836 
z
" style="fill: #88cc8d"/>
   </g>
   <g id="text_69">
    <g id="patch_62">
     <path d="M 160.74449 188.6556 
L 204.09074 188.6556 
L 204.09074 118.9731 
L 160.74449 118.9731 
L 160.74449 188.6556 
z
" style="fill: none"/>
    </g>
    <path d="M 164.637863 173.674337 
L 164.637863 169.622098 
L 169.744107 169.622098 
L 169.744107 172.96724 
L 180.665489 172.96724 
L 180.665489 173.674337 
L 164.637863 173.674337 
z
" style="fill: #82c989"/>
   </g>
   <g id="text_70">
    <g id="patch_63">
     <path d="M 160.74449 182.779067 
L 204.09074 182.779067 
L 204.09074 113.096567 
L 160.74449 113.096567 
L 160.74449 182.779067 
z
" style="fill: none"/>
    </g>
    <path d="M 162.234273 163.901551 
L 168.326321 163.901551 
L 171.405575 165.610602 
L 174.468214 163.901551 
L 180.593492 163.901551 
L 180.593492 167.798092 
L 176.201679 167.798092 
L 176.201679 164.677006 
L 173.465795 166.380438 
L 169.400737 166.380438 
L 166.631624 164.677006 
L 166.631624 167.798092 
L 162.234273 167.798092 
L 162.234273 163.901551 
z
" style="fill: #aad2a7"/>
   </g>
   <g id="text_71">
    <g id="patch_64">
     <path d="M 160.74449 177.070079 
L 204.09074 177.070079 
L 204.09074 107.387579 
L 160.74449 107.387579 
L 160.74449 177.070079 
z
" style="fill: none"/>
    </g>
    <path d="M 161.348157 158.379114 
L 165.557208 158.379114 
L 167.30175 161.102625 
L 169.417352 159.342241 
L 173.415951 159.342241 
L 175.852771 161.102625 
L 177.237327 158.379114 
L 181.479608 158.379114 
L 178.677266 162.089449 
L 174.174688 162.089449 
L 171.405575 160.142555 
L 168.808147 162.089449 
L 164.360952 162.089449 
L 161.348157 158.379114 
z
" style="fill: #a0d89c"/>
   </g>
   <g id="text_72">
    <g id="patch_65">
     <path d="M 160.74449 171.561466 
L 204.09074 171.561466 
L 204.09074 101.878966 
L 160.74449 101.878966 
L 160.74449 171.561466 
z
" style="fill: none"/>
    </g>
    <path d="M 163.724056 153.606716 
L 163.724056 152.978004 
L 179.109247 152.978004 
L 179.109247 153.606716 
L 173.969774 153.606716 
L 173.969774 155.952323 
L 179.109247 155.952323 
L 179.109247 156.581035 
L 163.724056 156.581035 
L 163.724056 155.952323 
L 168.863529 155.952323 
L 168.863529 153.606716 
L 163.724056 153.606716 
z
" style="fill: #a6d9a1"/>
   </g>
   <g id="text_73">
    <g id="patch_66">
     <path d="M 160.74449 166.168323 
L 204.09074 166.168323 
L 204.09074 96.485823 
L 160.74449 96.485823 
L 160.74449 166.168323 
z
" style="fill: none"/>
    </g>
    <path d="M 163.114851 147.923182 
L 168.221095 147.923182 
L 168.221095 149.167697 
L 174.60667 149.167697 
L 174.60667 147.923182 
L 179.712914 147.923182 
L 179.712914 151.188518 
L 174.60667 151.188518 
L 174.60667 149.735464 
L 168.221095 149.735464 
L 168.221095 151.188518 
L 163.114851 151.188518 
L 163.114851 147.923182 
z
" style="fill: #a0d89c"/>
   </g>
   <g id="text_74">
    <g id="patch_67">
     <path d="M 160.74449 161.138572 
L 204.09074 161.138572 
L 204.09074 91.456072 
L 160.74449 91.456072 
L 160.74449 161.138572 
z
" style="fill: none"/>
    </g>
    <path d="M 173.969774 146.16144 
L 168.863529 146.16144 
L 168.863529 144.652268 
L 162.300732 144.652268 
L 162.300732 144.337356 
L 180.527033 144.337356 
L 180.527033 144.652268 
L 173.969774 144.652268 
L 173.969774 146.16144 
z
" style="fill: #a7d7a3"/>
   </g>
   <g id="text_75">
    <g id="patch_68">
     <path d="M 160.74449 157.659746 
L 204.09074 157.659746 
L 204.09074 87.977246 
L 160.74449 87.977246 
L 160.74449 157.659746 
z
" style="fill: none"/>
    </g>
    <path d="M 169.572422 141.930236 
Q 165.712279 141.836733 164.344337 141.73409 
Q 162.976395 141.631447 162.976395 141.457799 
Q 162.976395 141.234937 165.224915 141.107689 
Q 167.478973 140.980088 171.405575 140.980088 
Q 173.188884 140.980088 174.972193 141.0061 
Q 176.755501 141.031761 178.500043 141.082028 
L 178.500043 141.398392 
Q 176.855189 141.324925 175.160492 141.28661 
Q 173.465795 141.247943 171.804327 141.247943 
Q 169.95456 141.247943 168.963217 141.295398 
Q 167.977413 141.342501 167.977413 141.43038 
Q 167.977413 141.498574 168.697383 141.543217 
Q 169.417352 141.587508 171.699101 141.64129 
L 173.897777 141.694017 
Q 177.015798 141.76643 178.483428 141.886297 
Q 179.956596 142.006164 179.956596 142.188249 
Q 179.956596 142.436771 177.641618 142.559098 
Q 175.332177 142.681426 170.663453 142.681426 
Q 168.741688 142.681426 166.808848 142.652602 
Q 164.881545 142.623426 163.081621 142.566129 
L 163.081621 142.231134 
Q 165.125227 142.323583 167.035915 142.368577 
Q 168.946603 142.413571 170.818523 142.413571 
Q 172.70152 142.413571 173.737168 142.359437 
Q 174.778355 142.304952 174.778355 142.206879 
Q 174.778355 142.133412 174.086076 142.077873 
Q 173.393798 142.022333 172.081239 141.990697 
L 169.572422 141.930236 
z
" style="fill: #acceab"/>
   </g>
   <g id="text_76">
    <g id="patch_69">
     <path d="M 160.74449 154.30771 
L 204.09074 154.30771 
L 204.09074 84.62521 
L 160.74449 84.62521 
L 160.74449 154.30771 
z
" style="fill: none"/>
    </g>
    <path d="M 179.452617 139.264072 
Q 178.239746 139.297254 176.905033 139.313699 
Q 175.575859 139.330143 174.108229 139.330143 
Q 168.880144 139.330143 166.127646 139.147787 
Q 163.375147 138.965137 163.375147 138.6201 
Q 163.375147 138.274181 166.127646 138.091531 
Q 168.880144 137.908881 174.108229 137.908881 
Q 175.575859 137.908881 176.927186 137.925326 
Q 178.278513 137.94177 179.452617 137.974952 
L 179.452617 138.275943 
Q 178.140058 138.211634 176.899495 138.181975 
Q 175.664471 138.152023 174.346373 138.152023 
Q 171.544031 138.152023 170.115168 138.27007 
Q 168.686306 138.387823 168.686306 138.6201 
Q 168.686306 138.851201 170.115168 138.969248 
Q 171.544031 139.087002 174.346373 139.087002 
Q 175.664471 139.087002 176.899495 139.057343 
Q 178.140058 139.027391 179.452617 138.963082 
L 179.452617 139.264072 
z
" style="fill: #b3c0b6"/>
   </g>
   <g id="text_77">
    <g id="patch_70">
     <path d="M 160.74449 151.257936 
L 204.09074 151.257936 
L 204.09074 81.575436 
L 160.74449 81.575436 
L 160.74449 151.257936 
z
" style="fill: none"/>
    </g>
    <path d="M 172.097853 136.110765 
Q 171.854171 136.113067 171.688025 136.113835 
Q 171.527416 136.114602 171.372346 136.114602 
Q 166.92515 136.114602 164.632325 135.979293 
Q 162.339499 135.843729 162.339499 135.57925 
Q 162.339499 135.313748 164.632325 135.177927 
Q 166.92515 135.042107 171.405575 135.042107 
Q 175.908153 135.042107 178.200978 135.177927 
Q 180.493804 135.313748 180.493804 135.57925 
Q 180.493804 135.761367 179.402773 135.884142 
Q 178.311743 136.006918 176.234908 136.059609 
L 179.452617 136.185965 
L 175.957997 136.289813 
L 172.097853 136.110765 
z
M 171.405575 135.225758 
Q 169.450581 135.225758 168.54785 135.309399 
Q 167.650658 135.39304 167.650658 135.57925 
Q 167.650658 135.764692 168.54785 135.848333 
Q 169.450581 135.931718 171.405575 135.931718 
Q 173.377184 135.931718 174.274376 135.848333 
Q 175.177107 135.764692 175.177107 135.57925 
Q 175.177107 135.39304 174.274376 135.309399 
Q 173.377184 135.225758 171.405575 135.225758 
z
" style="fill: #aec9ae"/>
   </g>
   <g id="text_78">
    <g id="patch_71">
     <path d="M 160.74449 148.469667 
L 204.09074 148.469667 
L 204.09074 78.787167 
L 160.74449 78.787167 
L 160.74449 148.469667 
z
" style="fill: none"/>
    </g>
    <path d="M 160.882946 132.31063 
L 166.387942 132.31063 
L 171.405575 132.785915 
L 176.439822 132.31063 
L 181.944819 132.31063 
L 173.969774 133.027457 
L 173.969774 133.493724 
L 168.863529 133.493724 
L 168.863529 133.027457 
L 160.882946 132.31063 
z
" style="fill: #afc7b0"/>
   </g>
   <g id="text_79">
    <g id="patch_72">
     <path d="M 160.74449 145.812718 
L 204.09074 145.812718 
L 204.09074 76.130218 
L 160.74449 76.130218 
L 160.74449 145.812718 
z
" style="fill: none"/>
    </g>
    <path d="M 179.746143 130.837771 
L 163.652059 130.837771 
L 163.652059 130.192035 
L 179.746143 130.192035 
L 179.746143 130.304713 
L 168.758303 130.304713 
L 168.758303 130.443598 
L 178.710495 130.443598 
L 178.710495 130.556276 
L 168.758303 130.556276 
L 168.758303 130.725093 
L 179.746143 130.725093 
L 179.746143 130.837771 
z
" style="fill: #b5bdb9"/>
   </g>
   <g id="text_80">
    <g id="patch_73">
     <path d="M 160.74449 144.362547 
L 204.09074 144.362547 
L 204.09074 74.680047 
L 160.74449 74.680047 
L 160.74449 144.362547 
z
" style="fill: none"/>
    </g>
    <path d="M 179.989825 128.858712 
L 169.001985 128.858712 
L 169.001985 128.996513 
L 179.004021 128.996513 
L 179.004021 129.108311 
L 169.001985 129.108311 
L 169.001985 129.387609 
L 163.895741 129.387609 
L 163.895741 128.746914 
L 179.989825 128.746914 
L 179.989825 128.858712 
z
" style="fill: #b4beb8"/>
   </g>
   <g id="text_81">
    <g id="patch_74">
     <path d="M 160.74449 142.923696 
L 204.09074 142.923696 
L 204.09074 73.241196 
L 160.74449 73.241196 
L 160.74449 142.923696 
z
" style="fill: none"/>
    </g>
    <path d="M 162.771481 127.828943 
L 167.877725 127.828943 
L 167.877725 127.876692 
L 175.869385 127.828943 
L 181.651293 127.828943 
L 173.499025 127.876543 
L 181.944819 127.949722 
L 176.268137 127.949722 
L 170.14286 127.895354 
L 167.877725 127.908816 
L 167.877725 127.949722 
L 162.771481 127.949722 
L 162.771481 127.828943 
z
" style="fill: #b8b8be"/>
   </g>
   <g id="text_82">
    <g id="patch_75">
     <path d="M 160.74449 142.652454 
L 204.09074 142.652454 
L 204.09074 72.969954 
L 160.74449 72.969954 
L 160.74449 142.652454 
z
" style="fill: none"/>
    </g>
    <path d="M 174.711896 127.644118 
Q 175.470633 127.644539 176.035532 127.646148 
Q 176.600431 127.647742 177.409012 127.652298 
L 182.083275 127.678569 
L 176.47859 127.678569 
L 173.360569 127.660148 
Q 173.222113 127.659336 173.000584 127.657983 
Q 171.632642 127.649712 169.777337 127.649712 
L 168.154636 127.649712 
L 168.154636 127.678569 
L 163.048392 127.678569 
L 163.048392 127.605577 
L 170.419771 127.605577 
Q 175.404174 127.605577 177.575159 127.610569 
Q 179.746143 127.615547 179.746143 127.626825 
Q 179.746143 127.634344 178.450199 127.638795 
Q 177.154254 127.643231 174.711896 127.644118 
z
M 168.154636 127.617712 
L 168.154636 127.637592 
L 170.558227 127.637592 
Q 172.651676 127.637592 173.559945 127.635291 
Q 174.468214 127.632975 174.468214 127.627622 
Q 174.468214 127.622314 173.565483 127.620013 
Q 172.668291 127.617712 170.558227 127.617712 
L 168.154636 127.617712 
z
" style="fill: #bab2c2"/>
   </g>
   <g id="text_83">
    <g id="patch_76">
     <path d="M 160.74449 142.488532 
L 204.09074 142.488532 
L 204.09074 72.806032 
L 160.74449 72.806032 
L 160.74449 142.488532 
z
" style="fill: none"/>
    </g>
    <path d="M 171.405575 127.514782 
L 169.001985 127.514782 
L 173.831318 127.514782 
L 171.405575 127.514782 
z
M 168.293092 127.514782 
L 174.540211 127.514782 
L 181.512837 127.514782 
L 176.406593 127.514782 
L 174.817122 127.514782 
L 167.977413 127.514782 
L 166.421172 127.514782 
L 161.314927 127.514782 
L 168.293092 127.514782 
z
" style="fill: #b3c0b7"/>
   </g>
   <g id="text_84">
    <g id="patch_77">
     <path d="M 160.74449 141.016489 
L 204.09074 141.016489 
L 204.09074 71.333989 
L 160.74449 71.333989 
L 160.74449 141.016489 
z
" style="fill: none"/>
    </g>
    <path d="M 162.80471 124.826646 
L 168.293092 124.826646 
L 175.492786 125.709145 
L 175.492786 124.826646 
L 179.989825 124.826646 
L 179.989825 126.040488 
L 174.540211 126.040488 
L 167.30175 125.157989 
L 167.30175 126.040488 
L 162.80471 126.040488 
L 162.80471 124.826646 
z
" style="fill: #c0a8cb"/>
   </g>
   <g id="text_85">
    <g id="patch_78">
     <path d="M 160.74449 138.074022 
L 204.09074 138.074022 
L 204.09074 68.391522 
L 160.74449 68.391522 
L 160.74449 138.074022 
z
" style="fill: none"/>
    </g>
    <path d="M 175.836156 122.325541 
L 175.836156 121.590456 
L 172.341535 121.590456 
L 172.341535 120.950354 
L 180.299966 120.950354 
L 180.299966 122.715384 
Q 178.832336 122.903698 177.054566 123.001159 
Q 175.282333 123.097794 173.255343 123.097794 
Q 168.23771 123.097794 165.501826 122.577453 
Q 162.771481 122.057111 162.771481 121.099849 
Q 162.771481 120.126893 165.529517 119.613159 
Q 168.293092 119.099425 173.499025 119.099425 
Q 175.055266 119.099425 176.561663 119.1655 
Q 178.068061 119.231575 179.386159 119.355466 
L 179.386159 120.198749 
Q 178.311743 119.992265 176.91611 119.888197 
Q 175.526015 119.783302 173.864547 119.783302 
Q 170.956979 119.783302 169.51704 120.110374 
Q 168.08264 120.43662 168.08264 121.099849 
Q 168.08264 121.742429 169.467196 122.078586 
Q 170.851752 122.413917 173.499025 122.413917 
Q 174.296529 122.413917 174.883581 122.392442 
Q 175.470633 122.370142 175.836156 122.325541 
z
" style="fill: #b9b5c0"/>
   </g>
   <g id="text_86">
    <g id="patch_79">
     <path d="M 160.74449 132.131603 
L 204.09074 132.131603 
L 204.09074 62.449103 
L 160.74449 62.449103 
L 160.74449 132.131603 
z
" style="fill: none"/>
    </g>
    <path d="M 168.221095 111.708224 
L 168.221095 115.964852 
L 169.605652 115.964852 
Q 172.618447 115.964852 173.897777 115.479471 
Q 175.177107 114.992726 175.177107 113.829721 
Q 175.177107 112.674896 173.897777 112.192242 
Q 172.618447 111.708224 169.605652 111.708224 
L 168.221095 111.708224 
z
M 163.114851 110.527494 
L 168.586618 110.527494 
Q 174.91681 110.527494 177.702538 111.301922 
Q 180.493804 112.074987 180.493804 113.829721 
Q 180.493804 115.589909 177.702538 116.368427 
Q 174.91681 117.145582 168.586618 117.145582 
L 163.114851 117.145582 
L 163.114851 110.527494 
z
" style="fill: #b793c5"/>
   </g>
   <g id="text_87">
    <g id="patch_80">
     <path d="M 201.86028 191.589225 
L 245.20653 191.589225 
L 245.20653 121.906725 
L 201.86028 121.906725 
L 201.86028 191.589225 
z
" style="fill: none"/>
    </g>
    <path d="M 203.88727 169.369604 
L 208.993515 169.369604 
L 208.993515 172.228915 
L 216.985175 169.369604 
L 222.767083 169.369604 
L 214.614814 172.219975 
L 223.060609 176.602065 
L 217.383927 176.602065 
L 211.258649 173.346415 
L 208.993515 174.152505 
L 208.993515 176.602065 
L 203.88727 176.602065 
L 203.88727 169.369604 
z
" style="fill: #80c888"/>
   </g>
   <g id="text_88">
    <g id="patch_81">
     <path d="M 201.86028 182.290469 
L 245.20653 182.290469 
L 245.20653 112.607969 
L 201.86028 112.607969 
L 201.86028 182.290469 
z
" style="fill: none"/>
    </g>
    <path d="M 220.861933 167.306711 
L 204.767848 167.306711 
L 204.767848 161.908953 
L 220.861933 161.908953 
L 220.861933 162.850836 
L 209.874093 162.850836 
L 209.874093 164.011788 
L 219.826285 164.011788 
L 219.826285 164.953671 
L 209.874093 164.953671 
L 209.874093 166.364828 
L 220.861933 166.364828 
L 220.861933 167.306711 
z
" style="fill: #75c281"/>
   </g>
   <g id="text_89">
    <g id="patch_82">
     <path d="M 201.86028 174.966028 
L 245.20653 174.966028 
L 245.20653 105.283528 
L 201.86028 105.283528 
L 201.86028 174.966028 
z
" style="fill: none"/>
    </g>
    <path d="M 209.336885 155.768423 
L 209.336885 159.067617 
L 210.721441 159.067617 
Q 213.734236 159.067617 215.013566 158.691411 
Q 216.292896 158.314149 216.292896 157.412736 
Q 216.292896 156.517664 215.013566 156.143572 
Q 213.734236 155.768423 210.721441 155.768423 
L 209.336885 155.768423 
z
M 204.23064 154.853272 
L 209.702408 154.853272 
Q 216.0326 154.853272 218.818327 155.45351 
Q 221.609593 156.052691 221.609593 157.412736 
Q 221.609593 158.777009 218.818327 159.380417 
Q 216.0326 159.982768 209.702408 159.982768 
L 204.23064 159.982768 
L 204.23064 154.853272 
z
" style="fill: #69bc79"/>
   </g>
   <g id="text_90">
    <g id="patch_83">
     <path d="M 201.86028 167.930264 
L 245.20653 167.930264 
L 245.20653 98.247764 
L 201.86028 98.247764 
L 201.86028 167.930264 
z
" style="fill: none"/>
    </g>
    <path d="M 220.568407 152.765099 
Q 219.355535 152.855981 218.020823 152.90102 
Q 216.691649 152.946058 215.224019 152.946058 
Q 209.995934 152.946058 207.243435 152.44661 
Q 204.490937 151.946356 204.490937 151.001344 
Q 204.490937 150.053919 207.243435 149.553666 
Q 209.995934 149.053413 215.224019 149.053413 
Q 216.691649 149.053413 218.042976 149.098452 
Q 219.394303 149.143491 220.568407 149.234373 
L 220.568407 150.058745 
Q 219.255847 149.882611 218.015285 149.80138 
Q 216.78026 149.719345 215.462163 149.719345 
Q 212.65982 149.719345 211.230958 150.04266 
Q 209.802096 150.36517 209.802096 151.001344 
Q 209.802096 151.634301 211.230958 151.957616 
Q 212.65982 152.280127 215.462163 152.280127 
Q 216.78026 152.280127 218.015285 152.198896 
Q 219.255847 152.116861 220.568407 151.940726 
L 220.568407 152.765099 
z
" style="fill: #a6d9a1"/>
   </g>
   <g id="text_91">
    <g id="patch_84">
     <path d="M 201.86028 162.213351 
L 245.20653 162.213351 
L 245.20653 92.530851 
L 201.86028 92.530851 
L 201.86028 162.213351 
z
" style="fill: none"/>
    </g>
    <path d="M 209.768866 145.318064 
L 209.768866 145.99316 
L 211.862316 145.99316 
Q 214.371132 145.99316 215.384627 145.917833 
Q 216.398123 145.842033 216.398123 145.655375 
Q 216.398123 145.468717 215.384627 145.39339 
Q 214.371132 145.318064 211.862316 145.318064 
L 209.768866 145.318064 
z
M 204.662622 144.935746 
L 211.674016 144.935746 
Q 217.023942 144.935746 219.366612 145.105349 
Q 221.709281 145.274952 221.709281 145.655375 
Q 221.709281 146.035798 219.366612 146.205401 
Q 217.023942 146.375004 211.674016 146.375004 
L 209.768866 146.375004 
L 209.768866 147.235338 
L 204.662622 147.235338 
L 204.662622 144.935746 
z
" style="fill: #a6d9a1"/>
   </g>
   <g id="text_92">
    <g id="patch_85">
     <path d="M 201.86028 158.222833 
L 245.20653 158.222833 
L 245.20653 88.540333 
L 201.86028 88.540333 
L 201.86028 158.222833 
z
" style="fill: none"/>
    </g>
    <path d="M 212.521365 143.024496 
L 217.073786 141.899061 
L 222.21326 141.899061 
L 216.071367 143.246585 
L 208.993515 143.246585 
L 202.846084 141.899061 
L 207.985558 141.899061 
L 212.521365 143.024496 
z
" style="fill: #b6babc"/>
   </g>
   <g id="text_93">
    <g id="patch_86">
     <path d="M 201.86028 155.256831 
L 245.20653 155.256831 
L 245.20653 85.574331 
L 201.86028 85.574331 
L 201.86028 155.256831 
z
" style="fill: none"/>
    </g>
    <path d="M 203.9205 139.072038 
L 209.408882 139.072038 
L 216.608575 139.950872 
L 216.608575 139.072038 
L 221.105615 139.072038 
L 221.105615 140.28084 
L 215.656 140.28084 
L 208.417539 139.402006 
L 208.417539 140.28084 
L 203.9205 140.28084 
L 203.9205 139.072038 
z
" style="fill: #abd0a9"/>
   </g>
   <g id="text_94">
    <g id="patch_87">
     <path d="M 201.86028 152.542147 
L 245.20653 152.542147 
L 245.20653 82.859647 
L 201.86028 82.859647 
L 201.86028 152.542147 
z
" style="fill: none"/>
    </g>
    <path d="M 216.951945 137.339188 
L 216.951945 137.121709 
L 213.457325 137.121709 
L 213.457325 136.932331 
L 221.415755 136.932331 
L 221.415755 137.454526 
Q 219.948126 137.510239 218.170355 137.539074 
Q 216.398123 137.567664 214.371132 137.567664 
Q 209.353499 137.567664 206.617616 137.413718 
Q 203.88727 137.259772 203.88727 136.97656 
Q 203.88727 136.688705 206.645307 136.536714 
Q 209.408882 136.384722 214.614814 136.384722 
Q 216.171055 136.384722 217.677453 136.404271 
Q 219.18385 136.42382 220.501948 136.460474 
L 220.501948 136.709964 
Q 219.427532 136.648874 218.031899 136.618085 
Q 216.641805 136.587052 214.980337 136.587052 
Q 212.072768 136.587052 210.63283 136.683818 
Q 209.198429 136.780339 209.198429 136.97656 
Q 209.198429 137.166671 210.582985 137.266125 
Q 211.967542 137.365335 214.614814 137.365335 
Q 215.412319 137.365335 215.99937 137.358981 
Q 216.586422 137.352384 216.951945 137.339188 
z
" style="fill: #aad2a7"/>
   </g>
   <g id="text_95">
    <g id="patch_88">
     <path d="M 201.86028 149.878405 
L 245.20653 149.878405 
L 245.20653 80.195905 
L 201.86028 80.195905 
L 201.86028 149.878405 
z
" style="fill: none"/>
    </g>
    <path d="M 212.521365 134.068265 
L 210.117775 134.486146 
L 214.947108 134.486146 
L 212.521365 134.068265 
z
M 209.408882 133.883634 
L 215.656 133.883634 
L 222.628627 134.904655 
L 217.522383 134.904655 
L 215.932912 134.651915 
L 209.093203 134.651915 
L 207.536961 134.904655 
L 202.430717 134.904655 
L 209.408882 133.883634 
z
" style="fill: #adcbad"/>
   </g>
   <g id="text_96">
    <g id="patch_89">
     <path d="M 201.86028 147.593904 
L 245.20653 147.593904 
L 245.20653 77.911404 
L 201.86028 77.911404 
L 201.86028 147.593904 
z
" style="fill: none"/>
    </g>
    <path d="M 204.839845 131.956193 
L 204.839845 131.816159 
L 220.225037 131.816159 
L 220.225037 131.956193 
L 215.085563 131.956193 
L 215.085563 132.478633 
L 220.225037 132.478633 
L 220.225037 132.618666 
L 204.839845 132.618666 
L 204.839845 132.478633 
L 209.979319 132.478633 
L 209.979319 131.956193 
L 204.839845 131.956193 
z
" style="fill: #b4bfb8"/>
   </g>
   <g id="text_97">
    <g id="patch_90">
     <path d="M 201.86028 145.791662 
L 245.20653 145.791662 
L 245.20653 76.109162 
L 201.86028 76.109162 
L 201.86028 145.791662 
z
" style="fill: none"/>
    </g>
    <path d="M 205.753652 130.816663 
L 205.753652 130.143202 
L 210.859897 130.143202 
L 210.859897 130.699147 
L 221.781278 130.699147 
L 221.781278 130.816663 
L 205.753652 130.816663 
z
" style="fill: #b5bdb9"/>
   </g>
   <g id="text_98">
    <g id="patch_91">
     <path d="M 201.86028 144.279227 
L 245.20653 144.279227 
L 245.20653 74.596727 
L 201.86028 74.596727 
L 201.86028 144.279227 
z
" style="fill: none"/>
    </g>
    <path d="M 215.827685 129.111503 
Q 216.586422 129.113865 217.151321 129.122889 
Q 217.716221 129.131828 218.524801 129.157382 
L 223.199064 129.304718 
L 217.59438 129.304718 
L 214.476358 129.201406 
Q 214.337903 129.196852 214.116374 129.189261 
Q 212.748432 129.142876 210.893126 129.142876 
L 209.270426 129.142876 
L 209.270426 129.304718 
L 204.164182 129.304718 
L 204.164182 128.895349 
L 211.53556 128.895349 
Q 216.519964 128.895349 218.690948 128.923348 
Q 220.861933 128.951264 220.861933 129.014516 
Q 220.861933 129.056684 219.565988 129.081648 
Q 218.270043 129.106527 215.827685 129.111503 
z
M 209.270426 128.963408 
L 209.270426 129.074901 
L 211.674016 129.074901 
Q 213.767465 129.074901 214.675734 129.061998 
Q 215.584004 129.04901 215.584004 129.018986 
Q 215.584004 128.989215 214.681273 128.976312 
Q 213.78408 128.963408 211.674016 128.963408 
L 209.270426 128.963408 
z
" style="fill: #b3c0b6"/>
   </g>
   <g id="text_99">
    <g id="patch_92">
     <path d="M 201.86028 143.35988 
L 245.20653 143.35988 
L 245.20653 73.67738 
L 201.86028 73.67738 
L 201.86028 143.35988 
z
" style="fill: none"/>
    </g>
    <path d="M 213.213643 128.331935 
Q 212.969961 128.332654 212.803814 128.332894 
Q 212.643206 128.333134 212.488135 128.333134 
Q 208.04094 128.333134 205.748114 128.290849 
Q 203.455289 128.248485 203.455289 128.165834 
Q 203.455289 128.082863 205.748114 128.040418 
Q 208.04094 127.997974 212.521365 127.997974 
Q 217.023942 127.997974 219.316768 128.040418 
Q 221.609593 128.082863 221.609593 128.165834 
Q 221.609593 128.222746 220.518563 128.261114 
Q 219.427532 128.299482 217.350698 128.315948 
L 220.568407 128.355435 
L 217.073786 128.387888 
L 213.213643 128.331935 
z
M 212.521365 128.055366 
Q 210.566371 128.055366 209.66364 128.081504 
Q 208.766447 128.107642 208.766447 128.165834 
Q 208.766447 128.223785 209.66364 128.249923 
Q 210.566371 128.275982 212.521365 128.275982 
Q 214.492973 128.275982 215.390166 128.249923 
Q 216.292896 128.223785 216.292896 128.165834 
Q 216.292896 128.107642 215.390166 128.081504 
Q 214.492973 128.055366 212.521365 128.055366 
z
" style="fill: #b3c0b7"/>
   </g>
   <g id="text_100">
    <g id="patch_93">
     <path d="M 201.86028 142.488532 
L 245.20653 142.488532 
L 245.20653 72.806032 
L 201.86028 72.806032 
L 201.86028 142.488532 
z
" style="fill: none"/>
    </g>
    <path d="M 210.688212 127.514782 
Q 206.828068 127.514782 205.460126 127.514782 
Q 204.092185 127.514782 204.092185 127.514782 
Q 204.092185 127.514782 206.340704 127.514782 
Q 208.594762 127.514782 212.521365 127.514782 
Q 214.304673 127.514782 216.087982 127.514782 
Q 217.871291 127.514782 219.615832 127.514782 
L 219.615832 127.514782 
Q 217.970979 127.514782 216.276282 127.514782 
Q 214.581585 127.514782 212.920117 127.514782 
Q 211.070349 127.514782 210.079007 127.514782 
Q 209.093203 127.514782 209.093203 127.514782 
Q 209.093203 127.514782 209.813172 127.514782 
Q 210.533141 127.514782 212.814891 127.514782 
L 215.013566 127.514782 
Q 218.131587 127.514782 219.599217 127.514782 
Q 221.072385 127.514782 221.072385 127.514782 
Q 221.072385 127.514782 218.757407 127.514782 
Q 216.447967 127.514782 211.779242 127.514782 
Q 209.857478 127.514782 207.924637 127.514782 
Q 205.997334 127.514782 204.197411 127.514782 
L 204.197411 127.514782 
Q 206.241016 127.514782 208.151704 127.514782 
Q 210.062392 127.514782 211.934313 127.514782 
Q 213.817309 127.514782 214.852958 127.514782 
Q 215.894144 127.514782 215.894144 127.514782 
Q 215.894144 127.514782 215.201866 127.514782 
Q 214.509588 127.514782 213.197028 127.514782 
L 210.688212 127.514782 
z
" style="fill: #b3c0b7"/>
   </g>
   <g id="text_101">
    <g id="patch_94">
     <path d="M 201.86028 142.432034 
L 245.20653 142.432034 
L 245.20653 72.749534 
L 201.86028 72.749534 
L 201.86028 142.432034 
z
" style="fill: none"/>
    </g>
    <path d="M 215.085563 127.458198 
L 209.979319 127.458198 
L 209.979319 127.419653 
L 203.416521 127.419653 
L 203.416521 127.41161 
L 221.642823 127.41161 
L 221.642823 127.419653 
L 215.085563 127.419653 
L 215.085563 127.458198 
z
" style="fill: #b7b8bd"/>
   </g>
   <g id="text_102">
    <g id="patch_95">
     <path d="M 201.86028 142.203691 
L 245.20653 142.203691 
L 245.20653 72.521191 
L 201.86028 72.521191 
L 201.86028 142.203691 
z
" style="fill: none"/>
    </g>
    <path d="M 203.350062 127.081061 
L 209.442111 127.081061 
L 212.521365 127.14624 
L 215.584004 127.081061 
L 221.709281 127.081061 
L 221.709281 127.229666 
L 217.317468 127.229666 
L 217.317468 127.110635 
L 214.581585 127.1756 
L 210.516527 127.1756 
L 207.747414 127.110635 
L 207.747414 127.229666 
L 203.350062 127.229666 
L 203.350062 127.081061 
z
" style="fill: #b3c0b6"/>
   </g>
   <g id="text_103">
    <g id="patch_96">
     <path d="M 201.86028 140.448431 
L 245.20653 140.448431 
L 245.20653 70.765931 
L 201.86028 70.765931 
L 201.86028 140.448431 
z
" style="fill: none"/>
    </g>
    <path d="M 201.998735 123.477528 
L 207.503732 123.477528 
L 212.521365 124.27836 
L 217.555612 123.477528 
L 223.060609 123.477528 
L 215.085563 124.685348 
L 215.085563 125.470985 
L 209.979319 125.470985 
L 209.979319 124.685348 
L 201.998735 123.477528 
z
" style="fill: #bab3c2"/>
   </g>
   <g id="text_104">
    <g id="patch_97">
     <path d="M 201.86028 136.752838 
L 245.20653 136.752838 
L 245.20653 67.070338 
L 201.86028 67.070338 
L 201.86028 136.752838 
z
" style="fill: none"/>
    </g>
    <path d="M 202.463946 118.978817 
L 206.672998 118.978817 
L 208.417539 121.030506 
L 210.533141 119.704365 
L 214.531741 119.704365 
L 216.96856 121.030506 
L 218.353116 118.978817 
L 222.595398 118.978817 
L 219.793055 121.773905 
L 215.290478 121.773905 
L 212.521365 120.307261 
L 209.923937 121.773905 
L 205.476741 121.773905 
L 202.463946 118.978817 
z
" style="fill: #ab80bc"/>
   </g>
   <g id="text_105">
    <g id="patch_98">
     <path d="M 201.86028 132.197511 
L 245.20653 132.197511 
L 245.20653 62.515011 
L 201.86028 62.515011 
L 201.86028 132.197511 
z
" style="fill: none"/>
    </g>
    <path d="M 221.105615 114.303689 
L 210.117775 114.303689 
L 210.117775 115.062791 
L 220.119811 115.062791 
L 220.119811 115.678653 
L 210.117775 115.678653 
L 210.117775 117.217217 
L 205.01153 117.217217 
L 205.01153 113.687827 
L 221.105615 113.687827 
L 221.105615 114.303689 
z
" style="fill: #bfa0cc"/>
   </g>
   <g id="text_106">
    <g id="patch_99">
     <path d="M 201.86028 126.816459 
L 245.20653 126.816459 
L 245.20653 57.133959 
L 201.86028 57.133959 
L 201.86028 126.816459 
z
" style="fill: none"/>
    </g>
    <path d="M 204.23064 106.743753 
L 209.336885 106.743753 
L 209.336885 108.683516 
L 215.722459 108.683516 
L 215.722459 106.743753 
L 220.828703 106.743753 
L 220.828703 111.833272 
L 215.722459 111.833272 
L 215.722459 109.568468 
L 209.336885 109.568468 
L 209.336885 111.833272 
L 204.23064 111.833272 
L 204.23064 106.743753 
z
" style="fill: #b692c5"/>
   </g>
   <g id="text_107">
    <g id="patch_100">
     <path d="M 242.976069 156.296064 
L 286.322319 156.296064 
L 286.322319 86.613564 
L 242.976069 86.613564 
L 242.976069 156.296064 
z
" style="fill: none"/>
    </g>
    <path d="M 256.943475 139.145002 
Q 257.702212 139.171508 258.267111 139.272801 
Q 258.83201 139.373146 259.640591 139.659984 
L 264.314854 141.313794 
L 258.710169 141.313794 
L 255.592148 140.154139 
Q 255.453692 140.103019 255.232163 140.01782 
Q 253.864221 139.497159 252.008916 139.497159 
L 250.386215 139.497159 
L 250.386215 141.313794 
L 245.279971 141.313794 
L 245.279971 136.718719 
L 252.65135 136.718719 
Q 257.635753 136.718719 259.806738 137.033009 
Q 261.977722 137.346353 261.977722 138.056346 
Q 261.977722 138.529675 260.681777 138.809885 
Q 259.385833 139.089149 256.943475 139.145002 
z
M 250.386215 137.482672 
L 250.386215 138.734153 
L 252.789805 138.734153 
Q 254.883255 138.734153 255.791524 138.589314 
Q 256.699793 138.443529 256.699793 138.106519 
Q 256.699793 137.772349 255.797062 137.62751 
Q 254.89987 137.482672 252.789805 137.482672 
L 250.386215 137.482672 
z
" style="fill: #008837"/>
   </g>
   <g id="text_108">
    <g id="patch_101">
     <path d="M 242.976069 149.835387 
L 286.322319 149.835387 
L 286.322319 80.152887 
L 242.976069 80.152887 
L 242.976069 149.835387 
z
" style="fill: none"/>
    </g>
    <path d="M 245.036289 132.700066 
L 250.524671 132.700066 
L 257.724365 134.268683 
L 257.724365 132.700066 
L 262.221404 132.700066 
L 262.221404 134.857636 
L 256.77179 134.857636 
L 249.533329 133.289019 
L 249.533329 134.857636 
L 245.036289 134.857636 
L 245.036289 132.700066 
z
" style="fill: #aecbad"/>
   </g>
   <g id="text_109">
    <g id="patch_102">
     <path d="M 242.976069 145.997697 
L 286.322319 145.997697 
L 286.322319 76.315197 
L 242.976069 76.315197 
L 242.976069 145.997697 
z
" style="fill: none"/>
    </g>
    <path d="M 250.452674 130.144375 
L 250.452674 130.831396 
L 251.837231 130.831396 
Q 254.850026 130.831396 256.129356 130.753056 
Q 257.408686 130.674495 257.408686 130.486786 
Q 257.408686 130.300396 256.129356 130.222496 
Q 254.850026 130.144375 251.837231 130.144375 
L 250.452674 130.144375 
z
M 245.34643 129.953805 
L 250.818197 129.953805 
Q 257.148389 129.953805 259.934117 130.078798 
Q 262.725383 130.203571 262.725383 130.486786 
Q 262.725383 130.77088 259.934117 130.896533 
Q 257.148389 131.021967 250.818197 131.021967 
L 245.34643 131.021967 
L 245.34643 129.953805 
z
" style="fill: #afc8b0"/>
   </g>
   <g id="text_110">
    <g id="patch_103">
     <path d="M 242.976069 143.598858 
L 286.322319 143.598858 
L 286.322319 73.916358 
L 242.976069 73.916358 
L 242.976069 143.598858 
z
" style="fill: none"/>
    </g>
    <path d="M 246.869442 128.624191 
L 246.869442 128.129782 
L 251.975686 128.129782 
L 251.975686 128.537919 
L 262.897068 128.537919 
L 262.897068 128.624191 
L 246.869442 128.624191 
z
" style="fill: #afc7b0"/>
   </g>
   <g id="text_111">
    <g id="patch_104">
     <path d="M 242.976069 142.488532 
L 286.322319 142.488532 
L 286.322319 72.806032 
L 242.976069 72.806032 
L 242.976069 142.488532 
z
" style="fill: none"/>
    </g>
    <path d="M 245.34643 127.514782 
L 250.452674 127.514782 
L 250.452674 127.514782 
L 256.838249 127.514782 
L 256.838249 127.514782 
L 261.944493 127.514782 
L 261.944493 127.514782 
L 256.838249 127.514782 
L 256.838249 127.514782 
L 250.452674 127.514782 
L 250.452674 127.514782 
L 245.34643 127.514782 
L 245.34643 127.514782 
z
" style="fill: #b3c0b7"/>
   </g>
   <g id="text_112">
    <g id="patch_105">
     <path d="M 242.976069 142.466035 
L 286.322319 142.466035 
L 286.322319 72.783535 
L 242.976069 72.783535 
L 242.976069 142.466035 
z
" style="fill: none"/>
    </g>
    <path d="M 254.329432 127.489694 
Q 254.08575 127.489729 253.919604 127.48974 
Q 253.758995 127.489752 253.603925 127.489752 
Q 249.156729 127.489752 246.863904 127.48773 
Q 244.571078 127.485704 244.571078 127.481753 
Q 244.571078 127.477786 246.863904 127.475757 
Q 249.156729 127.473727 253.637154 127.473727 
Q 258.139732 127.473727 260.432557 127.475757 
Q 262.725383 127.477786 262.725383 127.481753 
Q 262.725383 127.484474 261.634352 127.486308 
Q 260.543322 127.488143 258.466487 127.48893 
L 261.684196 127.490818 
L 258.189576 127.492369 
L 254.329432 127.489694 
z
M 253.637154 127.476471 
Q 251.68216 127.476471 250.779429 127.477721 
Q 249.882237 127.478971 249.882237 127.481753 
Q 249.882237 127.484523 250.779429 127.485773 
Q 251.68216 127.487019 253.637154 127.487019 
Q 255.608762 127.487019 256.505955 127.485773 
Q 257.408686 127.484523 257.408686 127.481753 
Q 257.408686 127.478971 256.505955 127.477721 
Q 255.608762 127.476471 253.637154 127.476471 
z
" style="fill: #b3c1b6"/>
   </g>
   <g id="text_113">
    <g id="patch_106">
     <path d="M 242.976069 140.715349 
L 286.322319 140.715349 
L 286.322319 71.032849 
L 242.976069 71.032849 
L 242.976069 140.715349 
z
" style="fill: none"/>
    </g>
    <path d="M 243.114525 120.723798 
L 248.619521 120.723798 
L 253.637154 122.735871 
L 258.671401 120.723798 
L 264.176398 120.723798 
L 256.201353 123.758417 
L 256.201353 125.732312 
L 251.095108 125.732312 
L 251.095108 123.758417 
L 243.114525 120.723798 
z
" style="fill: #a779b8"/>
   </g>
   <g id="text_114">
    <g id="patch_107">
     <path d="M 263.533964 163.207528 
L 306.880214 163.207528 
L 306.880214 93.525028 
L 263.533964 93.525028 
L 263.533964 163.207528 
z
" style="fill: none"/>
    </g>
    <path d="M 276.759247 148.223134 
L 271.653003 148.223134 
L 271.653003 143.473505 
L 265.090205 143.473505 
L 265.090205 142.482422 
L 283.316507 142.482422 
L 283.316507 143.473505 
L 276.759247 143.473505 
L 276.759247 148.223134 
z
" style="fill: #259a4e"/>
   </g>
   <g id="text_115">
    <g id="patch_108">
     <path d="M 263.533964 155.514036 
L 306.880214 155.514036 
L 306.880214 85.831536 
L 263.533964 85.831536 
L 263.533964 155.514036 
z
" style="fill: none"/>
    </g>
    <path d="M 274.195049 139.801967 
L 278.747471 136.102162 
L 283.886944 136.102162 
L 277.745052 140.532072 
L 270.667199 140.532072 
L 264.519768 136.102162 
L 269.659242 136.102162 
L 274.195049 139.801967 
z
" style="fill: #21984c"/>
   </g>
   <g id="text_116">
    <g id="patch_109">
     <path d="M 263.533964 149.231092 
L 306.880214 149.231092 
L 306.880214 79.548592 
L 263.533964 79.548592 
L 263.533964 149.231092 
z
" style="fill: none"/>
    </g>
    <path d="M 271.44255 131.273902 
L 271.44255 132.322078 
L 273.536 132.322078 
Q 276.044816 132.322078 277.058312 132.205124 
Q 278.071807 132.087434 278.071807 131.797622 
Q 278.071807 131.507811 277.058312 131.390857 
Q 276.044816 131.273902 273.536 131.273902 
L 271.44255 131.273902 
z
M 266.336306 130.680304 
L 273.3477 130.680304 
Q 278.697626 130.680304 281.040296 130.943635 
Q 283.382966 131.206966 283.382966 131.797622 
Q 283.382966 132.388279 281.040296 132.65161 
Q 278.697626 132.914941 273.3477 132.914941 
L 271.44255 132.914941 
L 271.44255 134.250722 
L 266.336306 134.250722 
L 266.336306 130.680304 
z
" style="fill: #79c483"/>
   </g>
   <g id="text_117">
    <g id="patch_110">
     <path d="M 263.533964 143.873043 
L 306.880214 143.873043 
L 306.880214 74.190543 
L 263.533964 74.190543 
L 263.533964 143.873043 
z
" style="fill: none"/>
    </g>
    <path d="M 282.535617 128.89815 
L 266.441532 128.89815 
L 266.441532 128.281651 
L 282.535617 128.281651 
L 282.535617 128.389227 
L 271.547777 128.389227 
L 271.547777 128.521824 
L 281.499969 128.521824 
L 281.499969 128.6294 
L 271.547777 128.6294 
L 271.547777 128.790574 
L 282.535617 128.790574 
L 282.535617 128.89815 
z
" style="fill: #b5bdb9"/>
   </g>
   <g id="text_118">
    <g id="patch_111">
     <path d="M 263.533964 142.488532 
L 306.880214 142.488532 
L 306.880214 72.806032 
L 263.533964 72.806032 
L 263.533964 142.488532 
z
" style="fill: none"/>
    </g>
    <path d="M 274.195049 127.514782 
L 271.791459 127.514782 
L 276.620792 127.514782 
L 274.195049 127.514782 
z
M 271.082566 127.514782 
L 277.329685 127.514782 
L 284.302311 127.514782 
L 279.196067 127.514782 
L 277.606596 127.514782 
L 270.766887 127.514782 
L 269.210645 127.514782 
L 264.104401 127.514782 
L 271.082566 127.514782 
z
" style="fill: #b3c0b7"/>
   </g>
   <g id="text_119">
    <g id="patch_112">
     <path d="M 263.533964 141.800193 
L 306.880214 141.800193 
L 306.880214 72.117693 
L 263.533964 72.117693 
L 263.533964 141.800193 
z
" style="fill: none"/>
    </g>
    <path d="M 272.361896 126.575032 
Q 268.501752 126.543928 267.133811 126.509783 
Q 265.765869 126.475638 265.765869 126.417872 
Q 265.765869 126.343735 268.014389 126.301405 
Q 270.268447 126.258957 274.195049 126.258957 
Q 275.978358 126.258957 277.761666 126.26761 
Q 279.544975 126.276147 281.289516 126.292868 
L 281.289516 126.39811 
Q 279.644663 126.37367 277.949966 126.360924 
Q 276.255269 126.348062 274.593801 126.348062 
Q 272.744034 126.348062 271.752691 126.363848 
Q 270.766887 126.379517 270.766887 126.408751 
Q 270.766887 126.431436 271.486856 126.446287 
Q 272.206826 126.461021 274.488575 126.478912 
L 276.68725 126.496452 
Q 279.805272 126.520541 281.272902 126.560416 
Q 282.74607 126.60029 282.74607 126.660863 
Q 282.74607 126.743536 280.431091 126.784229 
Q 278.121651 126.824923 273.452926 126.824923 
Q 271.531162 126.824923 269.598321 126.815334 
Q 267.671019 126.805628 265.871095 126.786568 
L 265.871095 126.675129 
Q 267.914701 126.705883 269.825388 126.72085 
Q 271.736076 126.735818 273.607997 126.735818 
Q 275.490994 126.735818 276.526642 126.71781 
Q 277.567828 126.699685 277.567828 126.66706 
Q 277.567828 126.642621 276.87555 126.624145 
Q 276.183272 126.605669 274.870712 126.595145 
L 272.361896 126.575032 
z
" style="fill: #abd0a9"/>
   </g>
   <g id="text_120">
    <g id="patch_113">
     <path d="M 263.533964 139.475786 
L 306.880214 139.475786 
L 306.880214 69.793286 
L 263.533964 69.793286 
L 263.533964 139.475786 
z
" style="fill: none"/>
    </g>
    <path d="M 278.62563 123.504903 
L 278.62563 122.558796 
L 275.131009 122.558796 
L 275.131009 121.734939 
L 283.08944 121.734939 
L 283.08944 124.006659 
Q 281.62181 124.249032 279.844039 124.374471 
Q 278.071807 124.498847 276.044816 124.498847 
Q 271.027184 124.498847 268.2913 123.829131 
Q 265.560955 123.159415 265.560955 121.92735 
Q 265.560955 120.675087 268.318991 120.013875 
Q 271.082566 119.352663 276.288498 119.352663 
Q 277.84474 119.352663 279.351137 119.437706 
Q 280.857535 119.52275 282.175632 119.682206 
L 282.175632 120.767571 
Q 281.101217 120.501811 279.705584 120.367868 
Q 278.315489 120.232861 276.654021 120.232861 
Q 273.746452 120.232861 272.306514 120.653826 
Q 270.872113 121.073727 270.872113 121.92735 
Q 270.872113 122.754396 272.25667 123.187054 
Q 273.641226 123.618649 276.288498 123.618649 
Q 277.086003 123.618649 277.673055 123.59101 
Q 278.260107 123.562307 278.62563 123.504903 
z
" style="fill: #beabc8"/>
   </g>
   <g id="line2d_15">
    <path d="M 53.843438 127.514782 
L 288.203437 127.514782 
" clip-path="url(#p25c204d92e)" style="fill: none; stroke: #000000; stroke-linecap: square"/>
   </g>
  </g>
 </g>
 <defs>
  <clipPath id="p25c204d92e">
   <rect x="53.843438" y="50.76625" width="234.36" height="138.6"/>
  </clipPath>
 </defs>
</svg>
