<?xml version="1.0" encoding="utf-8" standalone="no"?>
<!DOCTYPE svg PUBLIC "-//W3C//DTD SVG 1.1//EN"
  "http://www.w3.org/Graphics/SVG/1.1/DTD/svg11.dtd">
<svg xmlns:xlink="http://www.w3.org/1999/xlink" width="314.080214pt" height="235.604688pt" viewBox="0 0 314.080214 235.604688" xmlns="http://www.w3.org/2000/svg" version="1.1">
 <metadata>
  <rdf:RDF xmlns:dc="http://purl.org/dc/elements/1.1/" xmlns:cc="http://creativecommons.org/ns#" xmlns:rdf="http://www.w3.org/1999/02/22-rdf-syntax-ns#">
   <cc:Work>
    <dc:type rdf:resource="http://purl.org/dc/dcmitype/StillImage"/>
    <dc:date>2023-10-21T21:34:11.873865</dc:date>
    <dc:format>image/svg+xml</dc:format>
    <dc:creator>
     <cc:Agent>
      <dc:title>Matplotlib v3.8.0, https://matplotlib.org/</dc:title>
     </cc:Agent>
    </dc:creator>
   </cc:Work>
  </rdf:RDF>
 </metadata>
 <defs>
  <style type="text/css">*{stroke-linejoin: round; stroke-linecap: butt}</style>
 </defs>
 <g id="figure_1">
  <g id="patch_1">
   <path d="M 0 235.604688 
L 314.080214 235.604688 
L 314.080214 0 
L 0 0 
z
" style="fill: #ffffff"/>
  </g>
  <g id="axes_1">
   <g id="patch_2">
    <path d="M 53.843438 187.701563 
L 288.203437 187.701563 
L 288.203437 49.101563 
L 53.843438 49.101563 
z
" style="fill: #ffffff"/>
   </g>
   <g id="matplotlib.axis_1">
    <g id="xtick_1">
     <g id="line2d_1">
      <defs>
       <path id="m202ab43fe0" d="M 0 0 
L 0 5 
" style="stroke: #000000"/>
      </defs>
      <g>
       <use xlink:href="#m202ab43fe0" x="68.233964" y="187.701563" style="stroke: #000000"/>
      </g>
     </g>
     <g id="text_1">
      <text style="font: 12px 'DejaVu Sans', 'Bitstream Vera Sans', 'Computer Modern Sans Serif', 'Lucida Grande', 'Verdana', 'Geneva', 'Lucid', 'Arial', 'Helvetica', 'Avant Garde', sans-serif" transform="translate(71.545214 228.346563) rotate(-90)">D420</text>
     </g>
    </g>
    <g id="xtick_2">
     <g id="line2d_2">
      <g>
       <use xlink:href="#m202ab43fe0" x="88.791859" y="187.701563" style="stroke: #000000"/>
      </g>
     </g>
     <g id="text_2">
      <text style="font: 12px 'DejaVu Sans', 'Bitstream Vera Sans', 'Computer Modern Sans Serif', 'Lucida Grande', 'Verdana', 'Geneva', 'Lucid', 'Arial', 'Helvetica', 'Avant Garde', sans-serif" transform="translate(92.103109 226.435938) rotate(-90)">Y421</text>
     </g>
    </g>
    <g id="xtick_3">
     <g id="line2d_3">
      <g>
       <use xlink:href="#m202ab43fe0" x="129.907648" y="187.701563" style="stroke: #000000"/>
      </g>
     </g>
     <g id="text_3">
      <text style="font: 12px 'DejaVu Sans', 'Bitstream Vera Sans', 'Computer Modern Sans Serif', 'Lucida Grande', 'Verdana', 'Geneva', 'Lucid', 'Arial', 'Helvetica', 'Avant Garde', sans-serif" transform="translate(133.218898 225.792813) rotate(-90)">L455</text>
     </g>
    </g>
    <g id="xtick_4">
     <g id="line2d_4">
      <g>
       <use xlink:href="#m202ab43fe0" x="150.465543" y="187.701563" style="stroke: #000000"/>
      </g>
     </g>
     <g id="text_4">
      <text style="font: 12px 'DejaVu Sans', 'Bitstream Vera Sans', 'Computer Modern Sans Serif', 'Lucida Grande', 'Verdana', 'Geneva', 'Lucid', 'Arial', 'Helvetica', 'Avant Garde', sans-serif" transform="translate(153.776793 226.008438) rotate(-90)">F456</text>
     </g>
    </g>
    <g id="xtick_5">
     <g id="line2d_5">
      <g>
       <use xlink:href="#m202ab43fe0" x="191.581332" y="187.701563" style="stroke: #000000"/>
      </g>
     </g>
     <g id="text_5">
      <text style="font: 12px 'DejaVu Sans', 'Bitstream Vera Sans', 'Computer Modern Sans Serif', 'Lucida Grande', 'Verdana', 'Geneva', 'Lucid', 'Arial', 'Helvetica', 'Avant Garde', sans-serif" transform="translate(194.892582 226.435938) rotate(-90)">Y473</text>
     </g>
    </g>
    <g id="xtick_6">
     <g id="line2d_6">
      <g>
       <use xlink:href="#m202ab43fe0" x="232.697122" y="187.701563" style="stroke: #000000"/>
      </g>
     </g>
     <g id="text_6">
      <text style="font: 12px 'DejaVu Sans', 'Bitstream Vera Sans', 'Computer Modern Sans Serif', 'Lucida Grande', 'Verdana', 'Geneva', 'Lucid', 'Arial', 'Helvetica', 'Avant Garde', sans-serif" transform="translate(236.008372 227.315313) rotate(-90)">A475</text>
     </g>
    </g>
    <g id="xtick_7">
     <g id="line2d_7">
      <g>
       <use xlink:href="#m202ab43fe0" x="273.812911" y="187.701563" style="stroke: #000000"/>
      </g>
     </g>
     <g id="text_7">
      <text style="font: 12px 'DejaVu Sans', 'Bitstream Vera Sans', 'Computer Modern Sans Serif', 'Lucida Grande', 'Verdana', 'Geneva', 'Lucid', 'Arial', 'Helvetica', 'Avant Garde', sans-serif" transform="translate(277.124161 228.404688) rotate(-90)">G504</text>
     </g>
    </g>
   </g>
   <g id="matplotlib.axis_2">
    <g id="ytick_1">
     <g id="line2d_8">
      <defs>
       <path id="mdcbf5bd319" d="M 0 0 
L -5 0 
" style="stroke: #000000"/>
      </defs>
      <g>
       <use xlink:href="#mdcbf5bd319" x="53.843438" y="170.434554" style="stroke: #000000"/>
      </g>
     </g>
     <g id="text_8">
      <text style="font: 12px 'DejaVu Sans', 'Bitstream Vera Sans', 'Computer Modern Sans Serif', 'Lucida Grande', 'Verdana', 'Geneva', 'Lucid', 'Arial', 'Helvetica', 'Avant Garde', sans-serif; text-anchor: end" x="45.343438" y="174.993617" transform="rotate(-0 45.343438 174.993617)">−3</text>
     </g>
    </g>
    <g id="ytick_2">
     <g id="line2d_9">
      <g>
       <use xlink:href="#mdcbf5bd319" x="53.843438" y="134.805549" style="stroke: #000000"/>
      </g>
     </g>
     <g id="text_9">
      <text style="font: 12px 'DejaVu Sans', 'Bitstream Vera Sans', 'Computer Modern Sans Serif', 'Lucida Grande', 'Verdana', 'Geneva', 'Lucid', 'Arial', 'Helvetica', 'Avant Garde', sans-serif; text-anchor: end" x="45.343438" y="139.364612" transform="rotate(-0 45.343438 139.364612)">0</text>
     </g>
    </g>
    <g id="ytick_3">
     <g id="line2d_10">
      <g>
       <use xlink:href="#mdcbf5bd319" x="53.843438" y="99.176544" style="stroke: #000000"/>
      </g>
     </g>
     <g id="text_10">
      <text style="font: 12px 'DejaVu Sans', 'Bitstream Vera Sans', 'Computer Modern Sans Serif', 'Lucida Grande', 'Verdana', 'Geneva', 'Lucid', 'Arial', 'Helvetica', 'Avant Garde', sans-serif; text-anchor: end" x="45.343438" y="103.735607" transform="rotate(-0 45.343438 103.735607)">3</text>
     </g>
    </g>
    <g id="ytick_4">
     <g id="line2d_11">
      <g>
       <use xlink:href="#mdcbf5bd319" x="53.843438" y="63.547539" style="stroke: #000000"/>
      </g>
     </g>
     <g id="text_11">
      <text style="font: 12px 'DejaVu Sans', 'Bitstream Vera Sans', 'Computer Modern Sans Serif', 'Lucida Grande', 'Verdana', 'Geneva', 'Lucid', 'Arial', 'Helvetica', 'Avant Garde', sans-serif; text-anchor: end" x="45.343438" y="68.106602" transform="rotate(-0 45.343438 68.106602)">6</text>
     </g>
    </g>
    <g id="text_12">
     <text style="font: 17px 'DejaVu Sans', 'Bitstream Vera Sans', 'Computer Modern Sans Serif', 'Lucida Grande', 'Verdana', 'Geneva', 'Lucid', 'Arial', 'Helvetica', 'Avant Garde', sans-serif; text-anchor: middle" x="20.117344" y="118.401563" transform="rotate(-90 20.117344 118.401563)">escape</text>
    </g>
   </g>
   <g id="line2d_12">
    <path d="M 109.349753 187.701563 
L 109.349753 49.101563 
" clip-path="url(#p84f3a07400)" style="fill: none; stroke-dasharray: 2,5; stroke-dashoffset: 0; stroke: #000000"/>
   </g>
   <g id="line2d_13">
    <path d="M 171.023438 187.701563 
L 171.023438 49.101563 
" clip-path="url(#p84f3a07400)" style="fill: none; stroke-dasharray: 2,5; stroke-dashoffset: 0; stroke: #000000"/>
   </g>
   <g id="line2d_14">
    <path d="M 212.139227 187.701563 
L 212.139227 49.101563 
" clip-path="url(#p84f3a07400)" style="fill: none; stroke-dasharray: 2,5; stroke-dashoffset: 0; stroke: #000000"/>
   </g>
   <g id="line2d_15">
    <path d="M 253.255016 187.701563 
L 253.255016 49.101563 
" clip-path="url(#p84f3a07400)" style="fill: none; stroke-dasharray: 2,5; stroke-dashoffset: 0; stroke: #000000"/>
   </g>
   <g id="patch_3">
    <path d="M 53.843438 187.701563 
L 53.843438 49.101563 
" style="fill: none; stroke: #000000; stroke-width: 0.8; stroke-linejoin: miter; stroke-linecap: square"/>
   </g>
   <g id="patch_4">
    <path d="M 53.843438 187.701563 
L 288.203438 187.701563 
" style="fill: none; stroke: #000000; stroke-width: 0.8; stroke-linejoin: miter; stroke-linecap: square"/>
   </g>
   <g id="text_13">
    <g id="patch_5">
     <path d="M 57.955016 154.655247 
L 101.301266 154.655247 
L 101.301266 84.972747 
L 57.955016 84.972747 
L 57.955016 154.655247 
z
" style="fill: none"/>
    </g>
    <path d="M 68.616101 139.472873 
L 73.168523 138.42743 
L 78.307997 138.42743 
L 72.166104 139.679176 
L 65.088251 139.679176 
L 58.940821 138.42743 
L 64.080294 138.42743 
L 68.616101 139.472873 
z
" style="fill: #a9d4a5"/>
   </g>
   <g id="text_14">
    <g id="patch_6">
     <path d="M 57.955016 151.844119 
L 101.301266 151.844119 
L 101.301266 82.161619 
L 57.955016 82.161619 
L 57.955016 151.844119 
z
" style="fill: none"/>
    </g>
    <path d="M 76.95667 136.869108 
L 60.862585 136.869108 
L 60.862585 136.189029 
L 76.95667 136.189029 
L 76.95667 136.3077 
L 65.968829 136.3077 
L 65.968829 136.453971 
L 75.921021 136.453971 
L 75.921021 136.572642 
L 65.968829 136.572642 
L 65.968829 136.750437 
L 76.95667 136.750437 
L 76.95667 136.869108 
z
" style="fill: #a6dba0"/>
   </g>
   <g id="text_15">
    <g id="patch_7">
     <path d="M 57.955016 150.316822 
L 101.301266 150.316822 
L 101.301266 80.634322 
L 57.955016 80.634322 
L 57.955016 150.316822 
z
" style="fill: none"/>
    </g>
    <path d="M 69.30838 135.30964 
Q 69.064698 135.310084 68.898551 135.310232 
Q 68.737942 135.31038 68.582872 135.31038 
Q 64.135677 135.31038 61.842851 135.284295 
Q 59.550026 135.258161 59.550026 135.207174 
Q 59.550026 135.155991 61.842851 135.129807 
Q 64.135677 135.103624 68.616101 135.103624 
Q 73.118679 135.103624 75.411505 135.129807 
Q 77.70433 135.155991 77.70433 135.207174 
Q 77.70433 135.242283 76.6133 135.265952 
Q 75.522269 135.28962 73.445434 135.299778 
L 76.663144 135.324137 
L 73.168523 135.344157 
L 69.30838 135.30964 
z
M 68.616101 135.139028 
Q 66.661108 135.139028 65.758377 135.155153 
Q 64.861184 135.171277 64.861184 135.207174 
Q 64.861184 135.242924 65.758377 135.259048 
Q 66.661108 135.275123 68.616101 135.275123 
Q 70.58771 135.275123 71.484902 135.259048 
Q 72.387633 135.242924 72.387633 135.207174 
Q 72.387633 135.171277 71.484902 135.155153 
Q 70.58771 135.139028 68.616101 135.139028 
z
" style="fill: #b1c4b3"/>
   </g>
   <g id="text_16">
    <g id="patch_8">
     <path d="M 57.955016 149.779299 
L 101.301266 149.779299 
L 101.301266 80.096799 
L 57.955016 80.096799 
L 57.955016 149.779299 
z
" style="fill: none"/>
    </g>
    <path d="M 65.431621 134.805549 
L 65.431621 134.805549 
L 66.816178 134.805549 
Q 69.828973 134.805549 71.108303 134.805549 
Q 72.387633 134.805549 72.387633 134.805549 
Q 72.387633 134.805549 71.108303 134.805549 
Q 69.828973 134.805549 66.816178 134.805549 
L 65.431621 134.805549 
z
M 60.325377 134.805549 
L 65.797144 134.805549 
Q 72.127337 134.805549 74.913064 134.805549 
Q 77.70433 134.805549 77.70433 134.805549 
Q 77.70433 134.805549 74.913064 134.805549 
Q 72.127337 134.805549 65.797144 134.805549 
L 60.325377 134.805549 
L 60.325377 134.805549 
z
" style="fill: #b3c0b7"/>
   </g>
   <g id="text_17">
    <g id="patch_9">
     <path d="M 57.955016 148.655062 
L 101.301266 148.655062 
L 101.301266 78.972562 
L 57.955016 78.972562 
L 57.955016 148.655062 
z
" style="fill: none"/>
    </g>
    <path d="M 59.444799 132.752549 
L 65.536848 132.752549 
L 68.616101 133.159157 
L 71.67874 132.752549 
L 77.804018 132.752549 
L 77.804018 133.679593 
L 73.412205 133.679593 
L 73.412205 132.937041 
L 70.676321 133.342312 
L 66.611264 133.342312 
L 63.842151 132.937041 
L 63.842151 133.679593 
L 59.444799 133.679593 
L 59.444799 132.752549 
z
" style="fill: #b2c2b5"/>
   </g>
   <g id="text_18">
    <g id="patch_10">
     <path d="M 57.955016 146.387157 
L 101.301266 146.387157 
L 101.301266 76.704657 
L 57.955016 76.704657 
L 57.955016 146.387157 
z
" style="fill: none"/>
    </g>
    <path d="M 59.982007 130.330998 
L 65.088251 130.330998 
L 65.088251 130.75813 
L 73.079912 130.330998 
L 78.861819 130.330998 
L 70.709551 130.756795 
L 79.155345 131.411403 
L 73.478664 131.411403 
L 67.353386 130.925065 
L 65.088251 131.045481 
L 65.088251 131.411403 
L 59.982007 131.411403 
L 59.982007 130.330998 
z
" style="fill: #a6d9a1"/>
   </g>
   <g id="text_19">
    <g id="patch_11">
     <path d="M 57.955016 143.773555 
L 101.301266 143.773555 
L 101.301266 74.091055 
L 57.955016 74.091055 
L 57.955016 143.773555 
z
" style="fill: none"/>
    </g>
    <path d="M 68.616101 127.784522 
L 66.212511 128.291782 
L 71.041844 128.291782 
L 68.616101 127.784522 
z
M 65.503618 127.560402 
L 71.750737 127.560402 
L 78.723364 128.799805 
L 73.617119 128.799805 
L 72.027649 128.493007 
L 65.18794 128.493007 
L 63.631698 128.799805 
L 58.525454 128.799805 
L 65.503618 127.560402 
z
" style="fill: #b3c0b6"/>
   </g>
   <g id="text_20">
    <g id="patch_12">
     <path d="M 57.955016 140.992735 
L 101.301266 140.992735 
L 101.301266 71.310235 
L 57.955016 71.310235 
L 57.955016 140.992735 
z
" style="fill: none"/>
    </g>
    <path d="M 60.325377 124.775514 
L 65.431621 124.775514 
L 65.431621 125.24856 
L 71.817196 125.24856 
L 71.817196 124.775514 
L 76.92344 124.775514 
L 76.92344 126.016684 
L 71.817196 126.016684 
L 71.817196 125.464371 
L 65.431621 125.464371 
L 65.431621 126.016684 
L 60.325377 126.016684 
L 60.325377 124.775514 
z
" style="fill: #acceaa"/>
   </g>
   <g id="text_21">
    <g id="patch_13">
     <path d="M 57.955016 138.137049 
L 101.301266 138.137049 
L 101.301266 68.454549 
L 57.955016 68.454549 
L 57.955016 138.137049 
z
" style="fill: none"/>
    </g>
    <path d="M 71.1803 123.16082 
L 66.074056 123.16082 
L 66.074056 122.054522 
L 59.511258 122.054522 
L 59.511258 121.823676 
L 77.73756 121.823676 
L 77.73756 122.054522 
L 71.1803 122.054522 
L 71.1803 123.16082 
z
" style="fill: #b2c2b5"/>
   </g>
   <g id="text_22">
    <g id="patch_14">
     <path d="M 57.955016 135.174189 
L 101.301266 135.174189 
L 101.301266 65.491689 
L 57.955016 65.491689 
L 57.955016 135.174189 
z
" style="fill: none"/>
    </g>
    <path d="M 58.093472 118.673953 
L 63.598469 118.673953 
L 68.616101 119.286054 
L 73.650349 118.673953 
L 79.155345 118.673953 
L 71.1803 119.597127 
L 71.1803 120.197613 
L 66.074056 120.197613 
L 66.074056 119.597127 
L 58.093472 118.673953 
z
" style="fill: #adccac"/>
   </g>
   <g id="text_23">
    <g id="patch_15">
     <path d="M 57.955016 132.015939 
L 101.301266 132.015939 
L 101.301266 62.333439 
L 57.955016 62.333439 
L 57.955016 132.015939 
z
" style="fill: none"/>
    </g>
    <path d="M 76.663144 116.964396 
Q 75.450272 117.001331 74.11556 117.019635 
Q 72.786386 117.037939 71.318756 117.037939 
Q 66.09067 117.037939 63.338172 116.834961 
Q 60.585674 116.631655 60.585674 116.247597 
Q 60.585674 115.862558 63.338172 115.659252 
Q 66.09067 115.455946 71.318756 115.455946 
Q 72.786386 115.455946 74.137713 115.47425 
Q 75.48904 115.492554 76.663144 115.529489 
L 76.663144 115.864519 
Q 75.350584 115.792937 74.110022 115.759924 
Q 72.874997 115.726585 71.556899 115.726585 
Q 68.754557 115.726585 67.325695 115.857982 
Q 65.896832 115.989052 65.896832 116.247597 
Q 65.896832 116.504834 67.325695 116.636231 
Q 68.754557 116.767301 71.556899 116.767301 
Q 72.874997 116.767301 74.110022 116.734288 
Q 75.350584 116.700949 76.663144 116.629367 
L 76.663144 116.964396 
z
" style="fill: #b0c6b1"/>
   </g>
   <g id="text_24">
    <g id="patch_16">
     <path d="M 57.955016 128.777405 
L 101.301266 128.777405 
L 101.301266 59.094905 
L 57.955016 59.094905 
L 57.955016 128.777405 
z
" style="fill: none"/>
    </g>
    <path d="M 66.782949 112.943502 
Q 62.922805 112.837083 61.554863 112.720262 
Q 60.186922 112.603442 60.186922 112.405807 
Q 60.186922 112.152162 62.435441 112.007336 
Q 64.689499 111.86211 68.616101 111.86211 
Q 70.39941 111.86211 72.182719 111.891715 
Q 73.966028 111.920921 75.710569 111.978131 
L 75.710569 112.338195 
Q 74.065716 112.25458 72.371019 112.210972 
Q 70.676321 112.166964 69.014854 112.166964 
Q 67.165086 112.166964 66.173744 112.220974 
Q 65.18794 112.274583 65.18794 112.374601 
Q 65.18794 112.452215 65.907909 112.503024 
Q 66.627878 112.553433 68.909627 112.614644 
L 71.108303 112.674654 
Q 74.226324 112.757069 75.693954 112.893493 
Q 77.167122 113.029917 77.167122 113.237154 
Q 77.167122 113.520004 74.852144 113.659229 
Q 72.542704 113.798454 67.873979 113.798454 
Q 65.952215 113.798454 64.019374 113.765648 
Q 62.092071 113.732442 60.292148 113.66723 
L 60.292148 113.285963 
Q 62.335753 113.391181 64.246441 113.44239 
Q 66.157129 113.4936 68.029049 113.4936 
Q 69.912046 113.4936 70.947695 113.431989 
Q 71.988881 113.369978 71.988881 113.258358 
Q 71.988881 113.174743 71.296603 113.111532 
Q 70.604325 113.048321 69.291765 113.012314 
L 66.782949 112.943502 
z
" style="fill: #b5bdb9"/>
   </g>
   <g id="text_25">
    <g id="patch_17">
     <path d="M 57.955016 125.167806 
L 101.301266 125.167806 
L 101.301266 55.485306 
L 57.955016 55.485306 
L 57.955016 125.167806 
z
" style="fill: none"/>
    </g>
    <path d="M 73.046682 109.801088 
L 73.046682 109.428229 
L 69.552062 109.428229 
L 69.552062 109.103549 
L 77.510492 109.103549 
L 77.510492 109.998829 
Q 76.042862 110.094348 74.265092 110.143783 
Q 72.49286 110.192799 70.465869 110.192799 
Q 65.448236 110.192799 62.712353 109.928866 
Q 59.982007 109.664932 59.982007 109.179377 
Q 59.982007 108.685863 62.740044 108.425281 
Q 65.503618 108.164698 70.709551 108.164698 
Q 72.265792 108.164698 73.77219 108.198214 
Q 75.278587 108.231729 76.596685 108.29457 
L 76.596685 108.722311 
Q 75.522269 108.617575 74.126636 108.564788 
Q 72.736542 108.511583 71.075074 108.511583 
Q 68.167505 108.511583 66.727566 108.677484 
Q 65.293166 108.842966 65.293166 109.179377 
Q 65.293166 109.505315 66.677722 109.675824 
Q 68.062279 109.845915 70.709551 109.845915 
Q 71.507055 109.845915 72.094107 109.835022 
Q 72.681159 109.823711 73.046682 109.801088 
z
" style="fill: #b1c5b2"/>
   </g>
   <g id="text_26">
    <g id="patch_18">
     <path d="M 57.955016 121.418495 
L 101.301266 121.418495 
L 101.301266 51.735995 
L 57.955016 51.735995 
L 57.955016 121.418495 
z
" style="fill: none"/>
    </g>
    <path d="M 71.922422 104.984898 
Q 72.681159 105.00267 73.246058 105.070584 
Q 73.810957 105.137864 74.619538 105.330183 
L 79.293801 106.439032 
L 73.689116 106.439032 
L 70.571095 105.661505 
Q 70.43264 105.62723 70.21111 105.570106 
Q 68.843169 105.221012 66.987863 105.221012 
L 65.365163 105.221012 
L 65.365163 106.439032 
L 60.258918 106.439032 
L 60.258918 103.35812 
L 67.630297 103.35812 
Q 72.614701 103.35812 74.785685 103.568846 
Q 76.95667 103.778937 76.95667 104.254974 
Q 76.95667 104.572332 75.660725 104.760208 
Q 74.36478 104.94745 71.922422 104.984898 
z
M 65.365163 103.870336 
L 65.365163 104.709431 
L 67.768753 104.709431 
Q 69.862202 104.709431 70.770471 104.612319 
Q 71.67874 104.514573 71.67874 104.288614 
Q 71.67874 104.064559 70.77601 103.967448 
Q 69.878817 103.870336 67.768753 103.870336 
L 65.365163 103.870336 
z
" style="fill: #bbb2c3"/>
   </g>
   <g id="text_27">
    <g id="patch_19">
     <path d="M 57.955016 116.553283 
L 101.301266 116.553283 
L 101.301266 46.870783 
L 57.955016 46.870783 
L 57.955016 116.553283 
z
" style="fill: none"/>
    </g>
    <path d="M 58.558683 97.703441 
L 62.767735 97.703441 
L 64.512276 100.543358 
L 66.627878 98.707734 
L 70.626477 98.707734 
L 73.063297 100.543358 
L 74.447853 97.703441 
L 78.690134 97.703441 
L 75.887792 101.572359 
L 71.385214 101.572359 
L 68.616101 99.542253 
L 66.018673 101.572359 
L 61.571478 101.572359 
L 58.558683 97.703441 
z
" style="fill: #b692c5"/>
   </g>
   <g id="text_28">
    <g id="patch_20">
     <path d="M 57.955016 110.846847 
L 101.301266 110.846847 
L 101.301266 41.164347 
L 57.955016 41.164347 
L 57.955016 110.846847 
z
" style="fill: none"/>
    </g>
    <path d="M 77.200352 92.149811 
L 66.212511 92.149811 
L 66.212511 93.117717 
L 76.214547 93.117717 
L 76.214547 93.902981 
L 66.212511 93.902981 
L 66.212511 95.864753 
L 61.106267 95.864753 
L 61.106267 91.364546 
L 77.200352 91.364546 
L 77.200352 92.149811 
z
" style="fill: #b8b7be"/>
   </g>
   <g id="text_29">
    <g id="patch_21">
     <path d="M 57.955016 104.47068 
L 101.301266 104.47068 
L 101.301266 34.78818 
L 57.955016 34.78818 
L 57.955016 104.47068 
z
" style="fill: none"/>
    </g>
    <path d="M 60.015237 84.579271 
L 65.503618 84.579271 
L 72.703312 88.147936 
L 72.703312 84.579271 
L 77.200352 84.579271 
L 77.200352 89.487829 
L 71.750737 89.487829 
L 64.512276 85.919164 
L 64.512276 89.487829 
L 60.015237 89.487829 
L 60.015237 84.579271 
z
" style="fill: #afc9af"/>
   </g>
   <g id="text_30">
    <g id="patch_22">
     <path d="M 78.512911 153.981384 
L 121.859161 153.981384 
L 121.859161 84.298884 
L 78.512911 84.298884 
L 78.512911 153.981384 
z
" style="fill: none"/>
    </g>
    <path d="M 89.173996 137.436359 
L 86.770406 138.221406 
L 91.599739 138.221406 
L 89.173996 137.436359 
z
M 86.061513 137.089505 
L 92.308632 137.089505 
L 99.281259 139.007634 
L 94.175014 139.007634 
L 92.585543 138.532826 
L 85.745834 138.532826 
L 84.189593 139.007634 
L 79.083348 139.007634 
L 86.061513 137.089505 
z
" style="fill: #b8b8be"/>
   </g>
   <g id="text_31">
    <g id="patch_23">
     <path d="M 78.512911 150.408982 
L 121.859161 150.408982 
L 121.859161 80.726482 
L 78.512911 80.726482 
L 78.512911 150.408982 
z
" style="fill: none"/>
    </g>
    <path d="M 91.738195 135.434967 
L 86.63195 135.434967 
L 86.63195 135.31657 
L 80.069153 135.31657 
L 80.069153 135.291865 
L 98.295454 135.291865 
L 98.295454 135.31657 
L 91.738195 135.31657 
L 91.738195 135.434967 
z
" style="fill: #b8b7be"/>
   </g>
   <g id="text_32">
    <g id="patch_24">
     <path d="M 78.512911 150.087609 
L 121.859161 150.087609 
L 121.859161 80.405109 
L 78.512911 80.405109 
L 78.512911 150.087609 
z
" style="fill: none"/>
    </g>
    <path d="M 81.492477 135.000275 
L 81.492477 134.976319 
L 96.877668 134.976319 
L 96.877668 135.000275 
L 91.738195 135.000275 
L 91.738195 135.089649 
L 96.877668 135.089649 
L 96.877668 135.113604 
L 81.492477 135.113604 
L 81.492477 135.089649 
L 86.63195 135.089649 
L 86.63195 135.000275 
L 81.492477 135.000275 
z
" style="fill: #b0c6b1"/>
   </g>
   <g id="text_33">
    <g id="patch_25">
     <path d="M 78.512911 149.779299 
L 121.859161 149.779299 
L 121.859161 80.096799 
L 78.512911 80.096799 
L 78.512911 149.779299 
z
" style="fill: none"/>
    </g>
    <path d="M 78.651367 134.805549 
L 84.156363 134.805549 
L 89.173996 134.805549 
L 94.208244 134.805549 
L 99.71324 134.805549 
L 91.738195 134.805549 
L 91.738195 134.805549 
L 86.63195 134.805549 
L 86.63195 134.805549 
L 78.651367 134.805549 
z
" style="fill: #b3c0b7"/>
   </g>
   <g id="text_34">
    <g id="patch_26">
     <path d="M 78.512911 149.414964 
L 121.859161 149.414964 
L 121.859161 79.732464 
L 78.512911 79.732464 
L 78.512911 149.414964 
z
" style="fill: none"/>
    </g>
    <path d="M 80.573131 134.140227 
L 86.061513 134.140227 
L 93.261207 134.358648 
L 93.261207 134.140227 
L 97.758246 134.140227 
L 97.758246 134.440657 
L 92.308632 134.440657 
L 85.070171 134.222236 
L 85.070171 134.440657 
L 80.573131 134.440657 
L 80.573131 134.140227 
z
" style="fill: #bbb2c3"/>
   </g>
   <g id="text_35">
    <g id="patch_27">
     <path d="M 78.512911 148.621368 
L 121.859161 148.621368 
L 121.859161 78.938868 
L 78.512911 78.938868 
L 78.512911 148.621368 
z
" style="fill: none"/>
    </g>
    <path d="M 80.002694 133.248404 
L 86.094743 133.248404 
L 89.173996 133.423178 
L 92.236635 133.248404 
L 98.361913 133.248404 
L 98.361913 133.64688 
L 93.9701 133.64688 
L 93.9701 133.327705 
L 91.234216 133.501905 
L 87.169158 133.501905 
L 84.400045 133.327705 
L 84.400045 133.64688 
L 80.002694 133.64688 
L 80.002694 133.248404 
z
" style="fill: #beacc8"/>
   </g>
   <g id="text_36">
    <g id="patch_28">
     <path d="M 78.512911 147.50042 
L 121.859161 147.50042 
L 121.859161 77.81792 
L 78.512911 77.81792 
L 78.512911 147.50042 
z
" style="fill: none"/>
    </g>
    <path d="M 80.883272 131.940697 
L 85.989516 131.940697 
L 85.989516 132.163615 
L 92.375091 132.163615 
L 92.375091 131.940697 
L 97.481335 131.940697 
L 97.481335 132.525586 
L 92.375091 132.525586 
L 92.375091 132.265314 
L 85.989516 132.265314 
L 85.989516 132.525586 
L 80.883272 132.525586 
L 80.883272 131.940697 
z
" style="fill: #beabc8"/>
   </g>
   <g id="text_37">
    <g id="patch_29">
     <path d="M 78.512911 146.178561 
L 121.859161 146.178561 
L 121.859161 76.496061 
L 78.512911 76.496061 
L 78.512911 146.178561 
z
" style="fill: none"/>
    </g>
    <path d="M 97.221038 131.175795 
Q 96.008167 131.189572 94.673455 131.196399 
Q 93.34428 131.203226 91.87665 131.203226 
Q 86.648565 131.203226 83.896067 131.127518 
Q 81.143569 131.051688 81.143569 130.908441 
Q 81.143569 130.764828 83.896067 130.688999 
Q 86.648565 130.613169 91.87665 130.613169 
Q 93.34428 130.613169 94.695607 130.619996 
Q 96.046935 130.626823 97.221038 130.640599 
L 97.221038 130.76556 
Q 95.908479 130.738861 94.667916 130.726548 
Q 93.432892 130.714113 92.114794 130.714113 
Q 89.312452 130.714113 87.883589 130.763121 
Q 86.454727 130.812008 86.454727 130.908441 
Q 86.454727 131.004386 87.883589 131.053395 
Q 89.312452 131.102282 92.114794 131.102282 
Q 93.432892 131.102282 94.667916 131.089969 
Q 95.908479 131.077534 97.221038 131.050835 
L 97.221038 131.175795 
z
" style="fill: #b5bcba"/>
   </g>
   <g id="text_38">
    <g id="patch_30">
     <path d="M 78.512911 144.818815 
L 121.859161 144.818815 
L 121.859161 75.136315 
L 78.512911 75.136315 
L 78.512911 144.818815 
z
" style="fill: none"/>
    </g>
    <path d="M 97.758246 129.334463 
L 86.770406 129.334463 
L 86.770406 129.467199 
L 96.772442 129.467199 
L 96.772442 129.574888 
L 86.770406 129.574888 
L 86.770406 129.843921 
L 81.664162 129.843921 
L 81.664162 129.226773 
L 97.758246 129.226773 
L 97.758246 129.334463 
z
" style="fill: #b3c0b7"/>
   </g>
   <g id="text_39">
    <g id="patch_31">
     <path d="M 78.512911 143.207102 
L 121.859161 143.207102 
L 121.859161 73.524602 
L 78.512911 73.524602 
L 78.512911 143.207102 
z
" style="fill: none"/>
    </g>
    <path d="M 89.173996 128.099469 
L 93.726418 127.428566 
L 98.865892 127.428566 
L 92.723999 128.231862 
L 85.646146 128.231862 
L 79.498715 127.428566 
L 84.638189 127.428566 
L 89.173996 128.099469 
z
" style="fill: #aec9ae"/>
   </g>
   <g id="text_40">
    <g id="patch_32">
     <path d="M 78.512911 141.251734 
L 121.859161 141.251734 
L 121.859161 71.569234 
L 78.512911 71.569234 
L 78.512911 141.251734 
z
" style="fill: none"/>
    </g>
    <path d="M 79.116578 125.348162 
L 83.32563 125.348162 
L 85.070171 126.02942 
L 87.185773 125.589079 
L 91.184372 125.589079 
L 93.621192 126.02942 
L 95.005748 125.348162 
L 99.248029 125.348162 
L 96.445687 126.276264 
L 91.943109 126.276264 
L 89.173996 125.789269 
L 86.576568 126.276264 
L 82.129373 126.276264 
L 79.116578 125.348162 
z
" style="fill: #c1a3ce"/>
   </g>
   <g id="text_41">
    <g id="patch_33">
     <path d="M 78.512911 138.7416 
L 121.859161 138.7416 
L 121.859161 69.0591 
L 78.512911 69.0591 
L 78.512911 138.7416 
z
" style="fill: none"/>
    </g>
    <path d="M 80.539902 122.486232 
L 85.646146 122.486232 
L 85.646146 122.991974 
L 93.637806 122.486232 
L 99.419714 122.486232 
L 91.267446 122.990393 
L 99.71324 123.765478 
L 94.036559 123.765478 
L 87.911281 123.189633 
L 85.646146 123.33221 
L 85.646146 123.765478 
L 80.539902 123.765478 
L 80.539902 122.486232 
z
" style="fill: #adccac"/>
   </g>
   <g id="text_42">
    <g id="patch_34">
     <path d="M 78.512911 135.843111 
L 121.859161 135.843111 
L 121.859161 66.160611 
L 78.512911 66.160611 
L 78.512911 135.843111 
z
" style="fill: none"/>
    </g>
    <path d="M 87.340843 120.24141 
Q 83.4807 120.163719 82.112758 120.078434 
Q 80.744816 119.99315 80.744816 119.848867 
Q 80.744816 119.663694 82.993336 119.557964 
Q 85.247394 119.451943 89.173996 119.451943 
Q 90.957305 119.451943 92.740614 119.473556 
Q 94.523922 119.494877 96.268464 119.536643 
L 96.268464 119.799507 
Q 94.62361 119.738464 92.928913 119.706628 
Q 91.234216 119.674501 89.572748 119.674501 
Q 87.722981 119.674501 86.731638 119.71393 
Q 85.745834 119.753068 85.745834 119.826085 
Q 85.745834 119.882747 86.465804 119.91984 
Q 87.185773 119.956641 89.467522 120.001328 
L 91.666198 120.045138 
Q 94.784219 120.105305 96.251849 120.204901 
Q 97.725017 120.304497 97.725017 120.455789 
Q 97.725017 120.662283 95.410039 120.763924 
Q 93.100598 120.865564 88.431874 120.865564 
Q 86.510109 120.865564 84.577269 120.841615 
Q 82.649966 120.817373 80.850043 120.769765 
L 80.850043 120.491422 
Q 82.893648 120.568236 84.804336 120.605622 
Q 86.715024 120.643007 88.586944 120.643007 
Q 90.469941 120.643007 91.505589 120.598028 
Q 92.546776 120.552757 92.546776 120.471269 
Q 92.546776 120.410226 91.854498 120.364079 
Q 91.162219 120.317932 89.84966 120.291646 
L 87.340843 120.24141 
z
" style="fill: #b8b6bf"/>
   </g>
   <g id="text_43">
    <g id="patch_35">
     <path d="M 78.512911 132.770656 
L 121.859161 132.770656 
L 121.859161 63.088156 
L 78.512911 63.088156 
L 78.512911 132.770656 
z
" style="fill: none"/>
    </g>
    <path d="M 82.406284 117.792945 
L 82.406284 115.656758 
L 87.512528 115.656758 
L 87.512528 117.420191 
L 98.43391 117.420191 
L 98.43391 117.792945 
L 82.406284 117.792945 
z
" style="fill: #b2c2b5"/>
   </g>
   <g id="text_44">
    <g id="patch_36">
     <path d="M 78.512911 128.697976 
L 121.859161 128.697976 
L 121.859161 59.015476 
L 78.512911 59.015476 
L 78.512911 128.697976 
z
" style="fill: none"/>
    </g>
    <path d="M 92.480317 109.871885 
Q 93.239054 109.918783 93.803953 110.098001 
Q 94.368852 110.275543 95.177433 110.783047 
L 99.851696 113.709151 
L 94.247011 113.709151 
L 91.12899 111.657361 
Q 90.990534 111.566915 90.769005 111.416171 
Q 89.401063 110.494959 87.545758 110.494959 
L 85.923058 110.494959 
L 85.923058 113.709151 
L 80.816813 113.709151 
L 80.816813 105.579038 
L 88.188192 105.579038 
Q 93.172595 105.579038 95.34358 106.135115 
Q 97.514564 106.689517 97.514564 107.945715 
Q 97.514564 108.78318 96.21862 109.27896 
Q 94.922675 109.773064 92.480317 109.871885 
z
M 85.923058 106.930707 
L 85.923058 109.144965 
L 88.326648 109.144965 
Q 90.420097 109.144965 91.328366 108.888701 
Q 92.236635 108.630761 92.236635 108.034486 
Q 92.236635 107.443236 91.333904 107.186971 
Q 90.436712 106.930707 88.326648 106.930707 
L 85.923058 106.930707 
z
" style="fill: #b3c0b6"/>
   </g>
   <g id="text_45">
    <g id="patch_37">
     <path d="M 119.628701 150.243189 
L 162.974951 150.243189 
L 162.974951 80.560689 
L 119.628701 80.560689 
L 119.628701 150.243189 
z
" style="fill: none"/>
    </g>
    <path d="M 121.118483 135.164324 
L 127.210532 135.164324 
L 130.289786 135.210343 
L 133.352425 135.164324 
L 139.477702 135.164324 
L 139.477702 135.269244 
L 135.085889 135.269244 
L 135.085889 135.185204 
L 132.350006 135.231072 
L 128.284948 135.231072 
L 125.515835 135.185204 
L 125.515835 135.269244 
L 121.118483 135.269244 
L 121.118483 135.164324 
z
" style="fill: #bdaec6"/>
   </g>
   <g id="text_46">
    <g id="patch_38">
     <path d="M 119.628701 150.007562 
L 162.974951 150.007562 
L 162.974951 80.325062 
L 119.628701 80.325062 
L 119.628701 150.007562 
z
" style="fill: none"/>
    </g>
    <path d="M 122.608266 134.949718 
L 122.608266 134.931982 
L 137.993458 134.931982 
L 137.993458 134.949718 
L 132.853984 134.949718 
L 132.853984 135.015888 
L 137.993458 135.015888 
L 137.993458 135.033624 
L 122.608266 135.033624 
L 122.608266 135.015888 
L 127.74774 135.015888 
L 127.74774 134.949718 
L 122.608266 134.949718 
z
" style="fill: #bdadc7"/>
   </g>
   <g id="text_47">
    <g id="patch_39">
     <path d="M 119.628701 149.779299 
L 162.974951 149.779299 
L 162.974951 80.096799 
L 119.628701 80.096799 
L 119.628701 149.779299 
z
" style="fill: none"/>
    </g>
    <path d="M 123.522074 134.805549 
L 123.522074 134.805549 
L 128.628318 134.805549 
L 128.628318 134.805549 
L 139.549699 134.805549 
L 139.549699 134.805549 
L 123.522074 134.805549 
z
" style="fill: #b3c0b7"/>
   </g>
   <g id="text_48">
    <g id="patch_40">
     <path d="M 119.628701 149.282723 
L 162.974951 149.282723 
L 162.974951 79.600223 
L 119.628701 79.600223 
L 119.628701 149.282723 
z
" style="fill: none"/>
    </g>
    <path d="M 130.289786 133.9723 
L 127.886196 134.14051 
L 132.715529 134.14051 
L 130.289786 133.9723 
z
M 127.177303 133.89798 
L 133.424422 133.89798 
L 140.397048 134.308973 
L 135.290804 134.308973 
L 133.701333 134.207237 
L 126.861624 134.207237 
L 125.305382 134.308973 
L 120.199138 134.308973 
L 127.177303 133.89798 
z
" style="fill: #b692c5"/>
   </g>
   <g id="text_49">
    <g id="patch_41">
     <path d="M 119.628701 148.132455 
L 162.974951 148.132455 
L 162.974951 78.449955 
L 119.628701 78.449955 
L 119.628701 148.132455 
z
" style="fill: none"/>
    </g>
    <path d="M 130.289786 133.058756 
L 134.842207 132.557897 
L 139.981681 132.557897 
L 133.839788 133.157593 
L 126.761936 133.157593 
L 120.614505 132.557897 
L 125.753979 132.557897 
L 130.289786 133.058756 
z
" style="fill: #a97dba"/>
   </g>
   <g id="text_50">
    <g id="patch_42">
     <path d="M 119.628701 146.540694 
L 162.974951 146.540694 
L 162.974951 76.858194 
L 119.628701 76.858194 
L 119.628701 146.540694 
z
" style="fill: none"/>
    </g>
    <path d="M 138.874036 130.903642 
L 127.886196 130.903642 
L 127.886196 131.076074 
L 137.888232 131.076074 
L 137.888232 131.215969 
L 127.886196 131.215969 
L 127.886196 131.565457 
L 122.779951 131.565457 
L 122.779951 130.763747 
L 138.874036 130.763747 
L 138.874036 130.903642 
z
" style="fill: #a170b3"/>
   </g>
   <g id="text_51">
    <g id="patch_43">
     <path d="M 119.628701 144.473451 
L 162.974951 144.473451 
L 162.974951 74.790951 
L 119.628701 74.790951 
L 119.628701 144.473451 
z
" style="fill: none"/>
    </g>
    <path d="M 119.767156 128.476103 
L 125.272153 128.476103 
L 130.289786 128.886552 
L 135.324033 128.476103 
L 140.82903 128.476103 
L 132.853984 129.095145 
L 132.853984 129.497807 
L 127.74774 129.497807 
L 127.74774 129.095145 
L 119.767156 128.476103 
z
" style="fill: #b189c1"/>
   </g>
   <g id="text_52">
    <g id="patch_44">
     <path d="M 119.628701 142.100061 
L 162.974951 142.100061 
L 162.974951 72.417561 
L 119.628701 72.417561 
L 119.628701 142.100061 
z
" style="fill: none"/>
    </g>
    <path d="M 132.853984 127.124296 
L 127.74774 127.124296 
L 127.74774 126.225163 
L 121.184942 126.225163 
L 121.184942 126.037545 
L 139.411244 126.037545 
L 139.411244 126.225163 
L 132.853984 126.225163 
L 132.853984 127.124296 
z
" style="fill: #88479f"/>
   </g>
   <g id="text_53">
    <g id="patch_45">
     <path d="M 119.628701 139.398482 
L 162.974951 139.398482 
L 162.974951 69.715982 
L 119.628701 69.715982 
L 119.628701 139.398482 
z
" style="fill: none"/>
    </g>
    <path d="M 120.232367 122.959059 
L 124.441419 122.959059 
L 126.18596 124.032922 
L 128.301562 123.338814 
L 132.300162 123.338814 
L 134.736981 124.032922 
L 136.121538 122.959059 
L 140.363819 122.959059 
L 137.561476 124.42202 
L 133.058899 124.42202 
L 130.289786 123.654372 
L 127.692358 124.42202 
L 123.245162 124.42202 
L 120.232367 122.959059 
z
" style="fill: #a87cba"/>
   </g>
   <g id="text_54">
    <g id="patch_46">
     <path d="M 119.628701 136.288022 
L 162.974951 136.288022 
L 162.974951 66.605522 
L 119.628701 66.605522 
L 119.628701 136.288022 
z
" style="fill: none"/>
    </g>
    <path d="M 138.630354 121.310688 
L 122.536269 121.310688 
L 122.536269 119.377573 
L 138.630354 119.377573 
L 138.630354 119.714892 
L 127.642514 119.714892 
L 127.642514 120.130667 
L 137.594706 120.130667 
L 137.594706 120.467987 
L 127.642514 120.467987 
L 127.642514 120.973369 
L 138.630354 120.973369 
L 138.630354 121.310688 
z
" style="fill: #9e6ab1"/>
   </g>
   <g id="text_55">
    <g id="patch_47">
     <path d="M 119.628701 132.685313 
L 162.974951 132.685313 
L 162.974951 63.002813 
L 119.628701 63.002813 
L 119.628701 132.685313 
z
" style="fill: none"/>
    </g>
    <path d="M 130.982064 117.420274 
Q 130.738382 117.424141 130.572235 117.42543 
Q 130.411627 117.426719 130.256556 117.426719 
Q 125.809361 117.426719 123.516535 117.199445 
Q 121.22371 116.971741 121.22371 116.527505 
Q 121.22371 116.08155 123.516535 115.853417 
Q 125.809361 115.625284 130.289786 115.625284 
Q 134.792363 115.625284 137.085189 115.853417 
Q 139.378014 116.08155 139.378014 116.527505 
Q 139.378014 116.833401 138.286984 117.039623 
Q 137.195953 117.245845 135.119119 117.334348 
L 138.336828 117.546585 
L 134.842207 117.721014 
L 130.982064 117.420274 
z
M 130.289786 115.933758 
Q 128.334792 115.933758 127.432061 116.074246 
Q 126.534868 116.214735 126.534868 116.527505 
Q 126.534868 116.838986 127.432061 116.979475 
Q 128.334792 117.119534 130.289786 117.119534 
Q 132.261394 117.119534 133.158587 116.979475 
Q 134.061317 116.838986 134.061317 116.527505 
Q 134.061317 116.214735 133.158587 116.074246 
Q 132.261394 115.933758 130.289786 115.933758 
z
" style="fill: #ad84be"/>
   </g>
   <g id="text_56">
    <g id="patch_48">
     <path d="M 119.628701 128.925217 
L 162.974951 128.925217 
L 162.974951 59.242717 
L 119.628701 59.242717 
L 119.628701 128.925217 
z
" style="fill: none"/>
    </g>
    <path d="M 128.456633 113.027276 
Q 124.596489 112.912934 123.228548 112.787416 
Q 121.860606 112.661898 121.860606 112.449549 
Q 121.860606 112.17702 124.109125 112.021412 
Q 126.363183 111.865375 130.289786 111.865375 
Q 132.073094 111.865375 133.856403 111.897184 
Q 135.639712 111.928563 137.384253 111.990033 
L 137.384253 112.376904 
Q 135.7394 112.287064 134.044703 112.240209 
Q 132.350006 112.192925 130.688538 112.192925 
Q 128.83877 112.192925 127.847428 112.250956 
Q 126.861624 112.308556 126.861624 112.41602 
Q 126.861624 112.499413 127.581593 112.554004 
Q 128.301562 112.608166 130.583312 112.673934 
L 132.781987 112.738413 
Q 135.900009 112.826963 137.367638 112.973544 
Q 138.840806 113.120125 138.840806 113.342791 
Q 138.840806 113.646699 136.525828 113.796289 
Q 134.216388 113.945879 129.547663 113.945879 
Q 127.625899 113.945879 125.693058 113.910631 
Q 123.765755 113.874953 121.965832 113.804886 
L 121.965832 113.395233 
Q 124.009437 113.508285 125.920125 113.563307 
Q 127.830813 113.618329 129.702734 113.618329 
Q 131.58573 113.618329 132.621379 113.552131 
Q 133.662565 113.485503 133.662565 113.365573 
Q 133.662565 113.275733 132.970287 113.207816 
Q 132.278009 113.139899 130.965449 113.101212 
L 128.456633 113.027276 
z
" style="fill: #b896c7"/>
   </g>
   <g id="text_57">
    <g id="patch_49">
     <path d="M 119.628701 125.162509 
L 162.974951 125.162509 
L 162.974951 55.480009 
L 119.628701 55.480009 
L 119.628701 125.162509 
z
" style="fill: none"/>
    </g>
    <path d="M 133.596107 109.183878 
Q 134.354843 109.196112 134.919743 109.242861 
Q 135.484642 109.289172 136.293223 109.421555 
L 140.967485 110.184827 
L 135.362801 110.184827 
L 132.244779 109.649619 
Q 132.106324 109.626026 131.884795 109.586705 
Q 130.516853 109.346407 128.661547 109.346407 
L 127.038847 109.346407 
L 127.038847 110.184827 
L 121.932603 110.184827 
L 121.932603 108.064091 
L 129.303981 108.064091 
Q 134.288385 108.064091 136.459369 108.209144 
Q 138.630354 108.353759 138.630354 108.681438 
Q 138.630354 108.89989 137.334409 109.029214 
Q 136.038464 109.158101 133.596107 109.183878 
z
M 127.038847 108.416674 
L 127.038847 108.994262 
L 129.442437 108.994262 
Q 131.535886 108.994262 132.444156 108.927415 
Q 133.352425 108.860132 133.352425 108.704594 
Q 133.352425 108.550366 132.449694 108.48352 
Q 131.552501 108.416674 129.442437 108.416674 
L 127.038847 108.416674 
z
" style="fill: #beabc9"/>
   </g>
   <g id="text_58">
    <g id="patch_50">
     <path d="M 119.628701 121.325408 
L 162.974951 121.325408 
L 162.974951 51.642908 
L 119.628701 51.642908 
L 119.628701 121.325408 
z
" style="fill: none"/>
    </g>
    <path d="M 121.999061 103.318107 
L 127.105306 103.318107 
L 127.105306 104.472142 
L 133.49088 104.472142 
L 133.49088 103.318107 
L 138.597125 103.318107 
L 138.597125 106.346044 
L 133.49088 106.346044 
L 133.49088 104.998631 
L 127.105306 104.998631 
L 127.105306 106.346044 
L 121.999061 106.346044 
L 121.999061 103.318107 
z
" style="fill: #9055a6"/>
   </g>
   <g id="text_59">
    <g id="patch_51">
     <path d="M 119.628701 116.53421 
L 162.974951 116.53421 
L 162.974951 46.85171 
L 119.628701 46.85171 
L 119.628701 116.53421 
z
" style="fill: none"/>
    </g>
    <path d="M 121.688921 98.133281 
L 127.177303 98.133281 
L 134.376996 100.620329 
L 134.376996 98.133281 
L 138.874036 98.133281 
L 138.874036 101.554117 
L 133.424422 101.554117 
L 126.18596 99.067069 
L 126.18596 101.554117 
L 121.688921 101.554117 
L 121.688921 98.133281 
z
" style="fill: #8b4da1"/>
   </g>
   <g id="text_60">
    <g id="patch_52">
     <path d="M 119.628701 111.290143 
L 162.974951 111.290143 
L 162.974951 41.607643 
L 119.628701 41.607643 
L 119.628701 111.290143 
z
" style="fill: none"/>
    </g>
    <path d="M 127.537287 92.545878 
L 127.537287 93.870578 
L 129.630737 93.870578 
Q 132.139553 93.870578 133.153048 93.722769 
Q 134.166544 93.574031 134.166544 93.207763 
Q 134.166544 92.841495 133.153048 92.693686 
Q 132.139553 92.545878 129.630737 92.545878 
L 127.537287 92.545878 
z
M 122.431043 91.795679 
L 129.442437 91.795679 
Q 134.792363 91.795679 137.135033 92.128481 
Q 139.477702 92.461283 139.477702 93.207763 
Q 139.477702 93.954243 137.135033 94.287045 
Q 134.792363 94.619847 129.442437 94.619847 
L 127.537287 94.619847 
L 127.537287 96.308026 
L 122.431043 96.308026 
L 122.431043 91.795679 
z
" style="fill: #9b66af"/>
   </g>
   <g id="text_61">
    <g id="patch_53">
     <path d="M 140.186595 149.779299 
L 183.532845 149.779299 
L 183.532845 80.096799 
L 140.186595 80.096799 
L 140.186595 149.779299 
z
" style="fill: none"/>
    </g>
    <path d="M 159.431931 134.805549 
L 148.44409 134.805549 
L 148.44409 134.805549 
L 158.446126 134.805549 
L 158.446126 134.805549 
L 148.44409 134.805549 
L 148.44409 134.805549 
L 143.337846 134.805549 
L 143.337846 134.805549 
L 159.431931 134.805549 
L 159.431931 134.805549 
z
" style="fill: #b3c0b7"/>
   </g>
   <g id="text_62">
    <g id="patch_54">
     <path d="M 140.186595 149.621406 
L 183.532845 149.621406 
L 183.532845 79.938906 
L 140.186595 79.938906 
L 140.186595 149.621406 
z
" style="fill: none"/>
    </g>
    <path d="M 140.790262 134.517216 
L 144.999314 134.517216 
L 146.743855 134.612786 
L 148.859457 134.551013 
L 152.858056 134.551013 
L 155.294876 134.612786 
L 156.679432 134.517216 
L 160.921713 134.517216 
L 158.119371 134.647414 
L 153.616793 134.647414 
L 150.84768 134.579096 
L 148.250252 134.647414 
L 143.803057 134.647414 
L 140.790262 134.517216 
z
" style="fill: #7b3294"/>
   </g>
   <g id="text_63">
    <g id="patch_55">
     <path d="M 140.186595 148.448603 
L 183.532845 148.448603 
L 183.532845 78.766103 
L 140.186595 78.766103 
L 140.186595 148.448603 
z
" style="fill: none"/>
    </g>
    <path d="M 143.166161 132.766485 
L 143.166161 132.617086 
L 158.551353 132.617086 
L 158.551353 132.766485 
L 153.411879 132.766485 
L 153.411879 133.323867 
L 158.551353 133.323867 
L 158.551353 133.473266 
L 143.166161 133.473266 
L 143.166161 133.323867 
L 148.305635 133.323867 
L 148.305635 132.766485 
L 143.166161 132.766485 
z
" style="fill: #8d4fa3"/>
   </g>
   <g id="text_64">
    <g id="patch_56">
     <path d="M 140.186595 146.418083 
L 183.532845 146.418083 
L 183.532845 76.735583 
L 140.186595 76.735583 
L 140.186595 146.418083 
z
" style="fill: none"/>
    </g>
    <path d="M 155.278261 131.261714 
L 155.278261 131.08844 
L 151.783641 131.08844 
L 151.783641 130.937555 
L 159.742071 130.937555 
L 159.742071 131.353607 
Q 158.274441 131.397996 156.496671 131.42097 
Q 154.724439 131.443749 152.697448 131.443749 
Q 147.679815 131.443749 144.943931 131.321094 
Q 142.213586 131.198439 142.213586 130.972794 
Q 142.213586 130.74345 144.971623 130.622353 
Q 147.735197 130.501256 152.94113 130.501256 
Q 154.497371 130.501256 156.003769 130.516831 
Q 157.510166 130.532406 158.828264 130.561609 
L 158.828264 130.760388 
Q 157.753848 130.711715 156.358215 130.687184 
Q 154.96812 130.662459 153.306653 130.662459 
Q 150.399084 130.662459 148.959145 130.739556 
Q 147.524745 130.816458 147.524745 130.972794 
Q 147.524745 131.124263 148.909301 131.203501 
Q 150.293858 131.282545 152.94113 131.282545 
Q 153.738634 131.282545 154.325686 131.277484 
Q 154.912738 131.272227 155.278261 131.261714 
z
" style="fill: #c2a5cf"/>
   </g>
   <g id="text_65">
    <g id="patch_57">
     <path d="M 140.186595 144.158539 
L 183.532845 144.158539 
L 183.532845 74.476039 
L 140.186595 74.476039 
L 140.186595 144.158539 
z
" style="fill: none"/>
    </g>
    <path d="M 144.079968 129.182827 
L 144.079968 128.124633 
L 149.186213 128.124633 
L 149.186213 128.998177 
L 160.107594 128.998177 
L 160.107594 129.182827 
L 144.079968 129.182827 
z
" style="fill: #bcafc5"/>
   </g>
   <g id="text_66">
    <g id="patch_58">
     <path d="M 140.186595 141.660233 
L 183.532845 141.660233 
L 183.532845 71.977733 
L 140.186595 71.977733 
L 140.186595 141.660233 
z
" style="fill: none"/>
    </g>
    <path d="M 147.6632 125.73238 
L 147.6632 126.477616 
L 149.047757 126.477616 
Q 152.060552 126.477616 153.339882 126.392637 
Q 154.619212 126.30742 154.619212 126.103805 
Q 154.619212 125.901622 153.339882 125.817121 
Q 152.060552 125.73238 149.047757 125.73238 
L 147.6632 125.73238 
z
M 142.556956 125.525662 
L 148.028723 125.525662 
Q 154.358916 125.525662 157.144643 125.661246 
Q 159.935909 125.796592 159.935909 126.103805 
Q 159.935909 126.411972 157.144643 126.548273 
Q 154.358916 126.684334 148.028723 126.684334 
L 142.556956 126.684334 
L 142.556956 125.525662 
z
" style="fill: #9962ac"/>
   </g>
   <g id="text_67">
    <g id="patch_59">
     <path d="M 140.186595 138.887776 
L 183.532845 138.887776 
L 183.532845 69.205276 
L 140.186595 69.205276 
L 140.186595 138.887776 
z
" style="fill: none"/>
    </g>
    <path d="M 142.246815 122.527963 
L 147.735197 122.527963 
L 154.934891 123.533806 
L 154.934891 122.527963 
L 159.431931 122.527963 
L 159.431931 123.911461 
L 153.982316 123.911461 
L 146.743855 122.905618 
L 146.743855 123.911461 
L 142.246815 123.911461 
L 142.246815 122.527963 
z
" style="fill: #a87bb9"/>
   </g>
   <g id="text_68">
    <g id="patch_60">
     <path d="M 140.186595 135.882731 
L 183.532845 135.882731 
L 183.532845 66.200231 
L 140.186595 66.200231 
L 140.186595 135.882731 
z
" style="fill: none"/>
    </g>
    <path d="M 142.556956 119.515178 
L 147.6632 119.515178 
L 147.6632 120.045414 
L 154.048775 120.045414 
L 154.048775 119.515178 
L 159.155019 119.515178 
L 159.155019 120.906401 
L 154.048775 120.906401 
L 154.048775 120.287316 
L 147.6632 120.287316 
L 147.6632 120.906401 
L 142.556956 120.906401 
L 142.556956 119.515178 
z
" style="fill: #a06eb3"/>
   </g>
   <g id="text_69">
    <g id="patch_61">
     <path d="M 140.186595 132.867899 
L 183.532845 132.867899 
L 183.532845 63.185399 
L 140.186595 63.185399 
L 140.186595 132.867899 
z
" style="fill: none"/>
    </g>
    <path d="M 150.84768 117.655289 
L 155.400102 116.45833 
L 160.539576 116.45833 
L 154.397683 117.891492 
L 147.31983 117.891492 
L 141.1724 116.45833 
L 146.311873 116.45833 
L 150.84768 117.655289 
z
" style="fill: #bfaaca"/>
   </g>
   <g id="text_70">
    <g id="patch_62">
     <path d="M 140.186595 129.793734 
L 183.532845 129.793734 
L 183.532845 60.111234 
L 140.186595 60.111234 
L 140.186595 129.793734 
z
" style="fill: none"/>
    </g>
    <path d="M 140.325051 113.011545 
L 145.830048 113.011545 
L 150.84768 113.736706 
L 155.881928 113.011545 
L 161.386924 113.011545 
L 153.411879 114.105236 
L 153.411879 114.816637 
L 148.305635 114.816637 
L 148.305635 114.105236 
L 140.325051 113.011545 
z
" style="fill: #7b3294"/>
   </g>
   <g id="text_71">
    <g id="patch_63">
     <path d="M 140.186595 126.244515 
L 183.532845 126.244515 
L 183.532845 56.562015 
L 140.186595 56.562015 
L 140.186595 126.244515 
z
" style="fill: none"/>
    </g>
    <path d="M 153.411879 111.263505 
L 148.305635 111.263505 
L 148.305635 108.02417 
L 141.742837 108.02417 
L 141.742837 107.348234 
L 159.969138 107.348234 
L 159.969138 108.02417 
L 153.411879 108.02417 
L 153.411879 111.263505 
z
" style="fill: #9e6ab1"/>
   </g>
   <g id="text_72">
    <g id="patch_64">
     <path d="M 140.186595 120.511475 
L 183.532845 120.511475 
L 183.532845 50.828975 
L 140.186595 50.828975 
L 140.186595 120.511475 
z
" style="fill: none"/>
    </g>
    <path d="M 150.84768 102.244146 
L 148.44409 103.889698 
L 153.273423 103.889698 
L 150.84768 102.244146 
z
M 147.735197 101.5171 
L 153.982316 101.5171 
L 160.954943 105.537725 
L 155.848698 105.537725 
L 154.259228 104.542472 
L 147.419518 104.542472 
L 145.863277 105.537725 
L 140.757033 105.537725 
L 147.735197 101.5171 
z
" style="fill: #7f3897"/>
   </g>
   <g id="text_73">
    <g id="patch_65">
     <path d="M 140.186595 114.588985 
L 183.532845 114.588985 
L 183.532845 44.906485 
L 140.186595 44.906485 
L 140.186595 114.588985 
z
" style="fill: none"/>
    </g>
    <path d="M 154.154001 96.660798 
Q 154.912738 96.696765 155.477637 96.834211 
Q 156.042536 96.970372 156.851117 97.359587 
L 161.52538 99.603674 
L 155.920695 99.603674 
L 152.802674 98.030115 
Q 152.664218 97.96075 152.442689 97.845142 
Q 151.074748 97.138646 149.219442 97.138646 
L 147.596742 97.138646 
L 147.596742 99.603674 
L 142.490497 99.603674 
L 142.490497 93.368528 
L 149.861876 93.368528 
Q 154.846279 93.368528 157.017264 93.794995 
Q 159.188249 94.220177 159.188249 95.18358 
Q 159.188249 95.825849 157.892304 96.206072 
Q 156.596359 96.585011 154.154001 96.660798 
z
M 147.596742 94.40515 
L 147.596742 96.103309 
L 150.000332 96.103309 
Q 152.093781 96.103309 153.00205 95.906775 
Q 153.910319 95.708956 153.910319 95.251661 
Q 153.910319 94.798219 153.007588 94.601684 
Q 152.110396 94.40515 150.000332 94.40515 
L 147.596742 94.40515 
z
" style="fill: #b2c3b4"/>
   </g>
   <g id="text_74">
    <g id="patch_66">
     <path d="M 140.186595 106.356072 
L 183.532845 106.356072 
L 183.532845 36.673572 
L 140.186595 36.673572 
L 140.186595 106.356072 
z
" style="fill: none"/>
    </g>
    <path d="M 149.014528 88.544795 
Q 145.154384 88.193734 143.786442 87.808358 
Q 142.4185 87.422982 142.4185 86.771011 
Q 142.4185 85.934271 144.66702 85.45651 
Q 146.921078 84.97743 150.84768 84.97743 
Q 152.630989 84.97743 154.414298 85.075094 
Q 156.197607 85.171438 157.942148 85.360166 
L 157.942148 86.547968 
Q 156.297295 86.272134 154.602598 86.128278 
Q 152.9079 85.983102 151.246433 85.983102 
Q 149.396665 85.983102 148.405323 86.161273 
Q 147.419518 86.338123 147.419518 86.668068 
Q 147.419518 86.924105 148.139488 87.091718 
Q 148.859457 87.25801 151.141206 87.459936 
L 153.339882 87.657903 
Q 156.457903 87.929778 157.925533 88.379823 
Q 159.398701 88.829868 159.398701 89.513514 
Q 159.398701 90.446598 157.083723 90.905881 
Q 154.774283 91.365165 150.105558 91.365165 
Q 148.183794 91.365165 146.250953 91.256943 
Q 144.32365 91.147401 142.523727 90.932277 
L 142.523727 89.674527 
Q 144.567332 90.021629 146.47802 90.190561 
Q 148.388708 90.359492 150.260628 90.359492 
Q 152.143625 90.359492 153.179273 90.156246 
Q 154.22046 89.95168 154.22046 89.583462 
Q 154.22046 89.307628 153.528182 89.099103 
Q 152.835903 88.890577 151.523344 88.771797 
L 149.014528 88.544795 
z
" style="fill: #ba98c8"/>
   </g>
   <g id="text_75">
    <g id="patch_67">
     <path d="M 181.302385 149.779299 
L 224.648635 149.779299 
L 224.648635 80.096799 
L 181.302385 80.096799 
L 181.302385 149.779299 
z
" style="fill: none"/>
    </g>
    <path d="M 181.440841 134.805549 
L 186.945837 134.805549 
L 191.96347 134.805549 
L 196.997717 134.805549 
L 202.502714 134.805549 
L 194.527668 134.805549 
L 194.527668 134.805549 
L 189.421424 134.805549 
L 189.421424 134.805549 
L 181.440841 134.805549 
z
" style="fill: #b3c0b7"/>
   </g>
   <g id="text_76">
    <g id="patch_68">
     <path d="M 181.302385 149.173057 
L 224.648635 149.173057 
L 224.648635 79.490557 
L 181.302385 79.490557 
L 181.302385 149.173057 
z
" style="fill: none"/>
    </g>
    <path d="M 200.54772 133.785706 
L 189.55988 133.785706 
L 189.55988 133.893226 
L 199.561916 133.893226 
L 199.561916 133.980457 
L 189.55988 133.980457 
L 189.55988 134.19838 
L 184.453635 134.19838 
L 184.453635 133.698475 
L 200.54772 133.698475 
L 200.54772 133.785706 
z
" style="fill: #b7b9bc"/>
   </g>
   <g id="text_77">
    <g id="patch_69">
     <path d="M 181.302385 147.693363 
L 224.648635 147.693363 
L 224.648635 78.010863 
L 181.302385 78.010863 
L 181.302385 147.693363 
z
" style="fill: none"/>
    </g>
    <path d="M 181.906051 131.923834 
L 186.115103 131.923834 
L 187.859644 132.506882 
L 189.975247 132.13002 
L 193.973846 132.13002 
L 196.410665 132.506882 
L 197.795222 131.923834 
L 202.037503 131.923834 
L 199.235161 132.718141 
L 194.732583 132.718141 
L 191.96347 132.301351 
L 189.366042 132.718141 
L 184.918846 132.718141 
L 181.906051 131.923834 
z
" style="fill: #a97dba"/>
   </g>
   <g id="text_78">
    <g id="patch_70">
     <path d="M 181.302385 145.854384 
L 224.648635 145.854384 
L 224.648635 76.171884 
L 181.302385 76.171884 
L 181.302385 145.854384 
z
" style="fill: none"/>
    </g>
    <path d="M 183.672746 130.039291 
L 188.77899 130.039291 
L 188.77899 130.359358 
L 195.164564 130.359358 
L 195.164564 130.039291 
L 200.270809 130.039291 
L 200.270809 130.879077 
L 195.164564 130.879077 
L 195.164564 130.505377 
L 188.77899 130.505377 
L 188.77899 130.879077 
L 183.672746 130.879077 
L 183.672746 130.039291 
z
" style="fill: #bd9ecb"/>
   </g>
   <g id="text_79">
    <g id="patch_71">
     <path d="M 181.302385 143.955596 
L 224.648635 143.955596 
L 224.648635 74.273096 
L 181.302385 74.273096 
L 181.302385 143.955596 
z
" style="fill: none"/>
    </g>
    <path d="M 182.792168 128.129906 
L 188.884216 128.129906 
L 191.96347 128.502882 
L 195.026109 128.129906 
L 201.151387 128.129906 
L 201.151387 128.980269 
L 196.759574 128.980269 
L 196.759574 128.299138 
L 194.02369 128.670887 
L 189.958632 128.670887 
L 187.189519 128.299138 
L 187.189519 128.980269 
L 182.792168 128.980269 
L 182.792168 128.129906 
z
" style="fill: #af87bf"/>
   </g>
   <g id="text_80">
    <g id="patch_72">
     <path d="M 181.302385 141.889399 
L 224.648635 141.889399 
L 224.648635 72.206899 
L 181.302385 72.206899 
L 181.302385 141.889399 
z
" style="fill: none"/>
    </g>
    <path d="M 200.010512 126.867627 
Q 198.797641 126.890427 197.462928 126.901726 
Q 196.133754 126.913026 194.666124 126.913026 
Q 189.438039 126.913026 186.68554 126.787726 
Q 183.933042 126.662224 183.933042 126.425142 
Q 183.933042 126.187456 186.68554 126.061954 
Q 189.438039 125.936452 194.666124 125.936452 
Q 196.133754 125.936452 197.485081 125.947752 
Q 198.836408 125.959051 200.010512 125.981851 
L 200.010512 126.188666 
Q 198.697953 126.144479 197.45739 126.1241 
Q 196.222366 126.103519 194.904268 126.103519 
Q 192.101925 126.103519 190.673063 126.184631 
Q 189.244201 126.265541 189.244201 126.425142 
Q 189.244201 126.583936 190.673063 126.665049 
Q 192.101925 126.745959 194.904268 126.745959 
Q 196.222366 126.745959 197.45739 126.72558 
Q 198.697953 126.704999 200.010512 126.660811 
L 200.010512 126.867627 
z
" style="fill: #9962ac"/>
   </g>
   <g id="text_81">
    <g id="patch_73">
     <path d="M 181.302385 139.300716 
L 224.648635 139.300716 
L 224.648635 69.618216 
L 181.302385 69.618216 
L 181.302385 139.300716 
z
" style="fill: none"/>
    </g>
    <path d="M 185.195758 124.32434 
L 185.195758 122.907733 
L 190.302002 122.907733 
L 190.302002 124.077148 
L 201.223384 124.077148 
L 201.223384 124.32434 
L 185.195758 124.32434 
z
" style="fill: #8b4da1"/>
   </g>
   <g id="text_82">
    <g id="patch_74">
     <path d="M 181.302385 136.242655 
L 224.648635 136.242655 
L 224.648635 66.560155 
L 181.302385 66.560155 
L 181.302385 136.242655 
z
" style="fill: none"/>
    </g>
    <path d="M 200.304038 121.265515 
L 184.209953 121.265515 
L 184.209953 119.437247 
L 200.304038 119.437247 
L 200.304038 119.756271 
L 189.316198 119.756271 
L 189.316198 120.149495 
L 199.26839 120.149495 
L 199.26839 120.46852 
L 189.316198 120.46852 
L 189.316198 120.946491 
L 200.304038 120.946491 
L 200.304038 121.265515 
z
" style="fill: #955daa"/>
   </g>
   <g id="text_83">
    <g id="patch_75">
     <path d="M 181.302385 132.746262 
L 224.648635 132.746262 
L 224.648635 63.063762 
L 181.302385 63.063762 
L 181.302385 132.746262 
z
" style="fill: none"/>
    </g>
    <path d="M 194.527668 117.768559 
L 189.421424 117.768559 
L 189.421424 116.004818 
L 182.858626 116.004818 
L 182.858626 115.636787 
L 201.084928 115.636787 
L 201.084928 116.004818 
L 194.527668 116.004818 
L 194.527668 117.768559 
z
" style="fill: #8d4fa3"/>
   </g>
   <g id="text_84">
    <g id="patch_76">
     <path d="M 181.302385 128.930918 
L 224.648635 128.930918 
L 224.648635 59.248418 
L 181.302385 59.248418 
L 181.302385 128.930918 
z
" style="fill: none"/>
    </g>
    <path d="M 184.28195 112.089332 
L 184.28195 111.695394 
L 199.667142 111.695394 
L 199.667142 112.089332 
L 194.527668 112.089332 
L 194.527668 113.559044 
L 199.667142 113.559044 
L 199.667142 113.952982 
L 184.28195 113.952982 
L 184.28195 113.559044 
L 189.421424 113.559044 
L 189.421424 112.089332 
L 184.28195 112.089332 
z
" style="fill: #7d3696"/>
   </g>
   <g id="text_85">
    <g id="patch_77">
     <path d="M 181.302385 124.949923 
L 224.648635 124.949923 
L 224.648635 55.267423 
L 181.302385 55.267423 
L 181.302385 124.949923 
z
" style="fill: none"/>
    </g>
    <path d="M 191.96347 107.438484 
L 189.55988 108.706375 
L 194.389213 108.706375 
L 191.96347 107.438484 
z
M 188.850987 106.878297 
L 195.098106 106.878297 
L 202.070732 109.976173 
L 196.964488 109.976173 
L 195.375017 109.209334 
L 188.535308 109.209334 
L 186.979066 109.976173 
L 181.872822 109.976173 
L 188.850987 106.878297 
z
" style="fill: #9c68af"/>
   </g>
   <g id="text_86">
    <g id="patch_78">
     <path d="M 181.302385 120.112264 
L 224.648635 120.112264 
L 224.648635 50.429764 
L 181.302385 50.429764 
L 181.302385 120.112264 
z
" style="fill: none"/>
    </g>
    <path d="M 195.269791 103.671346 
Q 196.028528 103.689207 196.593427 103.757462 
Q 197.158326 103.82508 197.966907 104.018363 
L 202.641169 105.132773 
L 197.036485 105.132773 
L 193.918464 104.351347 
Q 193.780008 104.3169 193.558479 104.259489 
Q 192.190537 103.908644 190.335231 103.908644 
L 188.712531 103.908644 
L 188.712531 105.132773 
L 183.606287 105.132773 
L 183.606287 102.03641 
L 190.977666 102.03641 
Q 195.962069 102.03641 198.133054 102.248193 
Q 200.304038 102.459337 200.304038 102.937762 
Q 200.304038 103.256711 199.008093 103.44553 
Q 197.712148 103.63371 195.269791 103.671346 
z
M 188.712531 102.551195 
L 188.712531 103.394498 
L 191.116121 103.394498 
Q 193.209571 103.394498 194.11784 103.296899 
Q 195.026109 103.198663 195.026109 102.97157 
Q 195.026109 102.746392 194.123378 102.648793 
Q 193.226185 102.551195 191.116121 102.551195 
L 188.712531 102.551195 
z
" style="fill: #8f53a5"/>
   </g>
   <g id="text_87">
    <g id="patch_79">
     <path d="M 181.302385 115.262254 
L 224.648635 115.262254 
L 224.648635 45.579754 
L 181.302385 45.579754 
L 181.302385 115.262254 
z
" style="fill: none"/>
    </g>
    <path d="M 192.655748 99.849226 
Q 192.412066 99.855057 192.245919 99.857 
Q 192.085311 99.858944 191.93024 99.858944 
Q 187.483045 99.858944 185.190219 99.516203 
Q 182.897394 99.172814 182.897394 98.502882 
Q 182.897394 97.830358 185.190219 97.486321 
Q 187.483045 97.142285 191.96347 97.142285 
Q 196.466048 97.142285 198.758873 97.486321 
Q 201.051699 97.830358 201.051699 98.502882 
Q 201.051699 98.964189 199.960668 99.275183 
Q 198.869638 99.586177 196.792803 99.719645 
L 200.010512 100.039709 
L 196.515892 100.302758 
L 192.655748 99.849226 
z
M 191.96347 97.607479 
Q 190.008476 97.607479 189.105745 97.819344 
Q 188.208553 98.031208 188.208553 98.502882 
Q 188.208553 98.972612 189.105745 99.184476 
Q 190.008476 99.395693 191.96347 99.395693 
Q 193.935078 99.395693 194.832271 99.184476 
Q 195.735002 98.972612 195.735002 98.502882 
Q 195.735002 98.031208 194.832271 97.819344 
Q 193.935078 97.607479 191.96347 97.607479 
z
" style="fill: #7b3294"/>
   </g>
   <g id="text_88">
    <g id="patch_80">
     <path d="M 181.302385 110.348682 
L 224.648635 110.348682 
L 224.648635 40.666182 
L 181.302385 40.666182 
L 181.302385 110.348682 
z
" style="fill: none"/>
    </g>
    <path d="M 183.362605 91.91237 
L 188.850987 91.91237 
L 196.050681 94.425095 
L 196.050681 91.91237 
L 200.54772 91.91237 
L 200.54772 95.368524 
L 195.098106 95.368524 
L 187.859644 92.855799 
L 187.859644 95.368524 
L 183.362605 95.368524 
L 183.362605 91.91237 
z
" style="fill: #7b3294"/>
   </g>
   <g id="text_89">
    <g id="patch_81">
     <path d="M 181.302385 105.085233 
L 224.648635 105.085233 
L 224.648635 35.402733 
L 181.302385 35.402733 
L 181.302385 105.085233 
z
" style="fill: none"/>
    </g>
    <path d="M 190.130317 88.288796 
Q 186.270174 88.063292 184.902232 87.815745 
Q 183.53429 87.568199 183.53429 87.149405 
Q 183.53429 86.611925 185.78281 86.305035 
Q 188.036868 85.997298 191.96347 85.997298 
Q 193.746779 85.997298 195.530087 86.060032 
Q 197.313396 86.121919 199.057937 86.243149 
L 199.057937 87.006134 
Q 197.413084 86.828952 195.718387 86.736546 
Q 194.02369 86.643292 192.362222 86.643292 
Q 190.512455 86.643292 189.521112 86.75774 
Q 188.535308 86.87134 188.535308 87.08328 
Q 188.535308 87.247746 189.255277 87.355411 
Q 189.975247 87.462229 192.256996 87.591937 
L 194.455672 87.719101 
Q 197.573693 87.893739 199.041323 88.182826 
Q 200.514491 88.471913 200.514491 88.911053 
Q 200.514491 89.51042 198.199512 89.805441 
Q 195.890072 90.100462 191.221348 90.100462 
Q 189.299583 90.100462 187.366742 90.030945 
Q 185.43944 89.960581 183.639516 89.822396 
L 183.639516 89.01448 
Q 185.683122 89.237441 187.59381 89.345954 
Q 189.504498 89.454468 191.376418 89.454468 
Q 193.259415 89.454468 194.295063 89.323913 
Q 195.336249 89.19251 195.336249 88.955984 
Q 195.336249 88.778802 194.643971 88.644856 
Q 193.951693 88.51091 192.639133 88.434611 
L 190.130317 88.288796 
z
" style="fill: #9359a8"/>
   </g>
   <g id="text_90">
    <g id="patch_82">
     <path d="M 181.302385 99.136614 
L 224.648635 99.136614 
L 224.648635 29.454114 
L 181.302385 29.454114 
L 181.302385 99.136614 
z
" style="fill: none"/>
    </g>
    <path d="M 191.96347 83.459551 
L 196.515892 79.93516 
L 201.655365 79.93516 
L 195.513473 84.15504 
L 188.43562 84.15504 
L 182.288189 79.93516 
L 187.427663 79.93516 
L 191.96347 83.459551 
z
" style="fill: #7b3294"/>
   </g>
   <g id="text_91">
    <g id="patch_83">
     <path d="M 181.302385 93.012321 
L 224.648635 93.012321 
L 224.648635 23.329821 
L 181.302385 23.329821 
L 181.302385 93.012321 
z
" style="fill: none"/>
    </g>
    <path d="M 196.394051 76.920689 
L 196.394051 75.860013 
L 192.89943 75.860013 
L 192.89943 74.936391 
L 200.857861 74.936391 
L 200.857861 77.483205 
Q 199.390231 77.754929 197.61246 77.895558 
Q 195.840228 78.034995 193.813237 78.034995 
Q 188.795605 78.034995 186.059721 77.28418 
Q 183.329376 76.533364 183.329376 75.152101 
Q 183.329376 73.748195 186.087412 73.006914 
Q 188.850987 72.265632 194.056919 72.265632 
Q 195.613161 72.265632 197.119558 72.360974 
Q 198.625956 72.456316 199.944053 72.635081 
L 199.944053 73.851879 
Q 198.869638 73.553937 197.474005 73.403774 
Q 196.08391 73.252419 194.422442 73.252419 
Q 191.514874 73.252419 190.074935 73.72436 
Q 188.640534 74.195109 188.640534 75.152101 
Q 188.640534 76.079299 190.025091 76.56435 
Q 191.409647 77.048209 194.056919 77.048209 
Q 194.854424 77.048209 195.441476 77.017223 
Q 196.028528 76.985045 196.394051 76.920689 
z
" style="fill: #7b3294"/>
   </g>
   <g id="text_92">
    <g id="patch_84">
     <path d="M 181.302385 85.249996 
L 224.648635 85.249996 
L 224.648635 15.567496 
L 181.302385 15.567496 
L 181.302385 85.249996 
z
" style="fill: none"/>
    </g>
    <path d="M 183.329376 63.984206 
L 188.43562 63.984206 
L 188.43562 66.467123 
L 196.42728 63.984206 
L 202.209188 63.984206 
L 194.056919 66.459359 
L 202.502714 70.264601 
L 196.826032 70.264601 
L 190.700754 67.437517 
L 188.43562 68.137495 
L 188.43562 70.264601 
L 183.329376 70.264601 
L 183.329376 63.984206 
z
" style="fill: #7b3394"/>
   </g>
   <g id="text_93">
    <g id="patch_85">
     <path d="M 181.302385 76.8825 
L 224.648635 76.8825 
L 224.648635 7.2 
L 181.302385 7.2 
L 181.302385 76.8825 
z
" style="fill: none"/>
    </g>
    <path d="M 188.77899 54.953228 
L 188.77899 60.386088 
L 190.163546 60.386088 
Q 193.176341 60.386088 194.455672 59.766581 
Q 195.735002 59.145335 195.735002 57.660957 
Q 195.735002 56.18702 194.455672 55.570994 
Q 193.176341 54.953228 190.163546 54.953228 
L 188.77899 54.953228 
z
M 183.672746 53.446227 
L 189.144513 53.446227 
Q 195.474705 53.446227 198.260433 54.434653 
Q 201.051699 55.421338 201.051699 57.660957 
Q 201.051699 59.907536 198.260433 60.901182 
Q 195.474705 61.893088 189.144513 61.893088 
L 183.672746 61.893088 
L 183.672746 53.446227 
z
" style="fill: #7b3294"/>
   </g>
   <g id="text_94">
    <g id="patch_86">
     <path d="M 222.418174 157.233481 
L 265.764424 157.233481 
L 265.764424 87.550981 
L 222.418174 87.550981 
L 222.418174 157.233481 
z
" style="fill: none"/>
    </g>
    <path d="M 226.311547 142.254088 
L 226.311547 139.2107 
L 231.417792 139.2107 
L 231.417792 141.723031 
L 242.339173 141.723031 
L 242.339173 142.254088 
L 226.311547 142.254088 
z
" style="fill: #8b4da1"/>
   </g>
   <g id="text_95">
    <g id="patch_87">
     <path d="M 222.418174 152.442567 
L 265.764424 152.442567 
L 265.764424 82.760067 
L 222.418174 82.760067 
L 222.418174 152.442567 
z
" style="fill: none"/>
    </g>
    <path d="M 223.907957 136.495021 
L 230.000006 136.495021 
L 233.079259 136.921345 
L 236.141898 136.495021 
L 242.267176 136.495021 
L 242.267176 137.467015 
L 237.875363 137.467015 
L 237.875363 136.688458 
L 235.139479 137.113381 
L 231.074422 137.113381 
L 228.305309 136.688458 
L 228.305309 137.467015 
L 223.907957 137.467015 
L 223.907957 136.495021 
z
" style="fill: #9e6ab1"/>
   </g>
   <g id="text_96">
    <g id="patch_88">
     <path d="M 222.418174 150.259697 
L 265.764424 150.259697 
L 265.764424 80.577197 
L 222.418174 80.577197 
L 222.418174 150.259697 
z
" style="fill: none"/>
    </g>
    <path d="M 241.66351 135.108964 
L 230.675669 135.108964 
L 230.675669 135.154973 
L 240.677705 135.154973 
L 240.677705 135.192299 
L 230.675669 135.192299 
L 230.675669 135.28555 
L 225.569425 135.28555 
L 225.569425 135.071637 
L 241.66351 135.071637 
L 241.66351 135.108964 
z
" style="fill: #a170b3"/>
   </g>
   <g id="text_97">
    <g id="patch_89">
     <path d="M 222.418174 149.779299 
L 265.764424 149.779299 
L 265.764424 80.096799 
L 222.418174 80.096799 
L 222.418174 149.779299 
z
" style="fill: none"/>
    </g>
    <path d="M 233.079259 134.805549 
L 230.675669 134.805549 
L 235.505002 134.805549 
L 233.079259 134.805549 
z
M 229.966776 134.805549 
L 236.213895 134.805549 
L 243.186522 134.805549 
L 238.080277 134.805549 
L 236.490806 134.805549 
L 229.651097 134.805549 
L 228.094856 134.805549 
L 222.988612 134.805549 
L 229.966776 134.805549 
z
" style="fill: #b3c0b7"/>
   </g>
   <g id="text_98">
    <g id="patch_90">
     <path d="M 222.418174 149.506288 
L 265.764424 149.506288 
L 265.764424 79.823788 
L 222.418174 79.823788 
L 222.418174 149.506288 
z
" style="fill: none"/>
    </g>
    <path d="M 223.021841 134.306997 
L 227.230893 134.306997 
L 228.975434 134.472246 
L 231.091036 134.365435 
L 235.089635 134.365435 
L 237.526455 134.472246 
L 238.911011 134.306997 
L 243.153292 134.306997 
L 240.35095 134.532121 
L 235.848372 134.532121 
L 233.079259 134.413993 
L 230.481831 134.532121 
L 226.034636 134.532121 
L 223.021841 134.306997 
z
" style="fill: #9861ac"/>
   </g>
   <g id="text_99">
    <g id="patch_91">
     <path d="M 222.418174 148.821335 
L 265.764424 148.821335 
L 265.764424 79.138835 
L 222.418174 79.138835 
L 222.418174 148.821335 
z
" style="fill: none"/>
    </g>
    <path d="M 230.326761 133.535874 
L 230.326761 133.645388 
L 232.42021 133.645388 
Q 234.929027 133.645388 235.942522 133.633169 
Q 236.956017 133.620872 236.956017 133.590593 
Q 236.956017 133.560313 235.942522 133.548094 
Q 234.929027 133.535874 232.42021 133.535874 
L 230.326761 133.535874 
z
M 225.220517 133.473855 
L 232.231911 133.473855 
Q 237.581837 133.473855 239.924507 133.501368 
Q 242.267176 133.528881 242.267176 133.590593 
Q 242.267176 133.652305 239.924507 133.679818 
Q 237.581837 133.70733 232.231911 133.70733 
L 230.326761 133.70733 
L 230.326761 133.846893 
L 225.220517 133.846893 
L 225.220517 133.473855 
z
" style="fill: #7b3294"/>
   </g>
   <g id="text_100">
    <g id="patch_92">
     <path d="M 222.418174 147.40921 
L 265.764424 147.40921 
L 265.764424 77.72671 
L 222.418174 77.72671 
L 222.418174 147.40921 
z
" style="fill: none"/>
    </g>
    <path d="M 233.079259 132.29435 
L 237.631681 131.587229 
L 242.771155 131.587229 
L 236.629262 132.43389 
L 229.551409 132.43389 
L 223.403979 131.587229 
L 228.543452 131.587229 
L 233.079259 132.29435 
z
" style="fill: #b189c1"/>
   </g>
   <g id="text_101">
    <g id="patch_93">
     <path d="M 222.418174 145.388523 
L 265.764424 145.388523 
L 265.764424 75.706023 
L 222.418174 75.706023 
L 222.418174 145.388523 
z
" style="fill: none"/>
    </g>
    <path d="M 225.39774 129.632899 
L 225.39774 129.467997 
L 240.782932 129.467997 
L 240.782932 129.632899 
L 235.643458 129.632899 
L 235.643458 130.248119 
L 240.782932 130.248119 
L 240.782932 130.413021 
L 225.39774 130.413021 
L 225.39774 130.248119 
L 230.537214 130.248119 
L 230.537214 129.632899 
L 225.39774 129.632899 
z
" style="fill: #955daa"/>
   </g>
   <g id="text_102">
    <g id="patch_94">
     <path d="M 222.418174 143.227101 
L 265.764424 143.227101 
L 265.764424 73.544601 
L 222.418174 73.544601 
L 222.418174 143.227101 
z
" style="fill: none"/>
    </g>
    <path d="M 231.246107 127.82048 
Q 227.385963 127.766925 226.018021 127.708135 
Q 224.650079 127.649345 224.650079 127.549885 
Q 224.650079 127.422238 226.898599 127.349355 
Q 229.152657 127.27627 233.079259 127.27627 
Q 234.862568 127.27627 236.645877 127.291169 
Q 238.429186 127.305866 240.173727 127.334657 
L 240.173727 127.515859 
Q 238.528874 127.47378 236.834176 127.451835 
Q 235.139479 127.429688 233.478012 127.429688 
Q 231.628244 127.429688 230.636902 127.456868 
Q 229.651097 127.483847 229.651097 127.534181 
Q 229.651097 127.57324 230.371067 127.59881 
Q 231.091036 127.624178 233.372785 127.654982 
L 235.571461 127.685183 
Q 238.689482 127.726658 240.157112 127.795313 
Q 241.63028 127.863969 241.63028 127.96826 
Q 241.63028 128.110605 239.315302 128.180669 
Q 237.005862 128.250734 232.337137 128.250734 
Q 230.415373 128.250734 228.482532 128.234225 
Q 226.555229 128.217514 224.755306 128.184696 
L 224.755306 127.992823 
Q 226.798911 128.045774 228.709599 128.071545 
Q 230.620287 128.097316 232.492207 128.097316 
Q 234.375204 128.097316 235.410852 128.066311 
Q 236.452039 128.035104 236.452039 127.978931 
Q 236.452039 127.936852 235.759761 127.905041 
Q 235.067482 127.87323 233.754923 127.85511 
L 231.246107 127.82048 
z
" style="fill: #c1a5ce"/>
   </g>
   <g id="text_103">
    <g id="patch_95">
     <path d="M 222.418174 140.880361 
L 265.764424 140.880361 
L 265.764424 71.197861 
L 222.418174 71.197861 
L 222.418174 140.880361 
z
" style="fill: none"/>
    </g>
    <path d="M 235.643458 125.904567 
L 230.537214 125.904567 
L 230.537214 124.992308 
L 223.974416 124.992308 
L 223.974416 124.801951 
L 242.200717 124.801951 
L 242.200717 124.992308 
L 235.643458 124.992308 
L 235.643458 125.904567 
z
" style="fill: #af87bf"/>
   </g>
   <g id="text_104">
    <g id="patch_96">
     <path d="M 222.418174 138.274598 
L 265.764424 138.274598 
L 265.764424 68.592098 
L 222.418174 68.592098 
L 222.418174 138.274598 
z
" style="fill: none"/>
    </g>
    <path d="M 224.478394 122.089166 
L 229.966776 122.089166 
L 237.16647 122.968464 
L 237.16647 122.089166 
L 241.66351 122.089166 
L 241.66351 123.298606 
L 236.213895 123.298606 
L 228.975434 122.419308 
L 228.975434 123.298606 
L 224.478394 123.298606 
L 224.478394 122.089166 
z
" style="fill: #b590c4"/>
   </g>
   <g id="text_105">
    <g id="patch_97">
     <path d="M 222.418174 135.430219 
L 265.764424 135.430219 
L 265.764424 65.747719 
L 222.418174 65.747719 
L 222.418174 135.430219 
z
" style="fill: none"/>
    </g>
    <path d="M 237.50984 120.101676 
L 237.50984 119.765039 
L 234.015219 119.765039 
L 234.015219 119.471901 
L 241.97365 119.471901 
L 241.97365 120.280207 
Q 240.50602 120.366447 238.72825 120.411079 
Q 236.956017 120.455334 234.929027 120.455334 
Q 229.911394 120.455334 227.17551 120.21704 
Q 224.445165 119.978747 224.445165 119.540363 
Q 224.445165 119.094792 227.203202 118.859524 
Q 229.966776 118.624257 235.172709 118.624257 
Q 236.72895 118.624257 238.235348 118.654516 
Q 239.741745 118.684776 241.059843 118.741512 
L 241.059843 119.127699 
Q 239.985427 119.033138 238.589794 118.98548 
Q 237.199699 118.937443 235.538232 118.937443 
Q 232.630663 118.937443 231.190724 119.087227 
Q 229.756324 119.236633 229.756324 119.540363 
Q 229.756324 119.834636 231.14088 119.988581 
Q 232.525437 120.142148 235.172709 120.142148 
Q 235.970213 120.142148 236.557265 120.132314 
Q 237.144317 120.122101 237.50984 120.101676 
z
" style="fill: #bc9cca"/>
   </g>
   <g id="text_106">
    <g id="patch_98">
     <path d="M 222.418174 131.776963 
L 265.764424 131.776963 
L 265.764424 62.094463 
L 222.418174 62.094463 
L 222.418174 131.776963 
z
" style="fill: none"/>
    </g>
    <path d="M 224.445165 111.202234 
L 229.551409 111.202234 
L 229.551409 113.412449 
L 237.543069 111.202234 
L 243.324977 111.202234 
L 235.172709 113.405539 
L 243.618503 116.792847 
L 237.941822 116.792847 
L 231.816544 114.276265 
L 229.551409 114.899364 
L 229.551409 116.792847 
L 224.445165 116.792847 
L 224.445165 111.202234 
z
" style="fill: #9962ac"/>
   </g>
   <g id="text_107">
    <g id="patch_99">
     <path d="M 222.418174 124.204897 
L 265.764424 124.204897 
L 265.764424 54.522397 
L 222.418174 54.522397 
L 222.418174 124.204897 
z
" style="fill: none"/>
    </g>
    <path d="M 229.894779 103.860563 
L 229.894779 108.05545 
L 231.279336 108.05545 
Q 234.292131 108.05545 235.571461 107.577109 
Q 236.850791 107.097425 236.850791 105.951288 
Q 236.850791 104.813214 235.571461 104.33756 
Q 234.292131 103.860563 231.279336 103.860563 
L 229.894779 103.860563 
z
M 224.788535 102.696959 
L 230.260302 102.696959 
Q 236.590495 102.696959 239.376222 103.460155 
Q 242.167488 104.222006 242.167488 105.951288 
Q 242.167488 107.685945 239.376222 108.453171 
Q 236.590495 109.219054 230.260302 109.219054 
L 224.788535 109.219054 
L 224.788535 102.696959 
z
" style="fill: #9359a8"/>
   </g>
   <g id="text_108">
    <g id="patch_100">
     <path d="M 263.533964 200.156456 
L 306.880214 200.156456 
L 306.880214 130.473956 
L 263.533964 130.473956 
L 263.533964 200.156456 
z
" style="fill: none"/>
    </g>
    <path d="M 265.594184 179.340684 
L 271.082566 179.340684 
L 278.28226 183.580144 
L 278.28226 179.340684 
L 282.779299 179.340684 
L 282.779299 185.171894 
L 277.329685 185.171894 
L 270.091223 180.932434 
L 270.091223 185.171894 
L 265.594184 185.171894 
L 265.594184 179.340684 
z
" style="fill: #90d092"/>
   </g>
   <g id="text_109">
    <g id="patch_101">
     <path d="M 263.533964 192.36558 
L 306.880214 192.36558 
L 306.880214 122.68308 
L 263.533964 122.68308 
L 263.533964 192.36558 
z
" style="fill: none"/>
    </g>
    <path d="M 272.361896 174.816812 
Q 268.501752 174.498229 267.133811 174.148506 
Q 265.765869 173.798782 265.765869 173.207127 
Q 265.765869 172.447796 268.014389 172.014235 
Q 270.268447 171.579477 274.195049 171.579477 
Q 275.978358 171.579477 277.761666 171.668105 
Q 279.544975 171.755536 281.289516 171.926805 
L 281.289516 173.004719 
Q 279.644663 172.754403 277.949966 172.623856 
Q 276.255269 172.492111 274.593801 172.492111 
Q 272.744034 172.492111 271.752691 172.653798 
Q 270.766887 172.814287 270.766887 173.113708 
Q 270.766887 173.346058 271.486856 173.498164 
Q 272.206826 173.649072 274.488575 173.832317 
L 276.68725 174.01197 
Q 279.805272 174.258692 281.272902 174.667102 
Q 282.74607 175.075512 282.74607 175.695911 
Q 282.74607 176.542673 280.431091 176.959466 
Q 278.121651 177.37626 273.452926 177.37626 
Q 271.531162 177.37626 269.598321 177.27805 
Q 267.671019 177.178642 265.871095 176.98342 
L 265.871095 175.842029 
Q 267.914701 176.157019 269.825388 176.310323 
Q 271.736076 176.463626 273.607997 176.463626 
Q 275.490994 176.463626 276.526642 176.279183 
Q 277.567828 176.093542 277.567828 175.759389 
Q 277.567828 175.509073 276.87555 175.319839 
Q 276.183272 175.130605 274.870712 175.022814 
L 272.361896 174.816812 
z
" style="fill: #a8d6a3"/>
   </g>
   <g id="text_110">
    <g id="patch_102">
     <path d="M 263.533964 184.593706 
L 306.880214 184.593706 
L 306.880214 114.911206 
L 263.533964 114.911206 
L 263.533964 184.593706 
z
" style="fill: none"/>
    </g>
    <path d="M 274.195049 165.591358 
L 271.791459 167.604143 
L 276.620792 167.604143 
L 274.195049 165.591358 
z
M 271.082566 164.702058 
L 277.329685 164.702058 
L 284.302311 169.619956 
L 279.196067 169.619956 
L 277.606596 168.402595 
L 270.766887 168.402595 
L 269.210645 169.619956 
L 264.104401 169.619956 
L 271.082566 164.702058 
z
" style="fill: #a9d4a5"/>
   </g>
   <g id="text_111">
    <g id="patch_103">
     <path d="M 263.533964 177.805193 
L 306.880214 177.805193 
L 306.880214 108.122693 
L 263.533964 108.122693 
L 263.533964 177.805193 
z
" style="fill: none"/>
    </g>
    <path d="M 277.50137 160.527556 
Q 278.260107 160.555603 278.825006 160.662784 
Q 279.389905 160.768963 280.198486 161.072475 
L 284.872748 162.822428 
L 279.268064 162.822428 
L 276.150043 161.595358 
Q 276.011587 161.541266 275.790058 161.451114 
Q 274.422116 160.900185 272.56681 160.900185 
L 270.94411 160.900185 
L 270.94411 162.822428 
L 265.837866 162.822428 
L 265.837866 157.960224 
L 273.209245 157.960224 
Q 278.193648 157.960224 280.364632 158.292785 
Q 282.535617 158.624344 282.535617 159.375612 
Q 282.535617 159.876457 281.239672 160.172957 
Q 279.943727 160.468456 277.50137 160.527556 
z
M 270.94411 158.768588 
L 270.94411 160.092822 
L 273.3477 160.092822 
Q 275.44115 160.092822 276.349419 159.939564 
Q 277.257688 159.785303 277.257688 159.428702 
Q 277.257688 159.075105 276.354957 158.921846 
Q 275.457764 158.768588 273.3477 158.768588 
L 270.94411 158.768588 
z
" style="fill: #a7d7a3"/>
   </g>
   <g id="text_112">
    <g id="patch_104">
     <path d="M 263.533964 171.05706 
L 306.880214 171.05706 
L 306.880214 101.37456 
L 263.533964 101.37456 
L 263.533964 171.05706 
z
" style="fill: none"/>
    </g>
    <path d="M 276.759247 156.07597 
L 271.653003 156.07597 
L 271.653003 152.801024 
L 265.090205 152.801024 
L 265.090205 152.117656 
L 283.316507 152.117656 
L 283.316507 152.801024 
L 276.759247 152.801024 
L 276.759247 156.07597 
z
" style="fill: #b3c1b6"/>
   </g>
   <g id="text_113">
    <g id="patch_105">
     <path d="M 263.533964 165.281598 
L 306.880214 165.281598 
L 306.880214 95.599098 
L 263.533964 95.599098 
L 263.533964 165.281598 
z
" style="fill: none"/>
    </g>
    <path d="M 271.010569 147.873582 
L 271.010569 149.774952 
L 272.395125 149.774952 
Q 275.40792 149.774952 276.68725 149.55814 
Q 277.966581 149.340719 277.966581 148.821222 
Q 277.966581 148.305379 276.68725 148.089785 
Q 275.40792 147.873582 272.395125 147.873582 
L 271.010569 147.873582 
z
M 265.904325 147.346167 
L 271.376092 147.346167 
Q 277.706284 147.346167 280.492012 147.692093 
Q 283.283278 148.037409 283.283278 148.821222 
Q 283.283278 149.607471 280.492012 149.955223 
Q 277.706284 150.302367 271.376092 150.302367 
L 265.904325 150.302367 
L 265.904325 147.346167 
z
" style="fill: #aad2a7"/>
   </g>
   <g id="text_114">
    <g id="patch_106">
     <path d="M 263.533964 160.584507 
L 306.880214 160.584507 
L 306.880214 90.902007 
L 263.533964 90.902007 
L 263.533964 160.584507 
z
" style="fill: none"/>
    </g>
    <path d="M 274.195049 145.296849 
L 278.747471 143.723814 
L 283.886944 143.723814 
L 277.745052 145.607265 
L 270.667199 145.607265 
L 264.519768 143.723814 
L 269.659242 143.723814 
L 274.195049 145.296849 
z
" style="fill: #b38ec3"/>
   </g>
   <g id="text_115">
    <g id="patch_107">
     <path d="M 263.533964 157.041797 
L 306.880214 157.041797 
L 306.880214 87.359297 
L 263.533964 87.359297 
L 263.533964 157.041797 
z
" style="fill: none"/>
    </g>
    <path d="M 266.513529 141.02584 
L 266.513529 140.806032 
L 281.898721 140.806032 
L 281.898721 141.02584 
L 276.759247 141.02584 
L 276.759247 141.845903 
L 281.898721 141.845903 
L 281.898721 142.065711 
L 266.513529 142.065711 
L 266.513529 141.845903 
L 271.653003 141.845903 
L 271.653003 141.02584 
L 266.513529 141.02584 
z
" style="fill: #955daa"/>
   </g>
   <g id="text_116">
    <g id="patch_108">
     <path d="M 263.533964 154.212854 
L 306.880214 154.212854 
L 306.880214 84.530354 
L 263.533964 84.530354 
L 263.533964 154.212854 
z
" style="fill: none"/>
    </g>
    <path d="M 264.13763 138.291268 
L 268.346682 138.291268 
L 270.091223 138.985724 
L 272.206826 138.536852 
L 276.205425 138.536852 
L 278.642244 138.985724 
L 280.026801 138.291268 
L 284.269082 138.291268 
L 281.466739 139.23735 
L 276.964162 139.23735 
L 274.195049 138.74092 
L 271.597621 139.23735 
L 267.150425 139.23735 
L 264.13763 138.291268 
z
" style="fill: #b6bbbb"/>
   </g>
   <g id="text_117">
    <g id="patch_109">
     <path d="M 263.533964 152.088177 
L 306.880214 152.088177 
L 306.880214 82.405677 
L 263.533964 82.405677 
L 263.533964 152.088177 
z
" style="fill: none"/>
    </g>
    <path d="M 282.242091 137.077322 
Q 281.02922 137.094939 279.694507 137.10367 
Q 278.365333 137.112401 276.897703 137.112401 
Q 271.669618 137.112401 268.917119 137.015584 
Q 266.164621 136.918612 266.164621 136.735424 
Q 266.164621 136.551769 268.917119 136.454796 
Q 271.669618 136.357824 276.897703 136.357824 
Q 278.365333 136.357824 279.71666 136.366555 
Q 281.067987 136.375285 282.242091 136.392902 
L 282.242091 136.552704 
Q 280.929532 136.518561 279.688969 136.502815 
Q 278.453945 136.486913 277.135847 136.486913 
Q 274.333504 136.486913 272.904642 136.549586 
Q 271.47578 136.612104 271.47578 136.735424 
Q 271.47578 136.858121 272.904642 136.920794 
Q 274.333504 136.983312 277.135847 136.983312 
Q 278.453945 136.983312 279.688969 136.967566 
Q 280.929532 136.951663 282.242091 136.91752 
L 282.242091 137.077322 
z
" style="fill: #bfa0cc"/>
   </g>
   <g id="text_118">
    <g id="patch_110">
     <path d="M 263.533964 150.388674 
L 306.880214 150.388674 
L 306.880214 80.706174 
L 263.533964 80.706174 
L 263.533964 150.388674 
z
" style="fill: none"/>
    </g>
    <path d="M 263.672419 135.143077 
L 269.177416 135.143077 
L 274.195049 135.252084 
L 279.229296 135.143077 
L 284.734293 135.143077 
L 276.759247 135.307482 
L 276.759247 135.414421 
L 271.653003 135.414421 
L 271.653003 135.307482 
L 263.672419 135.143077 
z
" style="fill: #b3c0b7"/>
   </g>
   <g id="text_119">
    <g id="patch_111">
     <path d="M 263.533964 149.779299 
L 306.880214 149.779299 
L 306.880214 80.096799 
L 263.533964 80.096799 
L 263.533964 149.779299 
z
" style="fill: none"/>
    </g>
    <path d="M 278.62563 134.805549 
L 278.62563 134.805549 
L 275.131009 134.805549 
L 275.131009 134.805549 
L 283.08944 134.805549 
L 283.08944 134.805549 
Q 281.62181 134.805549 279.844039 134.805549 
Q 278.071807 134.805549 276.044816 134.805549 
Q 271.027184 134.805549 268.2913 134.805549 
Q 265.560955 134.805549 265.560955 134.805549 
Q 265.560955 134.805549 268.318991 134.805549 
Q 271.082566 134.805549 276.288498 134.805549 
Q 277.84474 134.805549 279.351137 134.805549 
Q 280.857535 134.805549 282.175632 134.805549 
L 282.175632 134.805549 
Q 281.101217 134.805549 279.705584 134.805549 
Q 278.315489 134.805549 276.654021 134.805549 
Q 273.746452 134.805549 272.306514 134.805549 
Q 270.872113 134.805549 270.872113 134.805549 
Q 270.872113 134.805549 272.25667 134.805549 
Q 273.641226 134.805549 276.288498 134.805549 
Q 277.086003 134.805549 277.673055 134.805549 
Q 278.260107 134.805549 278.62563 134.805549 
z
" style="fill: #b3c0b7"/>
   </g>
   <g id="text_120">
    <g id="patch_112">
     <path d="M 263.533964 148.065238 
L 306.880214 148.065238 
L 306.880214 78.382738 
L 263.533964 78.382738 
L 263.533964 148.065238 
z
" style="fill: none"/>
    </g>
    <path d="M 282.779299 129.283282 
L 271.791459 129.283282 
L 271.791459 130.273264 
L 281.793495 130.273264 
L 281.793495 131.076439 
L 271.791459 131.076439 
L 271.791459 133.082953 
L 266.685214 133.082953 
L 266.685214 128.480107 
L 282.779299 128.480107 
L 282.779299 129.283282 
z
" style="fill: #b8b7be"/>
   </g>
   <g id="line2d_16">
    <path d="M 53.843438 134.805549 
L 288.203437 134.805549 
" clip-path="url(#p84f3a07400)" style="fill: none; stroke: #000000; stroke-linecap: square"/>
   </g>
  </g>
 </g>
 <defs>
  <clipPath id="p84f3a07400">
   <rect x="53.843438" y="49.101563" width="234.36" height="138.6"/>
  </clipPath>
 </defs>
</svg>
